G04 #@! TF.GenerationSoftware,KiCad,Pcbnew,5.0.1-33cea8e~68~ubuntu18.04.1*
G04 #@! TF.CreationDate,2018-11-12T23:59:36+00:00*
G04 #@! TF.ProjectId,h-bridge,682D6272696467652E6B696361645F70,rev?*
G04 #@! TF.SameCoordinates,Original*
G04 #@! TF.FileFunction,Copper,L1,Top,Signal*
G04 #@! TF.FilePolarity,Positive*
%FSLAX46Y46*%
G04 Gerber Fmt 4.6, Leading zero omitted, Abs format (unit mm)*
G04 Created by KiCad (PCBNEW 5.0.1-33cea8e~68~ubuntu18.04.1) date Mon 12 Nov 2018 23:59:36 GMT*
%MOMM*%
%LPD*%
G01*
G04 APERTURE LIST*
G04 #@! TA.AperFunction,ComponentPad*
%ADD10O,1.700000X1.700000*%
G04 #@! TD*
G04 #@! TA.AperFunction,ComponentPad*
%ADD11R,1.700000X1.700000*%
G04 #@! TD*
G04 #@! TA.AperFunction,ComponentPad*
%ADD12O,1.600000X1.600000*%
G04 #@! TD*
G04 #@! TA.AperFunction,ComponentPad*
%ADD13C,1.600000*%
G04 #@! TD*
G04 #@! TA.AperFunction,ComponentPad*
%ADD14R,1.500000X1.500000*%
G04 #@! TD*
G04 #@! TA.AperFunction,ComponentPad*
%ADD15C,1.500000*%
G04 #@! TD*
G04 #@! TA.AperFunction,ComponentPad*
%ADD16O,2.400000X2.400000*%
G04 #@! TD*
G04 #@! TA.AperFunction,ComponentPad*
%ADD17C,2.400000*%
G04 #@! TD*
G04 #@! TA.AperFunction,ViaPad*
%ADD18C,2.250000*%
G04 #@! TD*
G04 #@! TA.AperFunction,Conductor*
%ADD19C,1.000000*%
G04 #@! TD*
G04 #@! TA.AperFunction,Conductor*
%ADD20C,0.250000*%
G04 #@! TD*
G04 #@! TA.AperFunction,Conductor*
%ADD21C,2.000000*%
G04 #@! TD*
G04 APERTURE END LIST*
D10*
G04 #@! TO.P,J5,2*
G04 #@! TO.N,OUT_A2*
X105410000Y-115570000D03*
D11*
G04 #@! TO.P,J5,1*
G04 #@! TO.N,OUT_A1*
X105410000Y-118110000D03*
G04 #@! TD*
G04 #@! TO.P,J6,1*
G04 #@! TO.N,OUT_B1*
X144780000Y-118110000D03*
D10*
G04 #@! TO.P,J6,2*
G04 #@! TO.N,OUT_B2*
X144780000Y-115570000D03*
G04 #@! TD*
D11*
G04 #@! TO.P,J4,1*
G04 #@! TO.N,+12V*
X118110000Y-80010000D03*
D10*
G04 #@! TO.P,J4,2*
G04 #@! TO.N,GND*
X120650000Y-80010000D03*
G04 #@! TO.P,J4,3*
G04 #@! TO.N,IN_A1*
X123190000Y-80010000D03*
G04 #@! TO.P,J4,4*
G04 #@! TO.N,IN_A2*
X125730000Y-80010000D03*
G04 #@! TO.P,J4,5*
G04 #@! TO.N,IN_B1*
X128270000Y-80010000D03*
G04 #@! TO.P,J4,6*
G04 #@! TO.N,IN_B2*
X130810000Y-80010000D03*
G04 #@! TD*
D12*
G04 #@! TO.P,R1,2*
G04 #@! TO.N,IN_A1*
X123190000Y-86360000D03*
D13*
G04 #@! TO.P,R1,1*
G04 #@! TO.N,Net-(Q1-Pad2)*
X123190000Y-91440000D03*
G04 #@! TD*
G04 #@! TO.P,R4,1*
G04 #@! TO.N,IN_A2*
X123190000Y-100330000D03*
D12*
G04 #@! TO.P,R4,2*
G04 #@! TO.N,Net-(Q14-Pad2)*
X123190000Y-105410000D03*
G04 #@! TD*
G04 #@! TO.P,R5,2*
G04 #@! TO.N,IN_B1*
X127000000Y-100330000D03*
D13*
G04 #@! TO.P,R5,1*
G04 #@! TO.N,Net-(Q15-Pad2)*
X127000000Y-105410000D03*
G04 #@! TD*
G04 #@! TO.P,R8,1*
G04 #@! TO.N,IN_B2*
X127000000Y-86360000D03*
D12*
G04 #@! TO.P,R8,2*
G04 #@! TO.N,Net-(Q28-Pad2)*
X127000000Y-91440000D03*
G04 #@! TD*
D14*
G04 #@! TO.P,Q20,1*
G04 #@! TO.N,+12V*
X139700000Y-95250000D03*
D15*
G04 #@! TO.P,Q20,3*
G04 #@! TO.N,OUT_B2*
X144780000Y-95250000D03*
G04 #@! TO.P,Q20,2*
G04 #@! TO.N,Net-(Q15-Pad1)*
X142240000Y-95250000D03*
G04 #@! TD*
G04 #@! TO.P,Q19,2*
G04 #@! TO.N,Net-(Q16-Pad2)*
X140970000Y-147320000D03*
G04 #@! TO.P,Q19,3*
G04 #@! TO.N,OUT_B1*
X143510000Y-147320000D03*
D14*
G04 #@! TO.P,Q19,1*
G04 #@! TO.N,GND*
X138430000Y-147320000D03*
G04 #@! TD*
G04 #@! TO.P,Q21,1*
G04 #@! TO.N,+12V*
X139700000Y-87630000D03*
D15*
G04 #@! TO.P,Q21,3*
G04 #@! TO.N,OUT_B2*
X144780000Y-87630000D03*
G04 #@! TO.P,Q21,2*
G04 #@! TO.N,Net-(Q15-Pad1)*
X142240000Y-87630000D03*
G04 #@! TD*
G04 #@! TO.P,Q22,2*
G04 #@! TO.N,Net-(Q22-Pad2)*
X133350000Y-87630000D03*
G04 #@! TO.P,Q22,3*
G04 #@! TO.N,OUT_B1*
X130810000Y-87630000D03*
D14*
G04 #@! TO.P,Q22,1*
G04 #@! TO.N,+12V*
X135890000Y-87630000D03*
G04 #@! TD*
G04 #@! TO.P,Q23,1*
G04 #@! TO.N,+12V*
X135890000Y-95250000D03*
D15*
G04 #@! TO.P,Q23,3*
G04 #@! TO.N,OUT_B1*
X130810000Y-95250000D03*
G04 #@! TO.P,Q23,2*
G04 #@! TO.N,Net-(Q22-Pad2)*
X133350000Y-95250000D03*
G04 #@! TD*
G04 #@! TO.P,Q24,2*
G04 #@! TO.N,Net-(Q24-Pad2)*
X132080000Y-147320000D03*
G04 #@! TO.P,Q24,3*
G04 #@! TO.N,OUT_B2*
X129540000Y-147320000D03*
D14*
G04 #@! TO.P,Q24,1*
G04 #@! TO.N,GND*
X134620000Y-147320000D03*
G04 #@! TD*
G04 #@! TO.P,Q25,1*
G04 #@! TO.N,+12V*
X135890000Y-102870000D03*
D15*
G04 #@! TO.P,Q25,3*
G04 #@! TO.N,OUT_B1*
X130810000Y-102870000D03*
G04 #@! TO.P,Q25,2*
G04 #@! TO.N,Net-(Q22-Pad2)*
X133350000Y-102870000D03*
G04 #@! TD*
G04 #@! TO.P,Q26,2*
G04 #@! TO.N,Net-(Q24-Pad2)*
X132080000Y-139700000D03*
G04 #@! TO.P,Q26,3*
G04 #@! TO.N,OUT_B2*
X129540000Y-139700000D03*
D14*
G04 #@! TO.P,Q26,1*
G04 #@! TO.N,GND*
X134620000Y-139700000D03*
G04 #@! TD*
G04 #@! TO.P,Q27,1*
G04 #@! TO.N,GND*
X134620000Y-132080000D03*
D15*
G04 #@! TO.P,Q27,3*
G04 #@! TO.N,OUT_B2*
X129540000Y-132080000D03*
G04 #@! TO.P,Q27,2*
G04 #@! TO.N,Net-(Q24-Pad2)*
X132080000Y-132080000D03*
G04 #@! TD*
G04 #@! TO.P,Q28,2*
G04 #@! TO.N,Net-(Q28-Pad2)*
X129540000Y-110490000D03*
G04 #@! TO.P,Q28,3*
G04 #@! TO.N,Net-(Q28-Pad3)*
X127000000Y-110490000D03*
D14*
G04 #@! TO.P,Q28,1*
G04 #@! TO.N,Net-(Q22-Pad2)*
X132080000Y-110490000D03*
G04 #@! TD*
G04 #@! TO.P,Q10,1*
G04 #@! TO.N,GND*
X114300000Y-147320000D03*
D15*
G04 #@! TO.P,Q10,3*
G04 #@! TO.N,OUT_A2*
X119380000Y-147320000D03*
G04 #@! TO.P,Q10,2*
G04 #@! TO.N,Net-(Q10-Pad2)*
X116840000Y-147320000D03*
G04 #@! TD*
G04 #@! TO.P,Q2,2*
G04 #@! TO.N,Net-(Q2-Pad2)*
X107950000Y-132080000D03*
G04 #@! TO.P,Q2,3*
G04 #@! TO.N,OUT_A1*
X105410000Y-132080000D03*
D14*
G04 #@! TO.P,Q2,1*
G04 #@! TO.N,GND*
X110490000Y-132080000D03*
G04 #@! TD*
G04 #@! TO.P,Q3,1*
G04 #@! TO.N,GND*
X110490000Y-139700000D03*
D15*
G04 #@! TO.P,Q3,3*
G04 #@! TO.N,OUT_A1*
X105410000Y-139700000D03*
G04 #@! TO.P,Q3,2*
G04 #@! TO.N,Net-(Q2-Pad2)*
X107950000Y-139700000D03*
G04 #@! TD*
G04 #@! TO.P,Q4,2*
G04 #@! TO.N,Net-(Q1-Pad1)*
X116840000Y-102870000D03*
G04 #@! TO.P,Q4,3*
G04 #@! TO.N,OUT_A2*
X119380000Y-102870000D03*
D14*
G04 #@! TO.P,Q4,1*
G04 #@! TO.N,+12V*
X114300000Y-102870000D03*
G04 #@! TD*
G04 #@! TO.P,Q17,1*
G04 #@! TO.N,GND*
X138430000Y-139700000D03*
D15*
G04 #@! TO.P,Q17,3*
G04 #@! TO.N,OUT_B1*
X143510000Y-139700000D03*
G04 #@! TO.P,Q17,2*
G04 #@! TO.N,Net-(Q16-Pad2)*
X140970000Y-139700000D03*
G04 #@! TD*
G04 #@! TO.P,Q16,2*
G04 #@! TO.N,Net-(Q16-Pad2)*
X140970000Y-132080000D03*
G04 #@! TO.P,Q16,3*
G04 #@! TO.N,OUT_B1*
X143510000Y-132080000D03*
D14*
G04 #@! TO.P,Q16,1*
G04 #@! TO.N,GND*
X138430000Y-132080000D03*
G04 #@! TD*
G04 #@! TO.P,Q15,1*
G04 #@! TO.N,Net-(Q15-Pad1)*
X139700000Y-110490000D03*
D15*
G04 #@! TO.P,Q15,3*
G04 #@! TO.N,Net-(Q15-Pad3)*
X134620000Y-110490000D03*
G04 #@! TO.P,Q15,2*
G04 #@! TO.N,Net-(Q15-Pad2)*
X137160000Y-110490000D03*
G04 #@! TD*
G04 #@! TO.P,Q14,2*
G04 #@! TO.N,Net-(Q14-Pad2)*
X114300000Y-110490000D03*
G04 #@! TO.P,Q14,3*
G04 #@! TO.N,Net-(Q14-Pad3)*
X116840000Y-110490000D03*
D14*
G04 #@! TO.P,Q14,1*
G04 #@! TO.N,Net-(Q11-Pad2)*
X111760000Y-110490000D03*
G04 #@! TD*
G04 #@! TO.P,Q13,1*
G04 #@! TO.N,GND*
X114300000Y-132080000D03*
D15*
G04 #@! TO.P,Q13,3*
G04 #@! TO.N,OUT_A2*
X119380000Y-132080000D03*
G04 #@! TO.P,Q13,2*
G04 #@! TO.N,Net-(Q10-Pad2)*
X116840000Y-132080000D03*
G04 #@! TD*
G04 #@! TO.P,Q12,2*
G04 #@! TO.N,Net-(Q10-Pad2)*
X116840000Y-139700000D03*
G04 #@! TO.P,Q12,3*
G04 #@! TO.N,OUT_A2*
X119380000Y-139700000D03*
D14*
G04 #@! TO.P,Q12,1*
G04 #@! TO.N,GND*
X114300000Y-139700000D03*
G04 #@! TD*
G04 #@! TO.P,Q11,1*
G04 #@! TO.N,+12V*
X110490000Y-102870000D03*
D15*
G04 #@! TO.P,Q11,3*
G04 #@! TO.N,OUT_A1*
X105410000Y-102870000D03*
G04 #@! TO.P,Q11,2*
G04 #@! TO.N,Net-(Q11-Pad2)*
X107950000Y-102870000D03*
G04 #@! TD*
G04 #@! TO.P,Q1,2*
G04 #@! TO.N,Net-(Q1-Pad2)*
X121920000Y-110490000D03*
G04 #@! TO.P,Q1,3*
G04 #@! TO.N,Net-(Q1-Pad3)*
X124460000Y-110490000D03*
D14*
G04 #@! TO.P,Q1,1*
G04 #@! TO.N,Net-(Q1-Pad1)*
X119380000Y-110490000D03*
G04 #@! TD*
G04 #@! TO.P,Q9,1*
G04 #@! TO.N,+12V*
X110490000Y-95250000D03*
D15*
G04 #@! TO.P,Q9,3*
G04 #@! TO.N,OUT_A1*
X105410000Y-95250000D03*
G04 #@! TO.P,Q9,2*
G04 #@! TO.N,Net-(Q11-Pad2)*
X107950000Y-95250000D03*
G04 #@! TD*
G04 #@! TO.P,Q8,2*
G04 #@! TO.N,Net-(Q11-Pad2)*
X107950000Y-87630000D03*
G04 #@! TO.P,Q8,3*
G04 #@! TO.N,OUT_A1*
X105410000Y-87630000D03*
D14*
G04 #@! TO.P,Q8,1*
G04 #@! TO.N,+12V*
X110490000Y-87630000D03*
G04 #@! TD*
G04 #@! TO.P,Q7,1*
G04 #@! TO.N,+12V*
X114300000Y-87630000D03*
D15*
G04 #@! TO.P,Q7,3*
G04 #@! TO.N,OUT_A2*
X119380000Y-87630000D03*
G04 #@! TO.P,Q7,2*
G04 #@! TO.N,Net-(Q1-Pad1)*
X116840000Y-87630000D03*
G04 #@! TD*
G04 #@! TO.P,Q6,2*
G04 #@! TO.N,Net-(Q1-Pad1)*
X116840000Y-95250000D03*
G04 #@! TO.P,Q6,3*
G04 #@! TO.N,OUT_A2*
X119380000Y-95250000D03*
D14*
G04 #@! TO.P,Q6,1*
G04 #@! TO.N,+12V*
X114300000Y-95250000D03*
G04 #@! TD*
G04 #@! TO.P,Q18,1*
G04 #@! TO.N,+12V*
X139700000Y-102870000D03*
D15*
G04 #@! TO.P,Q18,3*
G04 #@! TO.N,OUT_B2*
X144780000Y-102870000D03*
G04 #@! TO.P,Q18,2*
G04 #@! TO.N,Net-(Q15-Pad1)*
X142240000Y-102870000D03*
G04 #@! TD*
G04 #@! TO.P,Q5,2*
G04 #@! TO.N,Net-(Q2-Pad2)*
X107950000Y-147320000D03*
G04 #@! TO.P,Q5,3*
G04 #@! TO.N,OUT_A1*
X105410000Y-147320000D03*
D14*
G04 #@! TO.P,Q5,1*
G04 #@! TO.N,GND*
X110490000Y-147320000D03*
G04 #@! TD*
D16*
G04 #@! TO.P,R2,2*
G04 #@! TO.N,Net-(Q2-Pad2)*
X110490000Y-118110000D03*
D17*
G04 #@! TO.P,R2,1*
G04 #@! TO.N,Net-(Q1-Pad3)*
X115570000Y-118110000D03*
G04 #@! TD*
G04 #@! TO.P,R3,1*
G04 #@! TO.N,Net-(Q14-Pad3)*
X115570000Y-124460000D03*
D16*
G04 #@! TO.P,R3,2*
G04 #@! TO.N,Net-(Q10-Pad2)*
X110490000Y-124460000D03*
G04 #@! TD*
G04 #@! TO.P,R6,2*
G04 #@! TO.N,Net-(Q16-Pad2)*
X137160000Y-118110000D03*
D17*
G04 #@! TO.P,R6,1*
G04 #@! TO.N,Net-(Q15-Pad3)*
X132080000Y-118110000D03*
G04 #@! TD*
G04 #@! TO.P,R7,1*
G04 #@! TO.N,Net-(Q28-Pad3)*
X132080000Y-124460000D03*
D16*
G04 #@! TO.P,R7,2*
G04 #@! TO.N,Net-(Q24-Pad2)*
X137160000Y-124460000D03*
G04 #@! TD*
D18*
G04 #@! TO.N,OUT_A2*
X123190000Y-118110000D03*
G04 #@! TO.N,OUT_B1*
X140970000Y-114300000D03*
G04 #@! TD*
D19*
G04 #@! TO.N,Net-(Q28-Pad3)*
X127000000Y-119380000D02*
X132080000Y-124460000D01*
X127000000Y-110490000D02*
X127000000Y-119380000D01*
G04 #@! TO.N,Net-(Q24-Pad2)*
X132080000Y-129540000D02*
X137160000Y-124460000D01*
X132080000Y-132080000D02*
X132080000Y-129540000D01*
X132080000Y-132080000D02*
X132080000Y-139700000D01*
X132080000Y-139700000D02*
X132080000Y-147320000D01*
G04 #@! TO.N,Net-(Q16-Pad2)*
X140970000Y-121920000D02*
X137160000Y-118110000D01*
X140970000Y-132080000D02*
X140970000Y-121920000D01*
X140970000Y-132080000D02*
X140970000Y-147320000D01*
G04 #@! TO.N,Net-(Q15-Pad3)*
X134620000Y-115570000D02*
X134620000Y-110490000D01*
X132080000Y-118110000D02*
X134620000Y-115570000D01*
D20*
G04 #@! TO.N,IN_B1*
X125874999Y-99204999D02*
X126200001Y-99530001D01*
X125874999Y-83675001D02*
X125874999Y-99204999D01*
X126200001Y-99530001D02*
X127000000Y-100330000D01*
X128270000Y-81280000D02*
X125874999Y-83675001D01*
X128270000Y-80010000D02*
X128270000Y-81280000D01*
G04 #@! TO.N,IN_A2*
X123989999Y-99530001D02*
X123190000Y-100330000D01*
X124880001Y-98639999D02*
X123989999Y-99530001D01*
X124880001Y-82129999D02*
X124880001Y-98639999D01*
X125730000Y-81280000D02*
X124880001Y-82129999D01*
X125730000Y-80010000D02*
X125730000Y-81280000D01*
D19*
G04 #@! TO.N,Net-(Q14-Pad3)*
X116090001Y-111239999D02*
X116840000Y-110490000D01*
X113369999Y-113960001D02*
X116090001Y-111239999D01*
X113369999Y-122259999D02*
X113369999Y-113960001D01*
X115570000Y-124460000D02*
X113369999Y-122259999D01*
G04 #@! TO.N,Net-(Q10-Pad2)*
X116840000Y-130810000D02*
X110490000Y-124460000D01*
X116840000Y-132080000D02*
X116840000Y-130810000D01*
X116840000Y-139700000D02*
X116840000Y-132080000D01*
X116840000Y-139700000D02*
X116840000Y-147320000D01*
G04 #@! TO.N,Net-(Q2-Pad2)*
X107950000Y-120650000D02*
X110490000Y-118110000D01*
X107950000Y-132080000D02*
X107950000Y-120650000D01*
X107950000Y-132080000D02*
X107950000Y-139700000D01*
X107950000Y-147320000D02*
X107950000Y-139700000D01*
G04 #@! TO.N,Net-(Q1-Pad3)*
X116840000Y-118110000D02*
X115570000Y-118110000D01*
X124460000Y-110490000D02*
X116840000Y-118110000D01*
D20*
G04 #@! TO.N,Net-(Q1-Pad2)*
X121920000Y-92710000D02*
X123190000Y-91440000D01*
X121920000Y-110490000D02*
X121920000Y-92710000D01*
G04 #@! TO.N,IN_A1*
X123190000Y-80010000D02*
X123190000Y-82550000D01*
X123190000Y-81280000D02*
X123190000Y-82550000D01*
X123190000Y-82550000D02*
X123190000Y-86360000D01*
G04 #@! TO.N,Net-(Q28-Pad2)*
X128790001Y-109740001D02*
X129540000Y-110490000D01*
X128125001Y-109075001D02*
X128790001Y-109740001D01*
X128125001Y-92565001D02*
X128125001Y-109075001D01*
X127000000Y-91440000D02*
X128125001Y-92565001D01*
G04 #@! TO.N,IN_B2*
X130810000Y-82550000D02*
X127000000Y-86360000D01*
X130810000Y-81280000D02*
X130810000Y-82550000D01*
X130810000Y-80010000D02*
X130810000Y-82550000D01*
D21*
G04 #@! TO.N,OUT_A1*
X105410000Y-132080000D02*
X105410000Y-147320000D01*
X105410000Y-132080000D02*
X105410000Y-118110000D01*
X105410000Y-87630000D02*
X105410000Y-102870000D01*
X104471998Y-118110000D02*
X105410000Y-118110000D01*
X103059999Y-116698001D02*
X104471998Y-118110000D01*
X103059999Y-105220001D02*
X103059999Y-116698001D01*
X105410000Y-102870000D02*
X103059999Y-105220001D01*
G04 #@! TO.N,GND*
X134620000Y-148110002D02*
X134620000Y-147320000D01*
X133160001Y-149570001D02*
X134620000Y-148110002D01*
X114300000Y-148110002D02*
X115759999Y-149570001D01*
X115759999Y-149860000D02*
X133160001Y-149860000D01*
X114300000Y-147320000D02*
X114300000Y-148110002D01*
G04 #@! TO.N,OUT_B2*
X129540000Y-132080000D02*
X129540000Y-139700000D01*
X129540000Y-139700000D02*
X129540000Y-147320000D01*
X144780000Y-87630000D02*
X144780000Y-115570000D01*
D19*
G04 #@! TO.N,Net-(Q15-Pad1)*
X142240000Y-107950000D02*
X142240000Y-102870000D01*
X139700000Y-110490000D02*
X142240000Y-107950000D01*
X142240000Y-102870000D02*
X142240000Y-95250000D01*
X142240000Y-95250000D02*
X142240000Y-87630000D01*
G04 #@! TO.N,Net-(Q1-Pad1)*
X116840000Y-87630000D02*
X116840000Y-95250000D01*
X116840000Y-95250000D02*
X116840000Y-102870000D01*
X116840000Y-107950000D02*
X119380000Y-110490000D01*
X116840000Y-102870000D02*
X116840000Y-107950000D01*
D21*
G04 #@! TO.N,OUT_A2*
X119380000Y-132080000D02*
X119380000Y-147320000D01*
X119380000Y-87630000D02*
X119380000Y-102870000D01*
X119380000Y-132080000D02*
X119380000Y-121920000D01*
X119380000Y-121920000D02*
X123190000Y-118110000D01*
X123190000Y-118110000D02*
X123190000Y-118110000D01*
D19*
G04 #@! TO.N,Net-(Q11-Pad2)*
X107950000Y-106680000D02*
X107950000Y-102870000D01*
X111760000Y-110490000D02*
X107950000Y-106680000D01*
X107950000Y-102870000D02*
X107950000Y-95250000D01*
X107950000Y-95250000D02*
X107950000Y-87630000D01*
D21*
G04 #@! TO.N,OUT_B1*
X143510000Y-132080000D02*
X143510000Y-147320000D01*
X143510000Y-132080000D02*
X143510000Y-119190001D01*
X144590001Y-118110000D02*
X144780000Y-118110000D01*
X143510000Y-119190001D02*
X144590001Y-118110000D01*
X130810000Y-87630000D02*
X130810000Y-102870000D01*
X141930000Y-118110000D02*
X144780000Y-118110000D01*
X140970000Y-117150000D02*
X141930000Y-118110000D01*
X140970000Y-114300000D02*
X140970000Y-117150000D01*
D19*
G04 #@! TO.N,Net-(Q22-Pad2)*
X133350000Y-102870000D02*
X133350000Y-95250000D01*
X133350000Y-95250000D02*
X133350000Y-87630000D01*
X133350000Y-109220000D02*
X132080000Y-110490000D01*
X133350000Y-102870000D02*
X133350000Y-109220000D01*
G04 #@! TD*
M02*
