G04 #@! TF.GenerationSoftware,KiCad,Pcbnew,5.0.1-33cea8e~68~ubuntu18.04.1*
G04 #@! TF.CreationDate,2018-11-12T23:59:36+00:00*
G04 #@! TF.ProjectId,h-bridge,682D6272696467652E6B696361645F70,rev?*
G04 #@! TF.SameCoordinates,Original*
G04 #@! TF.FileFunction,Other,User*
%FSLAX46Y46*%
G04 Gerber Fmt 4.6, Leading zero omitted, Abs format (unit mm)*
G04 Created by KiCad (PCBNEW 5.0.1-33cea8e~68~ubuntu18.04.1) date Mon 12 Nov 2018 23:59:36 GMT*
%MOMM*%
%LPD*%
G01*
G04 APERTURE LIST*
%ADD10C,0.050000*%
G04 APERTURE END LIST*
D10*
G04 #@! TO.C,J5*
X103610000Y-119910000D02*
X107210000Y-119910000D01*
X103610000Y-113760000D02*
X103610000Y-119910000D01*
X107210000Y-113760000D02*
X103610000Y-113760000D01*
X107210000Y-119910000D02*
X107210000Y-113760000D01*
G04 #@! TO.C,J6*
X146580000Y-119910000D02*
X146580000Y-113760000D01*
X146580000Y-113760000D02*
X142980000Y-113760000D01*
X142980000Y-113760000D02*
X142980000Y-119910000D01*
X142980000Y-119910000D02*
X146580000Y-119910000D01*
G04 #@! TO.C,J4*
X116310000Y-81810000D02*
X132610000Y-81810000D01*
X132610000Y-81810000D02*
X132610000Y-78210000D01*
X132610000Y-78210000D02*
X116310000Y-78210000D01*
X116310000Y-78210000D02*
X116310000Y-81810000D01*
G04 #@! TO.C,R1*
X121690000Y-85310000D02*
X121690000Y-92940000D01*
X124690000Y-85310000D02*
X121690000Y-85310000D01*
X124690000Y-92940000D02*
X124690000Y-85310000D01*
X121690000Y-92940000D02*
X124690000Y-92940000D01*
G04 #@! TO.C,R4*
X124690000Y-98830000D02*
X121690000Y-98830000D01*
X121690000Y-98830000D02*
X121690000Y-106460000D01*
X121690000Y-106460000D02*
X124690000Y-106460000D01*
X124690000Y-106460000D02*
X124690000Y-98830000D01*
G04 #@! TO.C,R5*
X125500000Y-99280000D02*
X125500000Y-106910000D01*
X128500000Y-99280000D02*
X125500000Y-99280000D01*
X128500000Y-106910000D02*
X128500000Y-99280000D01*
X125500000Y-106910000D02*
X128500000Y-106910000D01*
G04 #@! TO.C,R8*
X128500000Y-84860000D02*
X125500000Y-84860000D01*
X125500000Y-84860000D02*
X125500000Y-92490000D01*
X125500000Y-92490000D02*
X128500000Y-92490000D01*
X128500000Y-92490000D02*
X128500000Y-84860000D01*
G04 #@! TO.C,Q20*
X145790000Y-97260000D02*
X138690000Y-97260000D01*
X145790000Y-97260000D02*
X145790000Y-92520000D01*
X138690000Y-92520000D02*
X138690000Y-97260000D01*
X138690000Y-92520000D02*
X145790000Y-92520000D01*
G04 #@! TO.C,Q19*
X137420000Y-144590000D02*
X144520000Y-144590000D01*
X137420000Y-144590000D02*
X137420000Y-149330000D01*
X144520000Y-149330000D02*
X144520000Y-144590000D01*
X144520000Y-149330000D02*
X137420000Y-149330000D01*
G04 #@! TO.C,Q21*
X145790000Y-89640000D02*
X138690000Y-89640000D01*
X145790000Y-89640000D02*
X145790000Y-84900000D01*
X138690000Y-84900000D02*
X138690000Y-89640000D01*
X138690000Y-84900000D02*
X145790000Y-84900000D01*
G04 #@! TO.C,Q22*
X136900000Y-90360000D02*
X129800000Y-90360000D01*
X136900000Y-90360000D02*
X136900000Y-85620000D01*
X129800000Y-85620000D02*
X129800000Y-90360000D01*
X129800000Y-85620000D02*
X136900000Y-85620000D01*
G04 #@! TO.C,Q23*
X129800000Y-93240000D02*
X136900000Y-93240000D01*
X129800000Y-93240000D02*
X129800000Y-97980000D01*
X136900000Y-97980000D02*
X136900000Y-93240000D01*
X136900000Y-97980000D02*
X129800000Y-97980000D01*
G04 #@! TO.C,Q24*
X135630000Y-150050000D02*
X128530000Y-150050000D01*
X135630000Y-150050000D02*
X135630000Y-145310000D01*
X128530000Y-145310000D02*
X128530000Y-150050000D01*
X128530000Y-145310000D02*
X135630000Y-145310000D01*
G04 #@! TO.C,Q25*
X129800000Y-100860000D02*
X136900000Y-100860000D01*
X129800000Y-100860000D02*
X129800000Y-105600000D01*
X136900000Y-105600000D02*
X136900000Y-100860000D01*
X136900000Y-105600000D02*
X129800000Y-105600000D01*
G04 #@! TO.C,Q26*
X135630000Y-142430000D02*
X128530000Y-142430000D01*
X135630000Y-142430000D02*
X135630000Y-137690000D01*
X128530000Y-137690000D02*
X128530000Y-142430000D01*
X128530000Y-137690000D02*
X135630000Y-137690000D01*
G04 #@! TO.C,Q27*
X128530000Y-130070000D02*
X135630000Y-130070000D01*
X128530000Y-130070000D02*
X128530000Y-134810000D01*
X135630000Y-134810000D02*
X135630000Y-130070000D01*
X135630000Y-134810000D02*
X128530000Y-134810000D01*
G04 #@! TO.C,Q28*
X133090000Y-113220000D02*
X125990000Y-113220000D01*
X133090000Y-113220000D02*
X133090000Y-108480000D01*
X125990000Y-108480000D02*
X125990000Y-113220000D01*
X125990000Y-108480000D02*
X133090000Y-108480000D01*
G04 #@! TO.C,Q10*
X120390000Y-149330000D02*
X113290000Y-149330000D01*
X120390000Y-149330000D02*
X120390000Y-144590000D01*
X113290000Y-144590000D02*
X113290000Y-149330000D01*
X113290000Y-144590000D02*
X120390000Y-144590000D01*
G04 #@! TO.C,Q2*
X111500000Y-134810000D02*
X104400000Y-134810000D01*
X111500000Y-134810000D02*
X111500000Y-130070000D01*
X104400000Y-130070000D02*
X104400000Y-134810000D01*
X104400000Y-130070000D02*
X111500000Y-130070000D01*
G04 #@! TO.C,Q3*
X104400000Y-137690000D02*
X111500000Y-137690000D01*
X104400000Y-137690000D02*
X104400000Y-142430000D01*
X111500000Y-142430000D02*
X111500000Y-137690000D01*
X111500000Y-142430000D02*
X104400000Y-142430000D01*
G04 #@! TO.C,Q4*
X113290000Y-100140000D02*
X120390000Y-100140000D01*
X113290000Y-100140000D02*
X113290000Y-104880000D01*
X120390000Y-104880000D02*
X120390000Y-100140000D01*
X120390000Y-104880000D02*
X113290000Y-104880000D01*
G04 #@! TO.C,Q17*
X144520000Y-141710000D02*
X137420000Y-141710000D01*
X144520000Y-141710000D02*
X144520000Y-136970000D01*
X137420000Y-136970000D02*
X137420000Y-141710000D01*
X137420000Y-136970000D02*
X144520000Y-136970000D01*
G04 #@! TO.C,Q16*
X137420000Y-129350000D02*
X144520000Y-129350000D01*
X137420000Y-129350000D02*
X137420000Y-134090000D01*
X144520000Y-134090000D02*
X144520000Y-129350000D01*
X144520000Y-134090000D02*
X137420000Y-134090000D01*
G04 #@! TO.C,Q15*
X133610000Y-108480000D02*
X140710000Y-108480000D01*
X133610000Y-108480000D02*
X133610000Y-113220000D01*
X140710000Y-113220000D02*
X140710000Y-108480000D01*
X140710000Y-113220000D02*
X133610000Y-113220000D01*
G04 #@! TO.C,Q14*
X110750000Y-107760000D02*
X117850000Y-107760000D01*
X110750000Y-107760000D02*
X110750000Y-112500000D01*
X117850000Y-112500000D02*
X117850000Y-107760000D01*
X117850000Y-112500000D02*
X110750000Y-112500000D01*
G04 #@! TO.C,Q13*
X120390000Y-134090000D02*
X113290000Y-134090000D01*
X120390000Y-134090000D02*
X120390000Y-129350000D01*
X113290000Y-129350000D02*
X113290000Y-134090000D01*
X113290000Y-129350000D02*
X120390000Y-129350000D01*
G04 #@! TO.C,Q12*
X113290000Y-136970000D02*
X120390000Y-136970000D01*
X113290000Y-136970000D02*
X113290000Y-141710000D01*
X120390000Y-141710000D02*
X120390000Y-136970000D01*
X120390000Y-141710000D02*
X113290000Y-141710000D01*
G04 #@! TO.C,Q11*
X104400000Y-100860000D02*
X111500000Y-100860000D01*
X104400000Y-100860000D02*
X104400000Y-105600000D01*
X111500000Y-105600000D02*
X111500000Y-100860000D01*
X111500000Y-105600000D02*
X104400000Y-105600000D01*
G04 #@! TO.C,Q1*
X118370000Y-107760000D02*
X125470000Y-107760000D01*
X118370000Y-107760000D02*
X118370000Y-112500000D01*
X125470000Y-112500000D02*
X125470000Y-107760000D01*
X125470000Y-112500000D02*
X118370000Y-112500000D01*
G04 #@! TO.C,Q9*
X104400000Y-93240000D02*
X111500000Y-93240000D01*
X104400000Y-93240000D02*
X104400000Y-97980000D01*
X111500000Y-97980000D02*
X111500000Y-93240000D01*
X111500000Y-97980000D02*
X104400000Y-97980000D01*
G04 #@! TO.C,Q8*
X111500000Y-90360000D02*
X104400000Y-90360000D01*
X111500000Y-90360000D02*
X111500000Y-85620000D01*
X104400000Y-85620000D02*
X104400000Y-90360000D01*
X104400000Y-85620000D02*
X111500000Y-85620000D01*
G04 #@! TO.C,Q7*
X120390000Y-89640000D02*
X113290000Y-89640000D01*
X120390000Y-89640000D02*
X120390000Y-84900000D01*
X113290000Y-84900000D02*
X113290000Y-89640000D01*
X113290000Y-84900000D02*
X120390000Y-84900000D01*
G04 #@! TO.C,Q6*
X113290000Y-92520000D02*
X120390000Y-92520000D01*
X113290000Y-92520000D02*
X113290000Y-97260000D01*
X120390000Y-97260000D02*
X120390000Y-92520000D01*
X120390000Y-97260000D02*
X113290000Y-97260000D01*
G04 #@! TO.C,Q18*
X145790000Y-104880000D02*
X138690000Y-104880000D01*
X145790000Y-104880000D02*
X145790000Y-100140000D01*
X138690000Y-100140000D02*
X138690000Y-104880000D01*
X138690000Y-100140000D02*
X145790000Y-100140000D01*
G04 #@! TO.C,Q5*
X111500000Y-150050000D02*
X104400000Y-150050000D01*
X111500000Y-150050000D02*
X111500000Y-145310000D01*
X104400000Y-145310000D02*
X104400000Y-150050000D01*
X104400000Y-145310000D02*
X111500000Y-145310000D01*
G04 #@! TO.C,R2*
X109040000Y-120610000D02*
X118070000Y-120610000D01*
X109040000Y-115610000D02*
X109040000Y-120610000D01*
X118070000Y-115610000D02*
X109040000Y-115610000D01*
X118070000Y-120610000D02*
X118070000Y-115610000D01*
G04 #@! TO.C,R3*
X118070000Y-126960000D02*
X118070000Y-121960000D01*
X118070000Y-121960000D02*
X109040000Y-121960000D01*
X109040000Y-121960000D02*
X109040000Y-126960000D01*
X109040000Y-126960000D02*
X118070000Y-126960000D01*
G04 #@! TO.C,R6*
X138610000Y-115610000D02*
X129580000Y-115610000D01*
X138610000Y-120610000D02*
X138610000Y-115610000D01*
X129580000Y-120610000D02*
X138610000Y-120610000D01*
X129580000Y-115610000D02*
X129580000Y-120610000D01*
G04 #@! TO.C,R7*
X129580000Y-121960000D02*
X129580000Y-126960000D01*
X129580000Y-126960000D02*
X138610000Y-126960000D01*
X138610000Y-126960000D02*
X138610000Y-121960000D01*
X138610000Y-121960000D02*
X129580000Y-121960000D01*
G04 #@! TD*
M02*
