M48
;DRILL file {KiCad 5.0.1-33cea8e~68~ubuntu18.04.1} date Mon 12 Nov 2018 23:59:43 GMT
;FORMAT={-:-/ absolute / inch / decimal}
FMAT,2
INCH,TZ
T1C0.0315
T2C0.0394
T3C0.0472
T4C0.0591
%
G90
G05
M72
T1
X4.5Y-4.05
X4.6Y-4.05
X4.7Y-4.05
X4.5Y-3.75
X4.6Y-3.75
X4.7Y-3.75
X4.5Y-5.5
X4.6Y-5.5
X4.7Y-5.5
X4.7Y-4.35
X4.8Y-4.35
X4.9Y-4.35
X5.1Y-5.8
X5.2Y-5.8
X5.3Y-5.8
X5.15Y-3.45
X5.25Y-3.45
X5.35Y-3.45
X5.Y-4.35
X5.1Y-4.35
X5.2Y-4.35
X4.5Y-3.45
X4.6Y-3.45
X4.7Y-3.45
X5.15Y-3.75
X5.25Y-3.75
X5.35Y-3.75
X5.45Y-5.2
X5.55Y-5.2
X5.65Y-5.2
X4.85Y-3.4
X4.85Y-3.6
X5.45Y-5.5
X5.55Y-5.5
X5.65Y-5.5
X4.15Y-5.5
X4.25Y-5.5
X4.35Y-5.5
X4.5Y-5.2
X4.6Y-5.2
X4.7Y-5.2
X5.3Y-4.35
X5.4Y-4.35
X5.5Y-4.35
X4.15Y-5.8
X4.25Y-5.8
X4.35Y-5.8
X5.5Y-4.05
X5.6Y-4.05
X5.7Y-4.05
X4.5Y-5.8
X4.6Y-5.8
X4.7Y-5.8
X5.Y-3.95
X5.Y-4.15
X4.85Y-3.95
X4.85Y-4.15
X4.15Y-5.2
X4.25Y-5.2
X4.35Y-5.2
X5.1Y-5.5
X5.2Y-5.5
X5.3Y-5.5
X5.5Y-3.45
X5.6Y-3.45
X5.7Y-3.45
X5.Y-3.4
X5.Y-3.6
X5.15Y-4.05
X5.25Y-4.05
X5.35Y-4.05
X4.15Y-3.45
X4.25Y-3.45
X4.35Y-3.45
X4.4Y-4.35
X4.5Y-4.35
X4.6Y-4.35
X4.15Y-3.75
X4.25Y-3.75
X4.35Y-3.75
X5.5Y-3.75
X5.6Y-3.75
X5.7Y-3.75
X5.45Y-5.8
X5.55Y-5.8
X5.65Y-5.8
X5.1Y-5.2
X5.2Y-5.2
X5.3Y-5.2
X4.15Y-4.05
X4.25Y-4.05
X4.35Y-4.05
T2
X4.65Y-3.15
X4.75Y-3.15
X4.85Y-3.15
X4.95Y-3.15
X5.05Y-3.15
X5.15Y-3.15
X5.7Y-4.55
X5.7Y-4.65
X4.15Y-4.55
X4.15Y-4.65
T3
X5.2Y-4.65
X5.4Y-4.65
X4.35Y-4.9
X4.55Y-4.9
X4.35Y-4.65
X4.55Y-4.65
X5.2Y-4.9
X5.4Y-4.9
T4
X4.85Y-4.65
X5.55Y-4.5
T0
M30
