G04 #@! TF.GenerationSoftware,KiCad,Pcbnew,5.0.1-33cea8e~68~ubuntu18.04.1*
G04 #@! TF.CreationDate,2018-11-12T23:59:36+00:00*
G04 #@! TF.ProjectId,h-bridge,682D6272696467652E6B696361645F70,rev?*
G04 #@! TF.SameCoordinates,Original*
G04 #@! TF.FileFunction,Soldermask,Bot*
G04 #@! TF.FilePolarity,Negative*
%FSLAX46Y46*%
G04 Gerber Fmt 4.6, Leading zero omitted, Abs format (unit mm)*
G04 Created by KiCad (PCBNEW 5.0.1-33cea8e~68~ubuntu18.04.1) date Mon 12 Nov 2018 23:59:36 GMT*
%MOMM*%
%LPD*%
G01*
G04 APERTURE LIST*
%ADD10C,0.100000*%
G04 APERTURE END LIST*
D10*
G36*
X143743643Y-146549781D02*
X143889415Y-146610162D01*
X144020611Y-146697824D01*
X144132176Y-146809389D01*
X144219838Y-146940585D01*
X144280219Y-147086357D01*
X144311000Y-147241107D01*
X144311000Y-147398893D01*
X144280219Y-147553643D01*
X144219838Y-147699415D01*
X144132176Y-147830611D01*
X144020611Y-147942176D01*
X143889415Y-148029838D01*
X143743643Y-148090219D01*
X143588893Y-148121000D01*
X143431107Y-148121000D01*
X143276357Y-148090219D01*
X143130585Y-148029838D01*
X142999389Y-147942176D01*
X142887824Y-147830611D01*
X142800162Y-147699415D01*
X142739781Y-147553643D01*
X142709000Y-147398893D01*
X142709000Y-147241107D01*
X142739781Y-147086357D01*
X142800162Y-146940585D01*
X142887824Y-146809389D01*
X142999389Y-146697824D01*
X143130585Y-146610162D01*
X143276357Y-146549781D01*
X143431107Y-146519000D01*
X143588893Y-146519000D01*
X143743643Y-146549781D01*
X143743643Y-146549781D01*
G37*
G36*
X141203643Y-146549781D02*
X141349415Y-146610162D01*
X141480611Y-146697824D01*
X141592176Y-146809389D01*
X141679838Y-146940585D01*
X141740219Y-147086357D01*
X141771000Y-147241107D01*
X141771000Y-147398893D01*
X141740219Y-147553643D01*
X141679838Y-147699415D01*
X141592176Y-147830611D01*
X141480611Y-147942176D01*
X141349415Y-148029838D01*
X141203643Y-148090219D01*
X141048893Y-148121000D01*
X140891107Y-148121000D01*
X140736357Y-148090219D01*
X140590585Y-148029838D01*
X140459389Y-147942176D01*
X140347824Y-147830611D01*
X140260162Y-147699415D01*
X140199781Y-147553643D01*
X140169000Y-147398893D01*
X140169000Y-147241107D01*
X140199781Y-147086357D01*
X140260162Y-146940585D01*
X140347824Y-146809389D01*
X140459389Y-146697824D01*
X140590585Y-146610162D01*
X140736357Y-146549781D01*
X140891107Y-146519000D01*
X141048893Y-146519000D01*
X141203643Y-146549781D01*
X141203643Y-146549781D01*
G37*
G36*
X111291000Y-148121000D02*
X109689000Y-148121000D01*
X109689000Y-146519000D01*
X111291000Y-146519000D01*
X111291000Y-148121000D01*
X111291000Y-148121000D01*
G37*
G36*
X105643643Y-146549781D02*
X105789415Y-146610162D01*
X105920611Y-146697824D01*
X106032176Y-146809389D01*
X106119838Y-146940585D01*
X106180219Y-147086357D01*
X106211000Y-147241107D01*
X106211000Y-147398893D01*
X106180219Y-147553643D01*
X106119838Y-147699415D01*
X106032176Y-147830611D01*
X105920611Y-147942176D01*
X105789415Y-148029838D01*
X105643643Y-148090219D01*
X105488893Y-148121000D01*
X105331107Y-148121000D01*
X105176357Y-148090219D01*
X105030585Y-148029838D01*
X104899389Y-147942176D01*
X104787824Y-147830611D01*
X104700162Y-147699415D01*
X104639781Y-147553643D01*
X104609000Y-147398893D01*
X104609000Y-147241107D01*
X104639781Y-147086357D01*
X104700162Y-146940585D01*
X104787824Y-146809389D01*
X104899389Y-146697824D01*
X105030585Y-146610162D01*
X105176357Y-146549781D01*
X105331107Y-146519000D01*
X105488893Y-146519000D01*
X105643643Y-146549781D01*
X105643643Y-146549781D01*
G37*
G36*
X108183643Y-146549781D02*
X108329415Y-146610162D01*
X108460611Y-146697824D01*
X108572176Y-146809389D01*
X108659838Y-146940585D01*
X108720219Y-147086357D01*
X108751000Y-147241107D01*
X108751000Y-147398893D01*
X108720219Y-147553643D01*
X108659838Y-147699415D01*
X108572176Y-147830611D01*
X108460611Y-147942176D01*
X108329415Y-148029838D01*
X108183643Y-148090219D01*
X108028893Y-148121000D01*
X107871107Y-148121000D01*
X107716357Y-148090219D01*
X107570585Y-148029838D01*
X107439389Y-147942176D01*
X107327824Y-147830611D01*
X107240162Y-147699415D01*
X107179781Y-147553643D01*
X107149000Y-147398893D01*
X107149000Y-147241107D01*
X107179781Y-147086357D01*
X107240162Y-146940585D01*
X107327824Y-146809389D01*
X107439389Y-146697824D01*
X107570585Y-146610162D01*
X107716357Y-146549781D01*
X107871107Y-146519000D01*
X108028893Y-146519000D01*
X108183643Y-146549781D01*
X108183643Y-146549781D01*
G37*
G36*
X117073643Y-146549781D02*
X117219415Y-146610162D01*
X117350611Y-146697824D01*
X117462176Y-146809389D01*
X117549838Y-146940585D01*
X117610219Y-147086357D01*
X117641000Y-147241107D01*
X117641000Y-147398893D01*
X117610219Y-147553643D01*
X117549838Y-147699415D01*
X117462176Y-147830611D01*
X117350611Y-147942176D01*
X117219415Y-148029838D01*
X117073643Y-148090219D01*
X116918893Y-148121000D01*
X116761107Y-148121000D01*
X116606357Y-148090219D01*
X116460585Y-148029838D01*
X116329389Y-147942176D01*
X116217824Y-147830611D01*
X116130162Y-147699415D01*
X116069781Y-147553643D01*
X116039000Y-147398893D01*
X116039000Y-147241107D01*
X116069781Y-147086357D01*
X116130162Y-146940585D01*
X116217824Y-146809389D01*
X116329389Y-146697824D01*
X116460585Y-146610162D01*
X116606357Y-146549781D01*
X116761107Y-146519000D01*
X116918893Y-146519000D01*
X117073643Y-146549781D01*
X117073643Y-146549781D01*
G37*
G36*
X119613643Y-146549781D02*
X119759415Y-146610162D01*
X119890611Y-146697824D01*
X120002176Y-146809389D01*
X120089838Y-146940585D01*
X120150219Y-147086357D01*
X120181000Y-147241107D01*
X120181000Y-147398893D01*
X120150219Y-147553643D01*
X120089838Y-147699415D01*
X120002176Y-147830611D01*
X119890611Y-147942176D01*
X119759415Y-148029838D01*
X119613643Y-148090219D01*
X119458893Y-148121000D01*
X119301107Y-148121000D01*
X119146357Y-148090219D01*
X119000585Y-148029838D01*
X118869389Y-147942176D01*
X118757824Y-147830611D01*
X118670162Y-147699415D01*
X118609781Y-147553643D01*
X118579000Y-147398893D01*
X118579000Y-147241107D01*
X118609781Y-147086357D01*
X118670162Y-146940585D01*
X118757824Y-146809389D01*
X118869389Y-146697824D01*
X119000585Y-146610162D01*
X119146357Y-146549781D01*
X119301107Y-146519000D01*
X119458893Y-146519000D01*
X119613643Y-146549781D01*
X119613643Y-146549781D01*
G37*
G36*
X115101000Y-148121000D02*
X113499000Y-148121000D01*
X113499000Y-146519000D01*
X115101000Y-146519000D01*
X115101000Y-148121000D01*
X115101000Y-148121000D01*
G37*
G36*
X135421000Y-148121000D02*
X133819000Y-148121000D01*
X133819000Y-146519000D01*
X135421000Y-146519000D01*
X135421000Y-148121000D01*
X135421000Y-148121000D01*
G37*
G36*
X129773643Y-146549781D02*
X129919415Y-146610162D01*
X130050611Y-146697824D01*
X130162176Y-146809389D01*
X130249838Y-146940585D01*
X130310219Y-147086357D01*
X130341000Y-147241107D01*
X130341000Y-147398893D01*
X130310219Y-147553643D01*
X130249838Y-147699415D01*
X130162176Y-147830611D01*
X130050611Y-147942176D01*
X129919415Y-148029838D01*
X129773643Y-148090219D01*
X129618893Y-148121000D01*
X129461107Y-148121000D01*
X129306357Y-148090219D01*
X129160585Y-148029838D01*
X129029389Y-147942176D01*
X128917824Y-147830611D01*
X128830162Y-147699415D01*
X128769781Y-147553643D01*
X128739000Y-147398893D01*
X128739000Y-147241107D01*
X128769781Y-147086357D01*
X128830162Y-146940585D01*
X128917824Y-146809389D01*
X129029389Y-146697824D01*
X129160585Y-146610162D01*
X129306357Y-146549781D01*
X129461107Y-146519000D01*
X129618893Y-146519000D01*
X129773643Y-146549781D01*
X129773643Y-146549781D01*
G37*
G36*
X132313643Y-146549781D02*
X132459415Y-146610162D01*
X132590611Y-146697824D01*
X132702176Y-146809389D01*
X132789838Y-146940585D01*
X132850219Y-147086357D01*
X132881000Y-147241107D01*
X132881000Y-147398893D01*
X132850219Y-147553643D01*
X132789838Y-147699415D01*
X132702176Y-147830611D01*
X132590611Y-147942176D01*
X132459415Y-148029838D01*
X132313643Y-148090219D01*
X132158893Y-148121000D01*
X132001107Y-148121000D01*
X131846357Y-148090219D01*
X131700585Y-148029838D01*
X131569389Y-147942176D01*
X131457824Y-147830611D01*
X131370162Y-147699415D01*
X131309781Y-147553643D01*
X131279000Y-147398893D01*
X131279000Y-147241107D01*
X131309781Y-147086357D01*
X131370162Y-146940585D01*
X131457824Y-146809389D01*
X131569389Y-146697824D01*
X131700585Y-146610162D01*
X131846357Y-146549781D01*
X132001107Y-146519000D01*
X132158893Y-146519000D01*
X132313643Y-146549781D01*
X132313643Y-146549781D01*
G37*
G36*
X139231000Y-148121000D02*
X137629000Y-148121000D01*
X137629000Y-146519000D01*
X139231000Y-146519000D01*
X139231000Y-148121000D01*
X139231000Y-148121000D01*
G37*
G36*
X119613643Y-138929781D02*
X119759415Y-138990162D01*
X119890611Y-139077824D01*
X120002176Y-139189389D01*
X120089838Y-139320585D01*
X120150219Y-139466357D01*
X120181000Y-139621107D01*
X120181000Y-139778893D01*
X120150219Y-139933643D01*
X120089838Y-140079415D01*
X120002176Y-140210611D01*
X119890611Y-140322176D01*
X119759415Y-140409838D01*
X119613643Y-140470219D01*
X119458893Y-140501000D01*
X119301107Y-140501000D01*
X119146357Y-140470219D01*
X119000585Y-140409838D01*
X118869389Y-140322176D01*
X118757824Y-140210611D01*
X118670162Y-140079415D01*
X118609781Y-139933643D01*
X118579000Y-139778893D01*
X118579000Y-139621107D01*
X118609781Y-139466357D01*
X118670162Y-139320585D01*
X118757824Y-139189389D01*
X118869389Y-139077824D01*
X119000585Y-138990162D01*
X119146357Y-138929781D01*
X119301107Y-138899000D01*
X119458893Y-138899000D01*
X119613643Y-138929781D01*
X119613643Y-138929781D01*
G37*
G36*
X132313643Y-138929781D02*
X132459415Y-138990162D01*
X132590611Y-139077824D01*
X132702176Y-139189389D01*
X132789838Y-139320585D01*
X132850219Y-139466357D01*
X132881000Y-139621107D01*
X132881000Y-139778893D01*
X132850219Y-139933643D01*
X132789838Y-140079415D01*
X132702176Y-140210611D01*
X132590611Y-140322176D01*
X132459415Y-140409838D01*
X132313643Y-140470219D01*
X132158893Y-140501000D01*
X132001107Y-140501000D01*
X131846357Y-140470219D01*
X131700585Y-140409838D01*
X131569389Y-140322176D01*
X131457824Y-140210611D01*
X131370162Y-140079415D01*
X131309781Y-139933643D01*
X131279000Y-139778893D01*
X131279000Y-139621107D01*
X131309781Y-139466357D01*
X131370162Y-139320585D01*
X131457824Y-139189389D01*
X131569389Y-139077824D01*
X131700585Y-138990162D01*
X131846357Y-138929781D01*
X132001107Y-138899000D01*
X132158893Y-138899000D01*
X132313643Y-138929781D01*
X132313643Y-138929781D01*
G37*
G36*
X129773643Y-138929781D02*
X129919415Y-138990162D01*
X130050611Y-139077824D01*
X130162176Y-139189389D01*
X130249838Y-139320585D01*
X130310219Y-139466357D01*
X130341000Y-139621107D01*
X130341000Y-139778893D01*
X130310219Y-139933643D01*
X130249838Y-140079415D01*
X130162176Y-140210611D01*
X130050611Y-140322176D01*
X129919415Y-140409838D01*
X129773643Y-140470219D01*
X129618893Y-140501000D01*
X129461107Y-140501000D01*
X129306357Y-140470219D01*
X129160585Y-140409838D01*
X129029389Y-140322176D01*
X128917824Y-140210611D01*
X128830162Y-140079415D01*
X128769781Y-139933643D01*
X128739000Y-139778893D01*
X128739000Y-139621107D01*
X128769781Y-139466357D01*
X128830162Y-139320585D01*
X128917824Y-139189389D01*
X129029389Y-139077824D01*
X129160585Y-138990162D01*
X129306357Y-138929781D01*
X129461107Y-138899000D01*
X129618893Y-138899000D01*
X129773643Y-138929781D01*
X129773643Y-138929781D01*
G37*
G36*
X111291000Y-140501000D02*
X109689000Y-140501000D01*
X109689000Y-138899000D01*
X111291000Y-138899000D01*
X111291000Y-140501000D01*
X111291000Y-140501000D01*
G37*
G36*
X105643643Y-138929781D02*
X105789415Y-138990162D01*
X105920611Y-139077824D01*
X106032176Y-139189389D01*
X106119838Y-139320585D01*
X106180219Y-139466357D01*
X106211000Y-139621107D01*
X106211000Y-139778893D01*
X106180219Y-139933643D01*
X106119838Y-140079415D01*
X106032176Y-140210611D01*
X105920611Y-140322176D01*
X105789415Y-140409838D01*
X105643643Y-140470219D01*
X105488893Y-140501000D01*
X105331107Y-140501000D01*
X105176357Y-140470219D01*
X105030585Y-140409838D01*
X104899389Y-140322176D01*
X104787824Y-140210611D01*
X104700162Y-140079415D01*
X104639781Y-139933643D01*
X104609000Y-139778893D01*
X104609000Y-139621107D01*
X104639781Y-139466357D01*
X104700162Y-139320585D01*
X104787824Y-139189389D01*
X104899389Y-139077824D01*
X105030585Y-138990162D01*
X105176357Y-138929781D01*
X105331107Y-138899000D01*
X105488893Y-138899000D01*
X105643643Y-138929781D01*
X105643643Y-138929781D01*
G37*
G36*
X108183643Y-138929781D02*
X108329415Y-138990162D01*
X108460611Y-139077824D01*
X108572176Y-139189389D01*
X108659838Y-139320585D01*
X108720219Y-139466357D01*
X108751000Y-139621107D01*
X108751000Y-139778893D01*
X108720219Y-139933643D01*
X108659838Y-140079415D01*
X108572176Y-140210611D01*
X108460611Y-140322176D01*
X108329415Y-140409838D01*
X108183643Y-140470219D01*
X108028893Y-140501000D01*
X107871107Y-140501000D01*
X107716357Y-140470219D01*
X107570585Y-140409838D01*
X107439389Y-140322176D01*
X107327824Y-140210611D01*
X107240162Y-140079415D01*
X107179781Y-139933643D01*
X107149000Y-139778893D01*
X107149000Y-139621107D01*
X107179781Y-139466357D01*
X107240162Y-139320585D01*
X107327824Y-139189389D01*
X107439389Y-139077824D01*
X107570585Y-138990162D01*
X107716357Y-138929781D01*
X107871107Y-138899000D01*
X108028893Y-138899000D01*
X108183643Y-138929781D01*
X108183643Y-138929781D01*
G37*
G36*
X139231000Y-140501000D02*
X137629000Y-140501000D01*
X137629000Y-138899000D01*
X139231000Y-138899000D01*
X139231000Y-140501000D01*
X139231000Y-140501000D01*
G37*
G36*
X141203643Y-138929781D02*
X141349415Y-138990162D01*
X141480611Y-139077824D01*
X141592176Y-139189389D01*
X141679838Y-139320585D01*
X141740219Y-139466357D01*
X141771000Y-139621107D01*
X141771000Y-139778893D01*
X141740219Y-139933643D01*
X141679838Y-140079415D01*
X141592176Y-140210611D01*
X141480611Y-140322176D01*
X141349415Y-140409838D01*
X141203643Y-140470219D01*
X141048893Y-140501000D01*
X140891107Y-140501000D01*
X140736357Y-140470219D01*
X140590585Y-140409838D01*
X140459389Y-140322176D01*
X140347824Y-140210611D01*
X140260162Y-140079415D01*
X140199781Y-139933643D01*
X140169000Y-139778893D01*
X140169000Y-139621107D01*
X140199781Y-139466357D01*
X140260162Y-139320585D01*
X140347824Y-139189389D01*
X140459389Y-139077824D01*
X140590585Y-138990162D01*
X140736357Y-138929781D01*
X140891107Y-138899000D01*
X141048893Y-138899000D01*
X141203643Y-138929781D01*
X141203643Y-138929781D01*
G37*
G36*
X117073643Y-138929781D02*
X117219415Y-138990162D01*
X117350611Y-139077824D01*
X117462176Y-139189389D01*
X117549838Y-139320585D01*
X117610219Y-139466357D01*
X117641000Y-139621107D01*
X117641000Y-139778893D01*
X117610219Y-139933643D01*
X117549838Y-140079415D01*
X117462176Y-140210611D01*
X117350611Y-140322176D01*
X117219415Y-140409838D01*
X117073643Y-140470219D01*
X116918893Y-140501000D01*
X116761107Y-140501000D01*
X116606357Y-140470219D01*
X116460585Y-140409838D01*
X116329389Y-140322176D01*
X116217824Y-140210611D01*
X116130162Y-140079415D01*
X116069781Y-139933643D01*
X116039000Y-139778893D01*
X116039000Y-139621107D01*
X116069781Y-139466357D01*
X116130162Y-139320585D01*
X116217824Y-139189389D01*
X116329389Y-139077824D01*
X116460585Y-138990162D01*
X116606357Y-138929781D01*
X116761107Y-138899000D01*
X116918893Y-138899000D01*
X117073643Y-138929781D01*
X117073643Y-138929781D01*
G37*
G36*
X115101000Y-140501000D02*
X113499000Y-140501000D01*
X113499000Y-138899000D01*
X115101000Y-138899000D01*
X115101000Y-140501000D01*
X115101000Y-140501000D01*
G37*
G36*
X135421000Y-140501000D02*
X133819000Y-140501000D01*
X133819000Y-138899000D01*
X135421000Y-138899000D01*
X135421000Y-140501000D01*
X135421000Y-140501000D01*
G37*
G36*
X143743643Y-138929781D02*
X143889415Y-138990162D01*
X144020611Y-139077824D01*
X144132176Y-139189389D01*
X144219838Y-139320585D01*
X144280219Y-139466357D01*
X144311000Y-139621107D01*
X144311000Y-139778893D01*
X144280219Y-139933643D01*
X144219838Y-140079415D01*
X144132176Y-140210611D01*
X144020611Y-140322176D01*
X143889415Y-140409838D01*
X143743643Y-140470219D01*
X143588893Y-140501000D01*
X143431107Y-140501000D01*
X143276357Y-140470219D01*
X143130585Y-140409838D01*
X142999389Y-140322176D01*
X142887824Y-140210611D01*
X142800162Y-140079415D01*
X142739781Y-139933643D01*
X142709000Y-139778893D01*
X142709000Y-139621107D01*
X142739781Y-139466357D01*
X142800162Y-139320585D01*
X142887824Y-139189389D01*
X142999389Y-139077824D01*
X143130585Y-138990162D01*
X143276357Y-138929781D01*
X143431107Y-138899000D01*
X143588893Y-138899000D01*
X143743643Y-138929781D01*
X143743643Y-138929781D01*
G37*
G36*
X143743643Y-131309781D02*
X143889415Y-131370162D01*
X144020611Y-131457824D01*
X144132176Y-131569389D01*
X144219838Y-131700585D01*
X144280219Y-131846357D01*
X144311000Y-132001107D01*
X144311000Y-132158893D01*
X144280219Y-132313643D01*
X144219838Y-132459415D01*
X144132176Y-132590611D01*
X144020611Y-132702176D01*
X143889415Y-132789838D01*
X143743643Y-132850219D01*
X143588893Y-132881000D01*
X143431107Y-132881000D01*
X143276357Y-132850219D01*
X143130585Y-132789838D01*
X142999389Y-132702176D01*
X142887824Y-132590611D01*
X142800162Y-132459415D01*
X142739781Y-132313643D01*
X142709000Y-132158893D01*
X142709000Y-132001107D01*
X142739781Y-131846357D01*
X142800162Y-131700585D01*
X142887824Y-131569389D01*
X142999389Y-131457824D01*
X143130585Y-131370162D01*
X143276357Y-131309781D01*
X143431107Y-131279000D01*
X143588893Y-131279000D01*
X143743643Y-131309781D01*
X143743643Y-131309781D01*
G37*
G36*
X115101000Y-132881000D02*
X113499000Y-132881000D01*
X113499000Y-131279000D01*
X115101000Y-131279000D01*
X115101000Y-132881000D01*
X115101000Y-132881000D01*
G37*
G36*
X117073643Y-131309781D02*
X117219415Y-131370162D01*
X117350611Y-131457824D01*
X117462176Y-131569389D01*
X117549838Y-131700585D01*
X117610219Y-131846357D01*
X117641000Y-132001107D01*
X117641000Y-132158893D01*
X117610219Y-132313643D01*
X117549838Y-132459415D01*
X117462176Y-132590611D01*
X117350611Y-132702176D01*
X117219415Y-132789838D01*
X117073643Y-132850219D01*
X116918893Y-132881000D01*
X116761107Y-132881000D01*
X116606357Y-132850219D01*
X116460585Y-132789838D01*
X116329389Y-132702176D01*
X116217824Y-132590611D01*
X116130162Y-132459415D01*
X116069781Y-132313643D01*
X116039000Y-132158893D01*
X116039000Y-132001107D01*
X116069781Y-131846357D01*
X116130162Y-131700585D01*
X116217824Y-131569389D01*
X116329389Y-131457824D01*
X116460585Y-131370162D01*
X116606357Y-131309781D01*
X116761107Y-131279000D01*
X116918893Y-131279000D01*
X117073643Y-131309781D01*
X117073643Y-131309781D01*
G37*
G36*
X119613643Y-131309781D02*
X119759415Y-131370162D01*
X119890611Y-131457824D01*
X120002176Y-131569389D01*
X120089838Y-131700585D01*
X120150219Y-131846357D01*
X120181000Y-132001107D01*
X120181000Y-132158893D01*
X120150219Y-132313643D01*
X120089838Y-132459415D01*
X120002176Y-132590611D01*
X119890611Y-132702176D01*
X119759415Y-132789838D01*
X119613643Y-132850219D01*
X119458893Y-132881000D01*
X119301107Y-132881000D01*
X119146357Y-132850219D01*
X119000585Y-132789838D01*
X118869389Y-132702176D01*
X118757824Y-132590611D01*
X118670162Y-132459415D01*
X118609781Y-132313643D01*
X118579000Y-132158893D01*
X118579000Y-132001107D01*
X118609781Y-131846357D01*
X118670162Y-131700585D01*
X118757824Y-131569389D01*
X118869389Y-131457824D01*
X119000585Y-131370162D01*
X119146357Y-131309781D01*
X119301107Y-131279000D01*
X119458893Y-131279000D01*
X119613643Y-131309781D01*
X119613643Y-131309781D01*
G37*
G36*
X139231000Y-132881000D02*
X137629000Y-132881000D01*
X137629000Y-131279000D01*
X139231000Y-131279000D01*
X139231000Y-132881000D01*
X139231000Y-132881000D01*
G37*
G36*
X111291000Y-132881000D02*
X109689000Y-132881000D01*
X109689000Y-131279000D01*
X111291000Y-131279000D01*
X111291000Y-132881000D01*
X111291000Y-132881000D01*
G37*
G36*
X108183643Y-131309781D02*
X108329415Y-131370162D01*
X108460611Y-131457824D01*
X108572176Y-131569389D01*
X108659838Y-131700585D01*
X108720219Y-131846357D01*
X108751000Y-132001107D01*
X108751000Y-132158893D01*
X108720219Y-132313643D01*
X108659838Y-132459415D01*
X108572176Y-132590611D01*
X108460611Y-132702176D01*
X108329415Y-132789838D01*
X108183643Y-132850219D01*
X108028893Y-132881000D01*
X107871107Y-132881000D01*
X107716357Y-132850219D01*
X107570585Y-132789838D01*
X107439389Y-132702176D01*
X107327824Y-132590611D01*
X107240162Y-132459415D01*
X107179781Y-132313643D01*
X107149000Y-132158893D01*
X107149000Y-132001107D01*
X107179781Y-131846357D01*
X107240162Y-131700585D01*
X107327824Y-131569389D01*
X107439389Y-131457824D01*
X107570585Y-131370162D01*
X107716357Y-131309781D01*
X107871107Y-131279000D01*
X108028893Y-131279000D01*
X108183643Y-131309781D01*
X108183643Y-131309781D01*
G37*
G36*
X141203643Y-131309781D02*
X141349415Y-131370162D01*
X141480611Y-131457824D01*
X141592176Y-131569389D01*
X141679838Y-131700585D01*
X141740219Y-131846357D01*
X141771000Y-132001107D01*
X141771000Y-132158893D01*
X141740219Y-132313643D01*
X141679838Y-132459415D01*
X141592176Y-132590611D01*
X141480611Y-132702176D01*
X141349415Y-132789838D01*
X141203643Y-132850219D01*
X141048893Y-132881000D01*
X140891107Y-132881000D01*
X140736357Y-132850219D01*
X140590585Y-132789838D01*
X140459389Y-132702176D01*
X140347824Y-132590611D01*
X140260162Y-132459415D01*
X140199781Y-132313643D01*
X140169000Y-132158893D01*
X140169000Y-132001107D01*
X140199781Y-131846357D01*
X140260162Y-131700585D01*
X140347824Y-131569389D01*
X140459389Y-131457824D01*
X140590585Y-131370162D01*
X140736357Y-131309781D01*
X140891107Y-131279000D01*
X141048893Y-131279000D01*
X141203643Y-131309781D01*
X141203643Y-131309781D01*
G37*
G36*
X135421000Y-132881000D02*
X133819000Y-132881000D01*
X133819000Y-131279000D01*
X135421000Y-131279000D01*
X135421000Y-132881000D01*
X135421000Y-132881000D01*
G37*
G36*
X132313643Y-131309781D02*
X132459415Y-131370162D01*
X132590611Y-131457824D01*
X132702176Y-131569389D01*
X132789838Y-131700585D01*
X132850219Y-131846357D01*
X132881000Y-132001107D01*
X132881000Y-132158893D01*
X132850219Y-132313643D01*
X132789838Y-132459415D01*
X132702176Y-132590611D01*
X132590611Y-132702176D01*
X132459415Y-132789838D01*
X132313643Y-132850219D01*
X132158893Y-132881000D01*
X132001107Y-132881000D01*
X131846357Y-132850219D01*
X131700585Y-132789838D01*
X131569389Y-132702176D01*
X131457824Y-132590611D01*
X131370162Y-132459415D01*
X131309781Y-132313643D01*
X131279000Y-132158893D01*
X131279000Y-132001107D01*
X131309781Y-131846357D01*
X131370162Y-131700585D01*
X131457824Y-131569389D01*
X131569389Y-131457824D01*
X131700585Y-131370162D01*
X131846357Y-131309781D01*
X132001107Y-131279000D01*
X132158893Y-131279000D01*
X132313643Y-131309781D01*
X132313643Y-131309781D01*
G37*
G36*
X129773643Y-131309781D02*
X129919415Y-131370162D01*
X130050611Y-131457824D01*
X130162176Y-131569389D01*
X130249838Y-131700585D01*
X130310219Y-131846357D01*
X130341000Y-132001107D01*
X130341000Y-132158893D01*
X130310219Y-132313643D01*
X130249838Y-132459415D01*
X130162176Y-132590611D01*
X130050611Y-132702176D01*
X129919415Y-132789838D01*
X129773643Y-132850219D01*
X129618893Y-132881000D01*
X129461107Y-132881000D01*
X129306357Y-132850219D01*
X129160585Y-132789838D01*
X129029389Y-132702176D01*
X128917824Y-132590611D01*
X128830162Y-132459415D01*
X128769781Y-132313643D01*
X128739000Y-132158893D01*
X128739000Y-132001107D01*
X128769781Y-131846357D01*
X128830162Y-131700585D01*
X128917824Y-131569389D01*
X129029389Y-131457824D01*
X129160585Y-131370162D01*
X129306357Y-131309781D01*
X129461107Y-131279000D01*
X129618893Y-131279000D01*
X129773643Y-131309781D01*
X129773643Y-131309781D01*
G37*
G36*
X105643643Y-131309781D02*
X105789415Y-131370162D01*
X105920611Y-131457824D01*
X106032176Y-131569389D01*
X106119838Y-131700585D01*
X106180219Y-131846357D01*
X106211000Y-132001107D01*
X106211000Y-132158893D01*
X106180219Y-132313643D01*
X106119838Y-132459415D01*
X106032176Y-132590611D01*
X105920611Y-132702176D01*
X105789415Y-132789838D01*
X105643643Y-132850219D01*
X105488893Y-132881000D01*
X105331107Y-132881000D01*
X105176357Y-132850219D01*
X105030585Y-132789838D01*
X104899389Y-132702176D01*
X104787824Y-132590611D01*
X104700162Y-132459415D01*
X104639781Y-132313643D01*
X104609000Y-132158893D01*
X104609000Y-132001107D01*
X104639781Y-131846357D01*
X104700162Y-131700585D01*
X104787824Y-131569389D01*
X104899389Y-131457824D01*
X105030585Y-131370162D01*
X105176357Y-131309781D01*
X105331107Y-131279000D01*
X105488893Y-131279000D01*
X105643643Y-131309781D01*
X105643643Y-131309781D01*
G37*
G36*
X110735239Y-123227101D02*
X110971053Y-123298634D01*
X111188381Y-123414799D01*
X111378871Y-123571129D01*
X111535201Y-123761619D01*
X111651366Y-123978947D01*
X111722899Y-124214761D01*
X111747053Y-124460000D01*
X111722899Y-124705239D01*
X111651366Y-124941053D01*
X111535201Y-125158381D01*
X111378871Y-125348871D01*
X111188381Y-125505201D01*
X110971053Y-125621366D01*
X110735239Y-125692899D01*
X110551457Y-125711000D01*
X110428543Y-125711000D01*
X110244761Y-125692899D01*
X110008947Y-125621366D01*
X109791619Y-125505201D01*
X109601129Y-125348871D01*
X109444799Y-125158381D01*
X109328634Y-124941053D01*
X109257101Y-124705239D01*
X109232947Y-124460000D01*
X109257101Y-124214761D01*
X109328634Y-123978947D01*
X109444799Y-123761619D01*
X109601129Y-123571129D01*
X109791619Y-123414799D01*
X110008947Y-123298634D01*
X110244761Y-123227101D01*
X110428543Y-123209000D01*
X110551457Y-123209000D01*
X110735239Y-123227101D01*
X110735239Y-123227101D01*
G37*
G36*
X137405239Y-123227101D02*
X137641053Y-123298634D01*
X137858381Y-123414799D01*
X138048871Y-123571129D01*
X138205201Y-123761619D01*
X138321366Y-123978947D01*
X138392899Y-124214761D01*
X138417053Y-124460000D01*
X138392899Y-124705239D01*
X138321366Y-124941053D01*
X138205201Y-125158381D01*
X138048871Y-125348871D01*
X137858381Y-125505201D01*
X137641053Y-125621366D01*
X137405239Y-125692899D01*
X137221457Y-125711000D01*
X137098543Y-125711000D01*
X136914761Y-125692899D01*
X136678947Y-125621366D01*
X136461619Y-125505201D01*
X136271129Y-125348871D01*
X136114799Y-125158381D01*
X135998634Y-124941053D01*
X135927101Y-124705239D01*
X135902947Y-124460000D01*
X135927101Y-124214761D01*
X135998634Y-123978947D01*
X136114799Y-123761619D01*
X136271129Y-123571129D01*
X136461619Y-123414799D01*
X136678947Y-123298634D01*
X136914761Y-123227101D01*
X137098543Y-123209000D01*
X137221457Y-123209000D01*
X137405239Y-123227101D01*
X137405239Y-123227101D01*
G37*
G36*
X132263635Y-123221019D02*
X132444903Y-123257075D01*
X132672571Y-123351378D01*
X132767488Y-123414800D01*
X132877469Y-123488287D01*
X133051713Y-123662531D01*
X133051715Y-123662534D01*
X133188622Y-123867429D01*
X133282925Y-124095097D01*
X133331000Y-124336787D01*
X133331000Y-124583213D01*
X133282925Y-124824903D01*
X133188622Y-125052571D01*
X133117921Y-125158382D01*
X133051713Y-125257469D01*
X132877469Y-125431713D01*
X132877466Y-125431715D01*
X132672571Y-125568622D01*
X132444903Y-125662925D01*
X132294213Y-125692899D01*
X132203214Y-125711000D01*
X131956786Y-125711000D01*
X131865787Y-125692899D01*
X131715097Y-125662925D01*
X131487429Y-125568622D01*
X131282534Y-125431715D01*
X131282531Y-125431713D01*
X131108287Y-125257469D01*
X131042079Y-125158382D01*
X130971378Y-125052571D01*
X130877075Y-124824903D01*
X130829000Y-124583213D01*
X130829000Y-124336787D01*
X130877075Y-124095097D01*
X130971378Y-123867429D01*
X131108285Y-123662534D01*
X131108287Y-123662531D01*
X131282531Y-123488287D01*
X131392512Y-123414800D01*
X131487429Y-123351378D01*
X131715097Y-123257075D01*
X131896365Y-123221019D01*
X131956786Y-123209000D01*
X132203214Y-123209000D01*
X132263635Y-123221019D01*
X132263635Y-123221019D01*
G37*
G36*
X115753635Y-123221019D02*
X115934903Y-123257075D01*
X116162571Y-123351378D01*
X116257488Y-123414800D01*
X116367469Y-123488287D01*
X116541713Y-123662531D01*
X116541715Y-123662534D01*
X116678622Y-123867429D01*
X116772925Y-124095097D01*
X116821000Y-124336787D01*
X116821000Y-124583213D01*
X116772925Y-124824903D01*
X116678622Y-125052571D01*
X116607921Y-125158382D01*
X116541713Y-125257469D01*
X116367469Y-125431713D01*
X116367466Y-125431715D01*
X116162571Y-125568622D01*
X115934903Y-125662925D01*
X115784213Y-125692899D01*
X115693214Y-125711000D01*
X115446786Y-125711000D01*
X115355787Y-125692899D01*
X115205097Y-125662925D01*
X114977429Y-125568622D01*
X114772534Y-125431715D01*
X114772531Y-125431713D01*
X114598287Y-125257469D01*
X114532079Y-125158382D01*
X114461378Y-125052571D01*
X114367075Y-124824903D01*
X114319000Y-124583213D01*
X114319000Y-124336787D01*
X114367075Y-124095097D01*
X114461378Y-123867429D01*
X114598285Y-123662534D01*
X114598287Y-123662531D01*
X114772531Y-123488287D01*
X114882512Y-123414800D01*
X114977429Y-123351378D01*
X115205097Y-123257075D01*
X115386365Y-123221019D01*
X115446786Y-123209000D01*
X115693214Y-123209000D01*
X115753635Y-123221019D01*
X115753635Y-123221019D01*
G37*
G36*
X132263636Y-116871019D02*
X132444903Y-116907075D01*
X132672571Y-117001378D01*
X132767488Y-117064800D01*
X132877469Y-117138287D01*
X133051713Y-117312531D01*
X133051715Y-117312534D01*
X133188622Y-117517429D01*
X133282925Y-117745097D01*
X133331000Y-117986787D01*
X133331000Y-118233213D01*
X133282925Y-118474903D01*
X133188622Y-118702571D01*
X133117921Y-118808382D01*
X133051713Y-118907469D01*
X132877469Y-119081713D01*
X132877466Y-119081715D01*
X132672571Y-119218622D01*
X132444903Y-119312925D01*
X132294213Y-119342899D01*
X132203214Y-119361000D01*
X131956786Y-119361000D01*
X131865787Y-119342899D01*
X131715097Y-119312925D01*
X131487429Y-119218622D01*
X131282534Y-119081715D01*
X131282531Y-119081713D01*
X131108287Y-118907469D01*
X131042079Y-118808382D01*
X130971378Y-118702571D01*
X130877075Y-118474903D01*
X130829000Y-118233213D01*
X130829000Y-117986787D01*
X130877075Y-117745097D01*
X130971378Y-117517429D01*
X131108285Y-117312534D01*
X131108287Y-117312531D01*
X131282531Y-117138287D01*
X131392512Y-117064800D01*
X131487429Y-117001378D01*
X131715097Y-116907075D01*
X131896364Y-116871019D01*
X131956786Y-116859000D01*
X132203214Y-116859000D01*
X132263636Y-116871019D01*
X132263636Y-116871019D01*
G37*
G36*
X137405239Y-116877101D02*
X137641053Y-116948634D01*
X137858381Y-117064799D01*
X138048871Y-117221129D01*
X138205201Y-117411619D01*
X138321366Y-117628947D01*
X138392899Y-117864761D01*
X138417053Y-118110000D01*
X138392899Y-118355239D01*
X138321366Y-118591053D01*
X138205201Y-118808381D01*
X138048871Y-118998871D01*
X137858381Y-119155201D01*
X137641053Y-119271366D01*
X137405239Y-119342899D01*
X137221457Y-119361000D01*
X137098543Y-119361000D01*
X136914761Y-119342899D01*
X136678947Y-119271366D01*
X136461619Y-119155201D01*
X136271129Y-118998871D01*
X136114799Y-118808381D01*
X135998634Y-118591053D01*
X135927101Y-118355239D01*
X135902947Y-118110000D01*
X135927101Y-117864761D01*
X135998634Y-117628947D01*
X136114799Y-117411619D01*
X136271129Y-117221129D01*
X136461619Y-117064799D01*
X136678947Y-116948634D01*
X136914761Y-116877101D01*
X137098543Y-116859000D01*
X137221457Y-116859000D01*
X137405239Y-116877101D01*
X137405239Y-116877101D01*
G37*
G36*
X115753636Y-116871019D02*
X115934903Y-116907075D01*
X116162571Y-117001378D01*
X116257488Y-117064800D01*
X116367469Y-117138287D01*
X116541713Y-117312531D01*
X116541715Y-117312534D01*
X116678622Y-117517429D01*
X116772925Y-117745097D01*
X116821000Y-117986787D01*
X116821000Y-118233213D01*
X116772925Y-118474903D01*
X116678622Y-118702571D01*
X116607921Y-118808382D01*
X116541713Y-118907469D01*
X116367469Y-119081713D01*
X116367466Y-119081715D01*
X116162571Y-119218622D01*
X115934903Y-119312925D01*
X115784213Y-119342899D01*
X115693214Y-119361000D01*
X115446786Y-119361000D01*
X115355787Y-119342899D01*
X115205097Y-119312925D01*
X114977429Y-119218622D01*
X114772534Y-119081715D01*
X114772531Y-119081713D01*
X114598287Y-118907469D01*
X114532079Y-118808382D01*
X114461378Y-118702571D01*
X114367075Y-118474903D01*
X114319000Y-118233213D01*
X114319000Y-117986787D01*
X114367075Y-117745097D01*
X114461378Y-117517429D01*
X114598285Y-117312534D01*
X114598287Y-117312531D01*
X114772531Y-117138287D01*
X114882512Y-117064800D01*
X114977429Y-117001378D01*
X115205097Y-116907075D01*
X115386364Y-116871019D01*
X115446786Y-116859000D01*
X115693214Y-116859000D01*
X115753636Y-116871019D01*
X115753636Y-116871019D01*
G37*
G36*
X110735239Y-116877101D02*
X110971053Y-116948634D01*
X111188381Y-117064799D01*
X111378871Y-117221129D01*
X111535201Y-117411619D01*
X111651366Y-117628947D01*
X111722899Y-117864761D01*
X111747053Y-118110000D01*
X111722899Y-118355239D01*
X111651366Y-118591053D01*
X111535201Y-118808381D01*
X111378871Y-118998871D01*
X111188381Y-119155201D01*
X110971053Y-119271366D01*
X110735239Y-119342899D01*
X110551457Y-119361000D01*
X110428543Y-119361000D01*
X110244761Y-119342899D01*
X110008947Y-119271366D01*
X109791619Y-119155201D01*
X109601129Y-118998871D01*
X109444799Y-118808381D01*
X109328634Y-118591053D01*
X109257101Y-118355239D01*
X109232947Y-118110000D01*
X109257101Y-117864761D01*
X109328634Y-117628947D01*
X109444799Y-117411619D01*
X109601129Y-117221129D01*
X109791619Y-117064799D01*
X110008947Y-116948634D01*
X110244761Y-116877101D01*
X110428543Y-116859000D01*
X110551457Y-116859000D01*
X110735239Y-116877101D01*
X110735239Y-116877101D01*
G37*
G36*
X145681000Y-119011000D02*
X143879000Y-119011000D01*
X143879000Y-117209000D01*
X145681000Y-117209000D01*
X145681000Y-119011000D01*
X145681000Y-119011000D01*
G37*
G36*
X106311000Y-119011000D02*
X104509000Y-119011000D01*
X104509000Y-117209000D01*
X106311000Y-117209000D01*
X106311000Y-119011000D01*
X106311000Y-119011000D01*
G37*
G36*
X144890443Y-114675519D02*
X144956627Y-114682037D01*
X145069853Y-114716384D01*
X145126467Y-114733557D01*
X145265087Y-114807652D01*
X145282991Y-114817222D01*
X145318729Y-114846552D01*
X145420186Y-114929814D01*
X145503448Y-115031271D01*
X145532778Y-115067009D01*
X145532779Y-115067011D01*
X145616443Y-115223533D01*
X145616443Y-115223534D01*
X145667963Y-115393373D01*
X145685359Y-115570000D01*
X145667963Y-115746627D01*
X145633616Y-115859853D01*
X145616443Y-115916467D01*
X145542348Y-116055087D01*
X145532778Y-116072991D01*
X145503448Y-116108729D01*
X145420186Y-116210186D01*
X145318729Y-116293448D01*
X145282991Y-116322778D01*
X145282989Y-116322779D01*
X145126467Y-116406443D01*
X145069853Y-116423616D01*
X144956627Y-116457963D01*
X144890442Y-116464482D01*
X144824260Y-116471000D01*
X144735740Y-116471000D01*
X144669558Y-116464482D01*
X144603373Y-116457963D01*
X144490147Y-116423616D01*
X144433533Y-116406443D01*
X144277011Y-116322779D01*
X144277009Y-116322778D01*
X144241271Y-116293448D01*
X144139814Y-116210186D01*
X144056552Y-116108729D01*
X144027222Y-116072991D01*
X144017652Y-116055087D01*
X143943557Y-115916467D01*
X143926384Y-115859853D01*
X143892037Y-115746627D01*
X143874641Y-115570000D01*
X143892037Y-115393373D01*
X143943557Y-115223534D01*
X143943557Y-115223533D01*
X144027221Y-115067011D01*
X144027222Y-115067009D01*
X144056552Y-115031271D01*
X144139814Y-114929814D01*
X144241271Y-114846552D01*
X144277009Y-114817222D01*
X144294913Y-114807652D01*
X144433533Y-114733557D01*
X144490147Y-114716384D01*
X144603373Y-114682037D01*
X144669557Y-114675519D01*
X144735740Y-114669000D01*
X144824260Y-114669000D01*
X144890443Y-114675519D01*
X144890443Y-114675519D01*
G37*
G36*
X105520443Y-114675519D02*
X105586627Y-114682037D01*
X105699853Y-114716384D01*
X105756467Y-114733557D01*
X105895087Y-114807652D01*
X105912991Y-114817222D01*
X105948729Y-114846552D01*
X106050186Y-114929814D01*
X106133448Y-115031271D01*
X106162778Y-115067009D01*
X106162779Y-115067011D01*
X106246443Y-115223533D01*
X106246443Y-115223534D01*
X106297963Y-115393373D01*
X106315359Y-115570000D01*
X106297963Y-115746627D01*
X106263616Y-115859853D01*
X106246443Y-115916467D01*
X106172348Y-116055087D01*
X106162778Y-116072991D01*
X106133448Y-116108729D01*
X106050186Y-116210186D01*
X105948729Y-116293448D01*
X105912991Y-116322778D01*
X105912989Y-116322779D01*
X105756467Y-116406443D01*
X105699853Y-116423616D01*
X105586627Y-116457963D01*
X105520442Y-116464482D01*
X105454260Y-116471000D01*
X105365740Y-116471000D01*
X105299558Y-116464482D01*
X105233373Y-116457963D01*
X105120147Y-116423616D01*
X105063533Y-116406443D01*
X104907011Y-116322779D01*
X104907009Y-116322778D01*
X104871271Y-116293448D01*
X104769814Y-116210186D01*
X104686552Y-116108729D01*
X104657222Y-116072991D01*
X104647652Y-116055087D01*
X104573557Y-115916467D01*
X104556384Y-115859853D01*
X104522037Y-115746627D01*
X104504641Y-115570000D01*
X104522037Y-115393373D01*
X104573557Y-115223534D01*
X104573557Y-115223533D01*
X104657221Y-115067011D01*
X104657222Y-115067009D01*
X104686552Y-115031271D01*
X104769814Y-114929814D01*
X104871271Y-114846552D01*
X104907009Y-114817222D01*
X104924913Y-114807652D01*
X105063533Y-114733557D01*
X105120147Y-114716384D01*
X105233373Y-114682037D01*
X105299557Y-114675519D01*
X105365740Y-114669000D01*
X105454260Y-114669000D01*
X105520443Y-114675519D01*
X105520443Y-114675519D01*
G37*
G36*
X137393643Y-109719781D02*
X137539415Y-109780162D01*
X137670611Y-109867824D01*
X137782176Y-109979389D01*
X137869838Y-110110585D01*
X137930219Y-110256357D01*
X137961000Y-110411107D01*
X137961000Y-110568893D01*
X137930219Y-110723643D01*
X137869838Y-110869415D01*
X137782176Y-111000611D01*
X137670611Y-111112176D01*
X137539415Y-111199838D01*
X137393643Y-111260219D01*
X137238893Y-111291000D01*
X137081107Y-111291000D01*
X136926357Y-111260219D01*
X136780585Y-111199838D01*
X136649389Y-111112176D01*
X136537824Y-111000611D01*
X136450162Y-110869415D01*
X136389781Y-110723643D01*
X136359000Y-110568893D01*
X136359000Y-110411107D01*
X136389781Y-110256357D01*
X136450162Y-110110585D01*
X136537824Y-109979389D01*
X136649389Y-109867824D01*
X136780585Y-109780162D01*
X136926357Y-109719781D01*
X137081107Y-109689000D01*
X137238893Y-109689000D01*
X137393643Y-109719781D01*
X137393643Y-109719781D01*
G37*
G36*
X140501000Y-111291000D02*
X138899000Y-111291000D01*
X138899000Y-109689000D01*
X140501000Y-109689000D01*
X140501000Y-111291000D01*
X140501000Y-111291000D01*
G37*
G36*
X134853643Y-109719781D02*
X134999415Y-109780162D01*
X135130611Y-109867824D01*
X135242176Y-109979389D01*
X135329838Y-110110585D01*
X135390219Y-110256357D01*
X135421000Y-110411107D01*
X135421000Y-110568893D01*
X135390219Y-110723643D01*
X135329838Y-110869415D01*
X135242176Y-111000611D01*
X135130611Y-111112176D01*
X134999415Y-111199838D01*
X134853643Y-111260219D01*
X134698893Y-111291000D01*
X134541107Y-111291000D01*
X134386357Y-111260219D01*
X134240585Y-111199838D01*
X134109389Y-111112176D01*
X133997824Y-111000611D01*
X133910162Y-110869415D01*
X133849781Y-110723643D01*
X133819000Y-110568893D01*
X133819000Y-110411107D01*
X133849781Y-110256357D01*
X133910162Y-110110585D01*
X133997824Y-109979389D01*
X134109389Y-109867824D01*
X134240585Y-109780162D01*
X134386357Y-109719781D01*
X134541107Y-109689000D01*
X134698893Y-109689000D01*
X134853643Y-109719781D01*
X134853643Y-109719781D01*
G37*
G36*
X124693643Y-109719781D02*
X124839415Y-109780162D01*
X124970611Y-109867824D01*
X125082176Y-109979389D01*
X125169838Y-110110585D01*
X125230219Y-110256357D01*
X125261000Y-110411107D01*
X125261000Y-110568893D01*
X125230219Y-110723643D01*
X125169838Y-110869415D01*
X125082176Y-111000611D01*
X124970611Y-111112176D01*
X124839415Y-111199838D01*
X124693643Y-111260219D01*
X124538893Y-111291000D01*
X124381107Y-111291000D01*
X124226357Y-111260219D01*
X124080585Y-111199838D01*
X123949389Y-111112176D01*
X123837824Y-111000611D01*
X123750162Y-110869415D01*
X123689781Y-110723643D01*
X123659000Y-110568893D01*
X123659000Y-110411107D01*
X123689781Y-110256357D01*
X123750162Y-110110585D01*
X123837824Y-109979389D01*
X123949389Y-109867824D01*
X124080585Y-109780162D01*
X124226357Y-109719781D01*
X124381107Y-109689000D01*
X124538893Y-109689000D01*
X124693643Y-109719781D01*
X124693643Y-109719781D01*
G37*
G36*
X122153643Y-109719781D02*
X122299415Y-109780162D01*
X122430611Y-109867824D01*
X122542176Y-109979389D01*
X122629838Y-110110585D01*
X122690219Y-110256357D01*
X122721000Y-110411107D01*
X122721000Y-110568893D01*
X122690219Y-110723643D01*
X122629838Y-110869415D01*
X122542176Y-111000611D01*
X122430611Y-111112176D01*
X122299415Y-111199838D01*
X122153643Y-111260219D01*
X121998893Y-111291000D01*
X121841107Y-111291000D01*
X121686357Y-111260219D01*
X121540585Y-111199838D01*
X121409389Y-111112176D01*
X121297824Y-111000611D01*
X121210162Y-110869415D01*
X121149781Y-110723643D01*
X121119000Y-110568893D01*
X121119000Y-110411107D01*
X121149781Y-110256357D01*
X121210162Y-110110585D01*
X121297824Y-109979389D01*
X121409389Y-109867824D01*
X121540585Y-109780162D01*
X121686357Y-109719781D01*
X121841107Y-109689000D01*
X121998893Y-109689000D01*
X122153643Y-109719781D01*
X122153643Y-109719781D01*
G37*
G36*
X120181000Y-111291000D02*
X118579000Y-111291000D01*
X118579000Y-109689000D01*
X120181000Y-109689000D01*
X120181000Y-111291000D01*
X120181000Y-111291000D01*
G37*
G36*
X114533643Y-109719781D02*
X114679415Y-109780162D01*
X114810611Y-109867824D01*
X114922176Y-109979389D01*
X115009838Y-110110585D01*
X115070219Y-110256357D01*
X115101000Y-110411107D01*
X115101000Y-110568893D01*
X115070219Y-110723643D01*
X115009838Y-110869415D01*
X114922176Y-111000611D01*
X114810611Y-111112176D01*
X114679415Y-111199838D01*
X114533643Y-111260219D01*
X114378893Y-111291000D01*
X114221107Y-111291000D01*
X114066357Y-111260219D01*
X113920585Y-111199838D01*
X113789389Y-111112176D01*
X113677824Y-111000611D01*
X113590162Y-110869415D01*
X113529781Y-110723643D01*
X113499000Y-110568893D01*
X113499000Y-110411107D01*
X113529781Y-110256357D01*
X113590162Y-110110585D01*
X113677824Y-109979389D01*
X113789389Y-109867824D01*
X113920585Y-109780162D01*
X114066357Y-109719781D01*
X114221107Y-109689000D01*
X114378893Y-109689000D01*
X114533643Y-109719781D01*
X114533643Y-109719781D01*
G37*
G36*
X117073643Y-109719781D02*
X117219415Y-109780162D01*
X117350611Y-109867824D01*
X117462176Y-109979389D01*
X117549838Y-110110585D01*
X117610219Y-110256357D01*
X117641000Y-110411107D01*
X117641000Y-110568893D01*
X117610219Y-110723643D01*
X117549838Y-110869415D01*
X117462176Y-111000611D01*
X117350611Y-111112176D01*
X117219415Y-111199838D01*
X117073643Y-111260219D01*
X116918893Y-111291000D01*
X116761107Y-111291000D01*
X116606357Y-111260219D01*
X116460585Y-111199838D01*
X116329389Y-111112176D01*
X116217824Y-111000611D01*
X116130162Y-110869415D01*
X116069781Y-110723643D01*
X116039000Y-110568893D01*
X116039000Y-110411107D01*
X116069781Y-110256357D01*
X116130162Y-110110585D01*
X116217824Y-109979389D01*
X116329389Y-109867824D01*
X116460585Y-109780162D01*
X116606357Y-109719781D01*
X116761107Y-109689000D01*
X116918893Y-109689000D01*
X117073643Y-109719781D01*
X117073643Y-109719781D01*
G37*
G36*
X132881000Y-111291000D02*
X131279000Y-111291000D01*
X131279000Y-109689000D01*
X132881000Y-109689000D01*
X132881000Y-111291000D01*
X132881000Y-111291000D01*
G37*
G36*
X127233643Y-109719781D02*
X127379415Y-109780162D01*
X127510611Y-109867824D01*
X127622176Y-109979389D01*
X127709838Y-110110585D01*
X127770219Y-110256357D01*
X127801000Y-110411107D01*
X127801000Y-110568893D01*
X127770219Y-110723643D01*
X127709838Y-110869415D01*
X127622176Y-111000611D01*
X127510611Y-111112176D01*
X127379415Y-111199838D01*
X127233643Y-111260219D01*
X127078893Y-111291000D01*
X126921107Y-111291000D01*
X126766357Y-111260219D01*
X126620585Y-111199838D01*
X126489389Y-111112176D01*
X126377824Y-111000611D01*
X126290162Y-110869415D01*
X126229781Y-110723643D01*
X126199000Y-110568893D01*
X126199000Y-110411107D01*
X126229781Y-110256357D01*
X126290162Y-110110585D01*
X126377824Y-109979389D01*
X126489389Y-109867824D01*
X126620585Y-109780162D01*
X126766357Y-109719781D01*
X126921107Y-109689000D01*
X127078893Y-109689000D01*
X127233643Y-109719781D01*
X127233643Y-109719781D01*
G37*
G36*
X112561000Y-111291000D02*
X110959000Y-111291000D01*
X110959000Y-109689000D01*
X112561000Y-109689000D01*
X112561000Y-111291000D01*
X112561000Y-111291000D01*
G37*
G36*
X129773643Y-109719781D02*
X129919415Y-109780162D01*
X130050611Y-109867824D01*
X130162176Y-109979389D01*
X130249838Y-110110585D01*
X130310219Y-110256357D01*
X130341000Y-110411107D01*
X130341000Y-110568893D01*
X130310219Y-110723643D01*
X130249838Y-110869415D01*
X130162176Y-111000611D01*
X130050611Y-111112176D01*
X129919415Y-111199838D01*
X129773643Y-111260219D01*
X129618893Y-111291000D01*
X129461107Y-111291000D01*
X129306357Y-111260219D01*
X129160585Y-111199838D01*
X129029389Y-111112176D01*
X128917824Y-111000611D01*
X128830162Y-110869415D01*
X128769781Y-110723643D01*
X128739000Y-110568893D01*
X128739000Y-110411107D01*
X128769781Y-110256357D01*
X128830162Y-110110585D01*
X128917824Y-109979389D01*
X129029389Y-109867824D01*
X129160585Y-109780162D01*
X129306357Y-109719781D01*
X129461107Y-109689000D01*
X129618893Y-109689000D01*
X129773643Y-109719781D01*
X129773643Y-109719781D01*
G37*
G36*
X127248228Y-104591703D02*
X127403100Y-104655853D01*
X127542481Y-104748985D01*
X127661015Y-104867519D01*
X127754147Y-105006900D01*
X127818297Y-105161772D01*
X127851000Y-105326184D01*
X127851000Y-105493816D01*
X127818297Y-105658228D01*
X127754147Y-105813100D01*
X127661015Y-105952481D01*
X127542481Y-106071015D01*
X127403100Y-106164147D01*
X127248228Y-106228297D01*
X127083816Y-106261000D01*
X126916184Y-106261000D01*
X126751772Y-106228297D01*
X126596900Y-106164147D01*
X126457519Y-106071015D01*
X126338985Y-105952481D01*
X126245853Y-105813100D01*
X126181703Y-105658228D01*
X126149000Y-105493816D01*
X126149000Y-105326184D01*
X126181703Y-105161772D01*
X126245853Y-105006900D01*
X126338985Y-104867519D01*
X126457519Y-104748985D01*
X126596900Y-104655853D01*
X126751772Y-104591703D01*
X126916184Y-104559000D01*
X127083816Y-104559000D01*
X127248228Y-104591703D01*
X127248228Y-104591703D01*
G37*
G36*
X123356821Y-104571313D02*
X123356824Y-104571314D01*
X123356825Y-104571314D01*
X123517239Y-104619975D01*
X123517241Y-104619976D01*
X123517244Y-104619977D01*
X123665078Y-104698995D01*
X123794659Y-104805341D01*
X123901005Y-104934922D01*
X123980023Y-105082756D01*
X123980024Y-105082759D01*
X123980025Y-105082761D01*
X124028686Y-105243175D01*
X124028687Y-105243179D01*
X124045117Y-105410000D01*
X124028687Y-105576821D01*
X124028686Y-105576824D01*
X124028686Y-105576825D01*
X124003993Y-105658228D01*
X123980023Y-105737244D01*
X123901005Y-105885078D01*
X123794659Y-106014659D01*
X123665078Y-106121005D01*
X123517244Y-106200023D01*
X123517241Y-106200024D01*
X123517239Y-106200025D01*
X123356825Y-106248686D01*
X123356824Y-106248686D01*
X123356821Y-106248687D01*
X123231804Y-106261000D01*
X123148196Y-106261000D01*
X123023179Y-106248687D01*
X123023176Y-106248686D01*
X123023175Y-106248686D01*
X122862761Y-106200025D01*
X122862759Y-106200024D01*
X122862756Y-106200023D01*
X122714922Y-106121005D01*
X122585341Y-106014659D01*
X122478995Y-105885078D01*
X122399977Y-105737244D01*
X122376008Y-105658228D01*
X122351314Y-105576825D01*
X122351314Y-105576824D01*
X122351313Y-105576821D01*
X122334883Y-105410000D01*
X122351313Y-105243179D01*
X122351314Y-105243175D01*
X122399975Y-105082761D01*
X122399976Y-105082759D01*
X122399977Y-105082756D01*
X122478995Y-104934922D01*
X122585341Y-104805341D01*
X122714922Y-104698995D01*
X122862756Y-104619977D01*
X122862759Y-104619976D01*
X122862761Y-104619975D01*
X123023175Y-104571314D01*
X123023176Y-104571314D01*
X123023179Y-104571313D01*
X123148196Y-104559000D01*
X123231804Y-104559000D01*
X123356821Y-104571313D01*
X123356821Y-104571313D01*
G37*
G36*
X145013643Y-102099781D02*
X145159415Y-102160162D01*
X145290611Y-102247824D01*
X145402176Y-102359389D01*
X145489838Y-102490585D01*
X145550219Y-102636357D01*
X145581000Y-102791107D01*
X145581000Y-102948893D01*
X145550219Y-103103643D01*
X145489838Y-103249415D01*
X145402176Y-103380611D01*
X145290611Y-103492176D01*
X145159415Y-103579838D01*
X145013643Y-103640219D01*
X144858893Y-103671000D01*
X144701107Y-103671000D01*
X144546357Y-103640219D01*
X144400585Y-103579838D01*
X144269389Y-103492176D01*
X144157824Y-103380611D01*
X144070162Y-103249415D01*
X144009781Y-103103643D01*
X143979000Y-102948893D01*
X143979000Y-102791107D01*
X144009781Y-102636357D01*
X144070162Y-102490585D01*
X144157824Y-102359389D01*
X144269389Y-102247824D01*
X144400585Y-102160162D01*
X144546357Y-102099781D01*
X144701107Y-102069000D01*
X144858893Y-102069000D01*
X145013643Y-102099781D01*
X145013643Y-102099781D01*
G37*
G36*
X105643643Y-102099781D02*
X105789415Y-102160162D01*
X105920611Y-102247824D01*
X106032176Y-102359389D01*
X106119838Y-102490585D01*
X106180219Y-102636357D01*
X106211000Y-102791107D01*
X106211000Y-102948893D01*
X106180219Y-103103643D01*
X106119838Y-103249415D01*
X106032176Y-103380611D01*
X105920611Y-103492176D01*
X105789415Y-103579838D01*
X105643643Y-103640219D01*
X105488893Y-103671000D01*
X105331107Y-103671000D01*
X105176357Y-103640219D01*
X105030585Y-103579838D01*
X104899389Y-103492176D01*
X104787824Y-103380611D01*
X104700162Y-103249415D01*
X104639781Y-103103643D01*
X104609000Y-102948893D01*
X104609000Y-102791107D01*
X104639781Y-102636357D01*
X104700162Y-102490585D01*
X104787824Y-102359389D01*
X104899389Y-102247824D01*
X105030585Y-102160162D01*
X105176357Y-102099781D01*
X105331107Y-102069000D01*
X105488893Y-102069000D01*
X105643643Y-102099781D01*
X105643643Y-102099781D01*
G37*
G36*
X108183643Y-102099781D02*
X108329415Y-102160162D01*
X108460611Y-102247824D01*
X108572176Y-102359389D01*
X108659838Y-102490585D01*
X108720219Y-102636357D01*
X108751000Y-102791107D01*
X108751000Y-102948893D01*
X108720219Y-103103643D01*
X108659838Y-103249415D01*
X108572176Y-103380611D01*
X108460611Y-103492176D01*
X108329415Y-103579838D01*
X108183643Y-103640219D01*
X108028893Y-103671000D01*
X107871107Y-103671000D01*
X107716357Y-103640219D01*
X107570585Y-103579838D01*
X107439389Y-103492176D01*
X107327824Y-103380611D01*
X107240162Y-103249415D01*
X107179781Y-103103643D01*
X107149000Y-102948893D01*
X107149000Y-102791107D01*
X107179781Y-102636357D01*
X107240162Y-102490585D01*
X107327824Y-102359389D01*
X107439389Y-102247824D01*
X107570585Y-102160162D01*
X107716357Y-102099781D01*
X107871107Y-102069000D01*
X108028893Y-102069000D01*
X108183643Y-102099781D01*
X108183643Y-102099781D01*
G37*
G36*
X111291000Y-103671000D02*
X109689000Y-103671000D01*
X109689000Y-102069000D01*
X111291000Y-102069000D01*
X111291000Y-103671000D01*
X111291000Y-103671000D01*
G37*
G36*
X142473643Y-102099781D02*
X142619415Y-102160162D01*
X142750611Y-102247824D01*
X142862176Y-102359389D01*
X142949838Y-102490585D01*
X143010219Y-102636357D01*
X143041000Y-102791107D01*
X143041000Y-102948893D01*
X143010219Y-103103643D01*
X142949838Y-103249415D01*
X142862176Y-103380611D01*
X142750611Y-103492176D01*
X142619415Y-103579838D01*
X142473643Y-103640219D01*
X142318893Y-103671000D01*
X142161107Y-103671000D01*
X142006357Y-103640219D01*
X141860585Y-103579838D01*
X141729389Y-103492176D01*
X141617824Y-103380611D01*
X141530162Y-103249415D01*
X141469781Y-103103643D01*
X141439000Y-102948893D01*
X141439000Y-102791107D01*
X141469781Y-102636357D01*
X141530162Y-102490585D01*
X141617824Y-102359389D01*
X141729389Y-102247824D01*
X141860585Y-102160162D01*
X142006357Y-102099781D01*
X142161107Y-102069000D01*
X142318893Y-102069000D01*
X142473643Y-102099781D01*
X142473643Y-102099781D01*
G37*
G36*
X117073643Y-102099781D02*
X117219415Y-102160162D01*
X117350611Y-102247824D01*
X117462176Y-102359389D01*
X117549838Y-102490585D01*
X117610219Y-102636357D01*
X117641000Y-102791107D01*
X117641000Y-102948893D01*
X117610219Y-103103643D01*
X117549838Y-103249415D01*
X117462176Y-103380611D01*
X117350611Y-103492176D01*
X117219415Y-103579838D01*
X117073643Y-103640219D01*
X116918893Y-103671000D01*
X116761107Y-103671000D01*
X116606357Y-103640219D01*
X116460585Y-103579838D01*
X116329389Y-103492176D01*
X116217824Y-103380611D01*
X116130162Y-103249415D01*
X116069781Y-103103643D01*
X116039000Y-102948893D01*
X116039000Y-102791107D01*
X116069781Y-102636357D01*
X116130162Y-102490585D01*
X116217824Y-102359389D01*
X116329389Y-102247824D01*
X116460585Y-102160162D01*
X116606357Y-102099781D01*
X116761107Y-102069000D01*
X116918893Y-102069000D01*
X117073643Y-102099781D01*
X117073643Y-102099781D01*
G37*
G36*
X131043643Y-102099781D02*
X131189415Y-102160162D01*
X131320611Y-102247824D01*
X131432176Y-102359389D01*
X131519838Y-102490585D01*
X131580219Y-102636357D01*
X131611000Y-102791107D01*
X131611000Y-102948893D01*
X131580219Y-103103643D01*
X131519838Y-103249415D01*
X131432176Y-103380611D01*
X131320611Y-103492176D01*
X131189415Y-103579838D01*
X131043643Y-103640219D01*
X130888893Y-103671000D01*
X130731107Y-103671000D01*
X130576357Y-103640219D01*
X130430585Y-103579838D01*
X130299389Y-103492176D01*
X130187824Y-103380611D01*
X130100162Y-103249415D01*
X130039781Y-103103643D01*
X130009000Y-102948893D01*
X130009000Y-102791107D01*
X130039781Y-102636357D01*
X130100162Y-102490585D01*
X130187824Y-102359389D01*
X130299389Y-102247824D01*
X130430585Y-102160162D01*
X130576357Y-102099781D01*
X130731107Y-102069000D01*
X130888893Y-102069000D01*
X131043643Y-102099781D01*
X131043643Y-102099781D01*
G37*
G36*
X119613643Y-102099781D02*
X119759415Y-102160162D01*
X119890611Y-102247824D01*
X120002176Y-102359389D01*
X120089838Y-102490585D01*
X120150219Y-102636357D01*
X120181000Y-102791107D01*
X120181000Y-102948893D01*
X120150219Y-103103643D01*
X120089838Y-103249415D01*
X120002176Y-103380611D01*
X119890611Y-103492176D01*
X119759415Y-103579838D01*
X119613643Y-103640219D01*
X119458893Y-103671000D01*
X119301107Y-103671000D01*
X119146357Y-103640219D01*
X119000585Y-103579838D01*
X118869389Y-103492176D01*
X118757824Y-103380611D01*
X118670162Y-103249415D01*
X118609781Y-103103643D01*
X118579000Y-102948893D01*
X118579000Y-102791107D01*
X118609781Y-102636357D01*
X118670162Y-102490585D01*
X118757824Y-102359389D01*
X118869389Y-102247824D01*
X119000585Y-102160162D01*
X119146357Y-102099781D01*
X119301107Y-102069000D01*
X119458893Y-102069000D01*
X119613643Y-102099781D01*
X119613643Y-102099781D01*
G37*
G36*
X133583643Y-102099781D02*
X133729415Y-102160162D01*
X133860611Y-102247824D01*
X133972176Y-102359389D01*
X134059838Y-102490585D01*
X134120219Y-102636357D01*
X134151000Y-102791107D01*
X134151000Y-102948893D01*
X134120219Y-103103643D01*
X134059838Y-103249415D01*
X133972176Y-103380611D01*
X133860611Y-103492176D01*
X133729415Y-103579838D01*
X133583643Y-103640219D01*
X133428893Y-103671000D01*
X133271107Y-103671000D01*
X133116357Y-103640219D01*
X132970585Y-103579838D01*
X132839389Y-103492176D01*
X132727824Y-103380611D01*
X132640162Y-103249415D01*
X132579781Y-103103643D01*
X132549000Y-102948893D01*
X132549000Y-102791107D01*
X132579781Y-102636357D01*
X132640162Y-102490585D01*
X132727824Y-102359389D01*
X132839389Y-102247824D01*
X132970585Y-102160162D01*
X133116357Y-102099781D01*
X133271107Y-102069000D01*
X133428893Y-102069000D01*
X133583643Y-102099781D01*
X133583643Y-102099781D01*
G37*
G36*
X115101000Y-103671000D02*
X113499000Y-103671000D01*
X113499000Y-102069000D01*
X115101000Y-102069000D01*
X115101000Y-103671000D01*
X115101000Y-103671000D01*
G37*
G36*
X136691000Y-103671000D02*
X135089000Y-103671000D01*
X135089000Y-102069000D01*
X136691000Y-102069000D01*
X136691000Y-103671000D01*
X136691000Y-103671000D01*
G37*
G36*
X140501000Y-103671000D02*
X138899000Y-103671000D01*
X138899000Y-102069000D01*
X140501000Y-102069000D01*
X140501000Y-103671000D01*
X140501000Y-103671000D01*
G37*
G36*
X123438228Y-99511703D02*
X123593100Y-99575853D01*
X123732481Y-99668985D01*
X123851015Y-99787519D01*
X123944147Y-99926900D01*
X124008297Y-100081772D01*
X124041000Y-100246184D01*
X124041000Y-100413816D01*
X124008297Y-100578228D01*
X123944147Y-100733100D01*
X123851015Y-100872481D01*
X123732481Y-100991015D01*
X123593100Y-101084147D01*
X123438228Y-101148297D01*
X123273816Y-101181000D01*
X123106184Y-101181000D01*
X122941772Y-101148297D01*
X122786900Y-101084147D01*
X122647519Y-100991015D01*
X122528985Y-100872481D01*
X122435853Y-100733100D01*
X122371703Y-100578228D01*
X122339000Y-100413816D01*
X122339000Y-100246184D01*
X122371703Y-100081772D01*
X122435853Y-99926900D01*
X122528985Y-99787519D01*
X122647519Y-99668985D01*
X122786900Y-99575853D01*
X122941772Y-99511703D01*
X123106184Y-99479000D01*
X123273816Y-99479000D01*
X123438228Y-99511703D01*
X123438228Y-99511703D01*
G37*
G36*
X127166821Y-99491313D02*
X127166824Y-99491314D01*
X127166825Y-99491314D01*
X127327239Y-99539975D01*
X127327241Y-99539976D01*
X127327244Y-99539977D01*
X127475078Y-99618995D01*
X127604659Y-99725341D01*
X127711005Y-99854922D01*
X127790023Y-100002756D01*
X127790024Y-100002759D01*
X127790025Y-100002761D01*
X127838686Y-100163175D01*
X127838687Y-100163179D01*
X127855117Y-100330000D01*
X127838687Y-100496821D01*
X127838686Y-100496824D01*
X127838686Y-100496825D01*
X127813993Y-100578228D01*
X127790023Y-100657244D01*
X127711005Y-100805078D01*
X127604659Y-100934659D01*
X127475078Y-101041005D01*
X127327244Y-101120023D01*
X127327241Y-101120024D01*
X127327239Y-101120025D01*
X127166825Y-101168686D01*
X127166824Y-101168686D01*
X127166821Y-101168687D01*
X127041804Y-101181000D01*
X126958196Y-101181000D01*
X126833179Y-101168687D01*
X126833176Y-101168686D01*
X126833175Y-101168686D01*
X126672761Y-101120025D01*
X126672759Y-101120024D01*
X126672756Y-101120023D01*
X126524922Y-101041005D01*
X126395341Y-100934659D01*
X126288995Y-100805078D01*
X126209977Y-100657244D01*
X126186008Y-100578228D01*
X126161314Y-100496825D01*
X126161314Y-100496824D01*
X126161313Y-100496821D01*
X126144883Y-100330000D01*
X126161313Y-100163179D01*
X126161314Y-100163175D01*
X126209975Y-100002761D01*
X126209976Y-100002759D01*
X126209977Y-100002756D01*
X126288995Y-99854922D01*
X126395341Y-99725341D01*
X126524922Y-99618995D01*
X126672756Y-99539977D01*
X126672759Y-99539976D01*
X126672761Y-99539975D01*
X126833175Y-99491314D01*
X126833176Y-99491314D01*
X126833179Y-99491313D01*
X126958196Y-99479000D01*
X127041804Y-99479000D01*
X127166821Y-99491313D01*
X127166821Y-99491313D01*
G37*
G36*
X145013643Y-94479781D02*
X145159415Y-94540162D01*
X145290611Y-94627824D01*
X145402176Y-94739389D01*
X145489838Y-94870585D01*
X145550219Y-95016357D01*
X145581000Y-95171107D01*
X145581000Y-95328893D01*
X145550219Y-95483643D01*
X145489838Y-95629415D01*
X145402176Y-95760611D01*
X145290611Y-95872176D01*
X145159415Y-95959838D01*
X145013643Y-96020219D01*
X144858893Y-96051000D01*
X144701107Y-96051000D01*
X144546357Y-96020219D01*
X144400585Y-95959838D01*
X144269389Y-95872176D01*
X144157824Y-95760611D01*
X144070162Y-95629415D01*
X144009781Y-95483643D01*
X143979000Y-95328893D01*
X143979000Y-95171107D01*
X144009781Y-95016357D01*
X144070162Y-94870585D01*
X144157824Y-94739389D01*
X144269389Y-94627824D01*
X144400585Y-94540162D01*
X144546357Y-94479781D01*
X144701107Y-94449000D01*
X144858893Y-94449000D01*
X145013643Y-94479781D01*
X145013643Y-94479781D01*
G37*
G36*
X140501000Y-96051000D02*
X138899000Y-96051000D01*
X138899000Y-94449000D01*
X140501000Y-94449000D01*
X140501000Y-96051000D01*
X140501000Y-96051000D01*
G37*
G36*
X136691000Y-96051000D02*
X135089000Y-96051000D01*
X135089000Y-94449000D01*
X136691000Y-94449000D01*
X136691000Y-96051000D01*
X136691000Y-96051000D01*
G37*
G36*
X133583643Y-94479781D02*
X133729415Y-94540162D01*
X133860611Y-94627824D01*
X133972176Y-94739389D01*
X134059838Y-94870585D01*
X134120219Y-95016357D01*
X134151000Y-95171107D01*
X134151000Y-95328893D01*
X134120219Y-95483643D01*
X134059838Y-95629415D01*
X133972176Y-95760611D01*
X133860611Y-95872176D01*
X133729415Y-95959838D01*
X133583643Y-96020219D01*
X133428893Y-96051000D01*
X133271107Y-96051000D01*
X133116357Y-96020219D01*
X132970585Y-95959838D01*
X132839389Y-95872176D01*
X132727824Y-95760611D01*
X132640162Y-95629415D01*
X132579781Y-95483643D01*
X132549000Y-95328893D01*
X132549000Y-95171107D01*
X132579781Y-95016357D01*
X132640162Y-94870585D01*
X132727824Y-94739389D01*
X132839389Y-94627824D01*
X132970585Y-94540162D01*
X133116357Y-94479781D01*
X133271107Y-94449000D01*
X133428893Y-94449000D01*
X133583643Y-94479781D01*
X133583643Y-94479781D01*
G37*
G36*
X131043643Y-94479781D02*
X131189415Y-94540162D01*
X131320611Y-94627824D01*
X131432176Y-94739389D01*
X131519838Y-94870585D01*
X131580219Y-95016357D01*
X131611000Y-95171107D01*
X131611000Y-95328893D01*
X131580219Y-95483643D01*
X131519838Y-95629415D01*
X131432176Y-95760611D01*
X131320611Y-95872176D01*
X131189415Y-95959838D01*
X131043643Y-96020219D01*
X130888893Y-96051000D01*
X130731107Y-96051000D01*
X130576357Y-96020219D01*
X130430585Y-95959838D01*
X130299389Y-95872176D01*
X130187824Y-95760611D01*
X130100162Y-95629415D01*
X130039781Y-95483643D01*
X130009000Y-95328893D01*
X130009000Y-95171107D01*
X130039781Y-95016357D01*
X130100162Y-94870585D01*
X130187824Y-94739389D01*
X130299389Y-94627824D01*
X130430585Y-94540162D01*
X130576357Y-94479781D01*
X130731107Y-94449000D01*
X130888893Y-94449000D01*
X131043643Y-94479781D01*
X131043643Y-94479781D01*
G37*
G36*
X142473643Y-94479781D02*
X142619415Y-94540162D01*
X142750611Y-94627824D01*
X142862176Y-94739389D01*
X142949838Y-94870585D01*
X143010219Y-95016357D01*
X143041000Y-95171107D01*
X143041000Y-95328893D01*
X143010219Y-95483643D01*
X142949838Y-95629415D01*
X142862176Y-95760611D01*
X142750611Y-95872176D01*
X142619415Y-95959838D01*
X142473643Y-96020219D01*
X142318893Y-96051000D01*
X142161107Y-96051000D01*
X142006357Y-96020219D01*
X141860585Y-95959838D01*
X141729389Y-95872176D01*
X141617824Y-95760611D01*
X141530162Y-95629415D01*
X141469781Y-95483643D01*
X141439000Y-95328893D01*
X141439000Y-95171107D01*
X141469781Y-95016357D01*
X141530162Y-94870585D01*
X141617824Y-94739389D01*
X141729389Y-94627824D01*
X141860585Y-94540162D01*
X142006357Y-94479781D01*
X142161107Y-94449000D01*
X142318893Y-94449000D01*
X142473643Y-94479781D01*
X142473643Y-94479781D01*
G37*
G36*
X119613643Y-94479781D02*
X119759415Y-94540162D01*
X119890611Y-94627824D01*
X120002176Y-94739389D01*
X120089838Y-94870585D01*
X120150219Y-95016357D01*
X120181000Y-95171107D01*
X120181000Y-95328893D01*
X120150219Y-95483643D01*
X120089838Y-95629415D01*
X120002176Y-95760611D01*
X119890611Y-95872176D01*
X119759415Y-95959838D01*
X119613643Y-96020219D01*
X119458893Y-96051000D01*
X119301107Y-96051000D01*
X119146357Y-96020219D01*
X119000585Y-95959838D01*
X118869389Y-95872176D01*
X118757824Y-95760611D01*
X118670162Y-95629415D01*
X118609781Y-95483643D01*
X118579000Y-95328893D01*
X118579000Y-95171107D01*
X118609781Y-95016357D01*
X118670162Y-94870585D01*
X118757824Y-94739389D01*
X118869389Y-94627824D01*
X119000585Y-94540162D01*
X119146357Y-94479781D01*
X119301107Y-94449000D01*
X119458893Y-94449000D01*
X119613643Y-94479781D01*
X119613643Y-94479781D01*
G37*
G36*
X117073643Y-94479781D02*
X117219415Y-94540162D01*
X117350611Y-94627824D01*
X117462176Y-94739389D01*
X117549838Y-94870585D01*
X117610219Y-95016357D01*
X117641000Y-95171107D01*
X117641000Y-95328893D01*
X117610219Y-95483643D01*
X117549838Y-95629415D01*
X117462176Y-95760611D01*
X117350611Y-95872176D01*
X117219415Y-95959838D01*
X117073643Y-96020219D01*
X116918893Y-96051000D01*
X116761107Y-96051000D01*
X116606357Y-96020219D01*
X116460585Y-95959838D01*
X116329389Y-95872176D01*
X116217824Y-95760611D01*
X116130162Y-95629415D01*
X116069781Y-95483643D01*
X116039000Y-95328893D01*
X116039000Y-95171107D01*
X116069781Y-95016357D01*
X116130162Y-94870585D01*
X116217824Y-94739389D01*
X116329389Y-94627824D01*
X116460585Y-94540162D01*
X116606357Y-94479781D01*
X116761107Y-94449000D01*
X116918893Y-94449000D01*
X117073643Y-94479781D01*
X117073643Y-94479781D01*
G37*
G36*
X108183643Y-94479781D02*
X108329415Y-94540162D01*
X108460611Y-94627824D01*
X108572176Y-94739389D01*
X108659838Y-94870585D01*
X108720219Y-95016357D01*
X108751000Y-95171107D01*
X108751000Y-95328893D01*
X108720219Y-95483643D01*
X108659838Y-95629415D01*
X108572176Y-95760611D01*
X108460611Y-95872176D01*
X108329415Y-95959838D01*
X108183643Y-96020219D01*
X108028893Y-96051000D01*
X107871107Y-96051000D01*
X107716357Y-96020219D01*
X107570585Y-95959838D01*
X107439389Y-95872176D01*
X107327824Y-95760611D01*
X107240162Y-95629415D01*
X107179781Y-95483643D01*
X107149000Y-95328893D01*
X107149000Y-95171107D01*
X107179781Y-95016357D01*
X107240162Y-94870585D01*
X107327824Y-94739389D01*
X107439389Y-94627824D01*
X107570585Y-94540162D01*
X107716357Y-94479781D01*
X107871107Y-94449000D01*
X108028893Y-94449000D01*
X108183643Y-94479781D01*
X108183643Y-94479781D01*
G37*
G36*
X105643643Y-94479781D02*
X105789415Y-94540162D01*
X105920611Y-94627824D01*
X106032176Y-94739389D01*
X106119838Y-94870585D01*
X106180219Y-95016357D01*
X106211000Y-95171107D01*
X106211000Y-95328893D01*
X106180219Y-95483643D01*
X106119838Y-95629415D01*
X106032176Y-95760611D01*
X105920611Y-95872176D01*
X105789415Y-95959838D01*
X105643643Y-96020219D01*
X105488893Y-96051000D01*
X105331107Y-96051000D01*
X105176357Y-96020219D01*
X105030585Y-95959838D01*
X104899389Y-95872176D01*
X104787824Y-95760611D01*
X104700162Y-95629415D01*
X104639781Y-95483643D01*
X104609000Y-95328893D01*
X104609000Y-95171107D01*
X104639781Y-95016357D01*
X104700162Y-94870585D01*
X104787824Y-94739389D01*
X104899389Y-94627824D01*
X105030585Y-94540162D01*
X105176357Y-94479781D01*
X105331107Y-94449000D01*
X105488893Y-94449000D01*
X105643643Y-94479781D01*
X105643643Y-94479781D01*
G37*
G36*
X111291000Y-96051000D02*
X109689000Y-96051000D01*
X109689000Y-94449000D01*
X111291000Y-94449000D01*
X111291000Y-96051000D01*
X111291000Y-96051000D01*
G37*
G36*
X115101000Y-96051000D02*
X113499000Y-96051000D01*
X113499000Y-94449000D01*
X115101000Y-94449000D01*
X115101000Y-96051000D01*
X115101000Y-96051000D01*
G37*
G36*
X123438228Y-90621703D02*
X123593100Y-90685853D01*
X123732481Y-90778985D01*
X123851015Y-90897519D01*
X123944147Y-91036900D01*
X124008297Y-91191772D01*
X124041000Y-91356184D01*
X124041000Y-91523816D01*
X124008297Y-91688228D01*
X123944147Y-91843100D01*
X123851015Y-91982481D01*
X123732481Y-92101015D01*
X123593100Y-92194147D01*
X123438228Y-92258297D01*
X123273816Y-92291000D01*
X123106184Y-92291000D01*
X122941772Y-92258297D01*
X122786900Y-92194147D01*
X122647519Y-92101015D01*
X122528985Y-91982481D01*
X122435853Y-91843100D01*
X122371703Y-91688228D01*
X122339000Y-91523816D01*
X122339000Y-91356184D01*
X122371703Y-91191772D01*
X122435853Y-91036900D01*
X122528985Y-90897519D01*
X122647519Y-90778985D01*
X122786900Y-90685853D01*
X122941772Y-90621703D01*
X123106184Y-90589000D01*
X123273816Y-90589000D01*
X123438228Y-90621703D01*
X123438228Y-90621703D01*
G37*
G36*
X127166821Y-90601313D02*
X127166824Y-90601314D01*
X127166825Y-90601314D01*
X127327239Y-90649975D01*
X127327241Y-90649976D01*
X127327244Y-90649977D01*
X127475078Y-90728995D01*
X127604659Y-90835341D01*
X127711005Y-90964922D01*
X127790023Y-91112756D01*
X127790024Y-91112759D01*
X127790025Y-91112761D01*
X127838686Y-91273175D01*
X127838687Y-91273179D01*
X127855117Y-91440000D01*
X127838687Y-91606821D01*
X127838686Y-91606824D01*
X127838686Y-91606825D01*
X127813993Y-91688228D01*
X127790023Y-91767244D01*
X127711005Y-91915078D01*
X127604659Y-92044659D01*
X127475078Y-92151005D01*
X127327244Y-92230023D01*
X127327241Y-92230024D01*
X127327239Y-92230025D01*
X127166825Y-92278686D01*
X127166824Y-92278686D01*
X127166821Y-92278687D01*
X127041804Y-92291000D01*
X126958196Y-92291000D01*
X126833179Y-92278687D01*
X126833176Y-92278686D01*
X126833175Y-92278686D01*
X126672761Y-92230025D01*
X126672759Y-92230024D01*
X126672756Y-92230023D01*
X126524922Y-92151005D01*
X126395341Y-92044659D01*
X126288995Y-91915078D01*
X126209977Y-91767244D01*
X126186008Y-91688228D01*
X126161314Y-91606825D01*
X126161314Y-91606824D01*
X126161313Y-91606821D01*
X126144883Y-91440000D01*
X126161313Y-91273179D01*
X126161314Y-91273175D01*
X126209975Y-91112761D01*
X126209976Y-91112759D01*
X126209977Y-91112756D01*
X126288995Y-90964922D01*
X126395341Y-90835341D01*
X126524922Y-90728995D01*
X126672756Y-90649977D01*
X126672759Y-90649976D01*
X126672761Y-90649975D01*
X126833175Y-90601314D01*
X126833176Y-90601314D01*
X126833179Y-90601313D01*
X126958196Y-90589000D01*
X127041804Y-90589000D01*
X127166821Y-90601313D01*
X127166821Y-90601313D01*
G37*
G36*
X117073643Y-86859781D02*
X117219415Y-86920162D01*
X117350611Y-87007824D01*
X117462176Y-87119389D01*
X117549838Y-87250585D01*
X117610219Y-87396357D01*
X117641000Y-87551107D01*
X117641000Y-87708893D01*
X117610219Y-87863643D01*
X117549838Y-88009415D01*
X117462176Y-88140611D01*
X117350611Y-88252176D01*
X117219415Y-88339838D01*
X117073643Y-88400219D01*
X116918893Y-88431000D01*
X116761107Y-88431000D01*
X116606357Y-88400219D01*
X116460585Y-88339838D01*
X116329389Y-88252176D01*
X116217824Y-88140611D01*
X116130162Y-88009415D01*
X116069781Y-87863643D01*
X116039000Y-87708893D01*
X116039000Y-87551107D01*
X116069781Y-87396357D01*
X116130162Y-87250585D01*
X116217824Y-87119389D01*
X116329389Y-87007824D01*
X116460585Y-86920162D01*
X116606357Y-86859781D01*
X116761107Y-86829000D01*
X116918893Y-86829000D01*
X117073643Y-86859781D01*
X117073643Y-86859781D01*
G37*
G36*
X131043643Y-86859781D02*
X131189415Y-86920162D01*
X131320611Y-87007824D01*
X131432176Y-87119389D01*
X131519838Y-87250585D01*
X131580219Y-87396357D01*
X131611000Y-87551107D01*
X131611000Y-87708893D01*
X131580219Y-87863643D01*
X131519838Y-88009415D01*
X131432176Y-88140611D01*
X131320611Y-88252176D01*
X131189415Y-88339838D01*
X131043643Y-88400219D01*
X130888893Y-88431000D01*
X130731107Y-88431000D01*
X130576357Y-88400219D01*
X130430585Y-88339838D01*
X130299389Y-88252176D01*
X130187824Y-88140611D01*
X130100162Y-88009415D01*
X130039781Y-87863643D01*
X130009000Y-87708893D01*
X130009000Y-87551107D01*
X130039781Y-87396357D01*
X130100162Y-87250585D01*
X130187824Y-87119389D01*
X130299389Y-87007824D01*
X130430585Y-86920162D01*
X130576357Y-86859781D01*
X130731107Y-86829000D01*
X130888893Y-86829000D01*
X131043643Y-86859781D01*
X131043643Y-86859781D01*
G37*
G36*
X133583643Y-86859781D02*
X133729415Y-86920162D01*
X133860611Y-87007824D01*
X133972176Y-87119389D01*
X134059838Y-87250585D01*
X134120219Y-87396357D01*
X134151000Y-87551107D01*
X134151000Y-87708893D01*
X134120219Y-87863643D01*
X134059838Y-88009415D01*
X133972176Y-88140611D01*
X133860611Y-88252176D01*
X133729415Y-88339838D01*
X133583643Y-88400219D01*
X133428893Y-88431000D01*
X133271107Y-88431000D01*
X133116357Y-88400219D01*
X132970585Y-88339838D01*
X132839389Y-88252176D01*
X132727824Y-88140611D01*
X132640162Y-88009415D01*
X132579781Y-87863643D01*
X132549000Y-87708893D01*
X132549000Y-87551107D01*
X132579781Y-87396357D01*
X132640162Y-87250585D01*
X132727824Y-87119389D01*
X132839389Y-87007824D01*
X132970585Y-86920162D01*
X133116357Y-86859781D01*
X133271107Y-86829000D01*
X133428893Y-86829000D01*
X133583643Y-86859781D01*
X133583643Y-86859781D01*
G37*
G36*
X140501000Y-88431000D02*
X138899000Y-88431000D01*
X138899000Y-86829000D01*
X140501000Y-86829000D01*
X140501000Y-88431000D01*
X140501000Y-88431000D01*
G37*
G36*
X142473643Y-86859781D02*
X142619415Y-86920162D01*
X142750611Y-87007824D01*
X142862176Y-87119389D01*
X142949838Y-87250585D01*
X143010219Y-87396357D01*
X143041000Y-87551107D01*
X143041000Y-87708893D01*
X143010219Y-87863643D01*
X142949838Y-88009415D01*
X142862176Y-88140611D01*
X142750611Y-88252176D01*
X142619415Y-88339838D01*
X142473643Y-88400219D01*
X142318893Y-88431000D01*
X142161107Y-88431000D01*
X142006357Y-88400219D01*
X141860585Y-88339838D01*
X141729389Y-88252176D01*
X141617824Y-88140611D01*
X141530162Y-88009415D01*
X141469781Y-87863643D01*
X141439000Y-87708893D01*
X141439000Y-87551107D01*
X141469781Y-87396357D01*
X141530162Y-87250585D01*
X141617824Y-87119389D01*
X141729389Y-87007824D01*
X141860585Y-86920162D01*
X142006357Y-86859781D01*
X142161107Y-86829000D01*
X142318893Y-86829000D01*
X142473643Y-86859781D01*
X142473643Y-86859781D01*
G37*
G36*
X145013643Y-86859781D02*
X145159415Y-86920162D01*
X145290611Y-87007824D01*
X145402176Y-87119389D01*
X145489838Y-87250585D01*
X145550219Y-87396357D01*
X145581000Y-87551107D01*
X145581000Y-87708893D01*
X145550219Y-87863643D01*
X145489838Y-88009415D01*
X145402176Y-88140611D01*
X145290611Y-88252176D01*
X145159415Y-88339838D01*
X145013643Y-88400219D01*
X144858893Y-88431000D01*
X144701107Y-88431000D01*
X144546357Y-88400219D01*
X144400585Y-88339838D01*
X144269389Y-88252176D01*
X144157824Y-88140611D01*
X144070162Y-88009415D01*
X144009781Y-87863643D01*
X143979000Y-87708893D01*
X143979000Y-87551107D01*
X144009781Y-87396357D01*
X144070162Y-87250585D01*
X144157824Y-87119389D01*
X144269389Y-87007824D01*
X144400585Y-86920162D01*
X144546357Y-86859781D01*
X144701107Y-86829000D01*
X144858893Y-86829000D01*
X145013643Y-86859781D01*
X145013643Y-86859781D01*
G37*
G36*
X108183643Y-86859781D02*
X108329415Y-86920162D01*
X108460611Y-87007824D01*
X108572176Y-87119389D01*
X108659838Y-87250585D01*
X108720219Y-87396357D01*
X108751000Y-87551107D01*
X108751000Y-87708893D01*
X108720219Y-87863643D01*
X108659838Y-88009415D01*
X108572176Y-88140611D01*
X108460611Y-88252176D01*
X108329415Y-88339838D01*
X108183643Y-88400219D01*
X108028893Y-88431000D01*
X107871107Y-88431000D01*
X107716357Y-88400219D01*
X107570585Y-88339838D01*
X107439389Y-88252176D01*
X107327824Y-88140611D01*
X107240162Y-88009415D01*
X107179781Y-87863643D01*
X107149000Y-87708893D01*
X107149000Y-87551107D01*
X107179781Y-87396357D01*
X107240162Y-87250585D01*
X107327824Y-87119389D01*
X107439389Y-87007824D01*
X107570585Y-86920162D01*
X107716357Y-86859781D01*
X107871107Y-86829000D01*
X108028893Y-86829000D01*
X108183643Y-86859781D01*
X108183643Y-86859781D01*
G37*
G36*
X105643643Y-86859781D02*
X105789415Y-86920162D01*
X105920611Y-87007824D01*
X106032176Y-87119389D01*
X106119838Y-87250585D01*
X106180219Y-87396357D01*
X106211000Y-87551107D01*
X106211000Y-87708893D01*
X106180219Y-87863643D01*
X106119838Y-88009415D01*
X106032176Y-88140611D01*
X105920611Y-88252176D01*
X105789415Y-88339838D01*
X105643643Y-88400219D01*
X105488893Y-88431000D01*
X105331107Y-88431000D01*
X105176357Y-88400219D01*
X105030585Y-88339838D01*
X104899389Y-88252176D01*
X104787824Y-88140611D01*
X104700162Y-88009415D01*
X104639781Y-87863643D01*
X104609000Y-87708893D01*
X104609000Y-87551107D01*
X104639781Y-87396357D01*
X104700162Y-87250585D01*
X104787824Y-87119389D01*
X104899389Y-87007824D01*
X105030585Y-86920162D01*
X105176357Y-86859781D01*
X105331107Y-86829000D01*
X105488893Y-86829000D01*
X105643643Y-86859781D01*
X105643643Y-86859781D01*
G37*
G36*
X136691000Y-88431000D02*
X135089000Y-88431000D01*
X135089000Y-86829000D01*
X136691000Y-86829000D01*
X136691000Y-88431000D01*
X136691000Y-88431000D01*
G37*
G36*
X119613643Y-86859781D02*
X119759415Y-86920162D01*
X119890611Y-87007824D01*
X120002176Y-87119389D01*
X120089838Y-87250585D01*
X120150219Y-87396357D01*
X120181000Y-87551107D01*
X120181000Y-87708893D01*
X120150219Y-87863643D01*
X120089838Y-88009415D01*
X120002176Y-88140611D01*
X119890611Y-88252176D01*
X119759415Y-88339838D01*
X119613643Y-88400219D01*
X119458893Y-88431000D01*
X119301107Y-88431000D01*
X119146357Y-88400219D01*
X119000585Y-88339838D01*
X118869389Y-88252176D01*
X118757824Y-88140611D01*
X118670162Y-88009415D01*
X118609781Y-87863643D01*
X118579000Y-87708893D01*
X118579000Y-87551107D01*
X118609781Y-87396357D01*
X118670162Y-87250585D01*
X118757824Y-87119389D01*
X118869389Y-87007824D01*
X119000585Y-86920162D01*
X119146357Y-86859781D01*
X119301107Y-86829000D01*
X119458893Y-86829000D01*
X119613643Y-86859781D01*
X119613643Y-86859781D01*
G37*
G36*
X115101000Y-88431000D02*
X113499000Y-88431000D01*
X113499000Y-86829000D01*
X115101000Y-86829000D01*
X115101000Y-88431000D01*
X115101000Y-88431000D01*
G37*
G36*
X111291000Y-88431000D02*
X109689000Y-88431000D01*
X109689000Y-86829000D01*
X111291000Y-86829000D01*
X111291000Y-88431000D01*
X111291000Y-88431000D01*
G37*
G36*
X123356821Y-85521313D02*
X123356824Y-85521314D01*
X123356825Y-85521314D01*
X123517239Y-85569975D01*
X123517241Y-85569976D01*
X123517244Y-85569977D01*
X123665078Y-85648995D01*
X123794659Y-85755341D01*
X123901005Y-85884922D01*
X123980023Y-86032756D01*
X123980024Y-86032759D01*
X123980025Y-86032761D01*
X124028686Y-86193175D01*
X124028687Y-86193179D01*
X124045117Y-86360000D01*
X124028687Y-86526821D01*
X124028686Y-86526824D01*
X124028686Y-86526825D01*
X124003993Y-86608228D01*
X123980023Y-86687244D01*
X123901005Y-86835078D01*
X123794659Y-86964659D01*
X123665078Y-87071005D01*
X123517244Y-87150023D01*
X123517241Y-87150024D01*
X123517239Y-87150025D01*
X123356825Y-87198686D01*
X123356824Y-87198686D01*
X123356821Y-87198687D01*
X123231804Y-87211000D01*
X123148196Y-87211000D01*
X123023179Y-87198687D01*
X123023176Y-87198686D01*
X123023175Y-87198686D01*
X122862761Y-87150025D01*
X122862759Y-87150024D01*
X122862756Y-87150023D01*
X122714922Y-87071005D01*
X122585341Y-86964659D01*
X122478995Y-86835078D01*
X122399977Y-86687244D01*
X122376008Y-86608228D01*
X122351314Y-86526825D01*
X122351314Y-86526824D01*
X122351313Y-86526821D01*
X122334883Y-86360000D01*
X122351313Y-86193179D01*
X122351314Y-86193175D01*
X122399975Y-86032761D01*
X122399976Y-86032759D01*
X122399977Y-86032756D01*
X122478995Y-85884922D01*
X122585341Y-85755341D01*
X122714922Y-85648995D01*
X122862756Y-85569977D01*
X122862759Y-85569976D01*
X122862761Y-85569975D01*
X123023175Y-85521314D01*
X123023176Y-85521314D01*
X123023179Y-85521313D01*
X123148196Y-85509000D01*
X123231804Y-85509000D01*
X123356821Y-85521313D01*
X123356821Y-85521313D01*
G37*
G36*
X127248228Y-85541703D02*
X127403100Y-85605853D01*
X127542481Y-85698985D01*
X127661015Y-85817519D01*
X127754147Y-85956900D01*
X127818297Y-86111772D01*
X127851000Y-86276184D01*
X127851000Y-86443816D01*
X127818297Y-86608228D01*
X127754147Y-86763100D01*
X127661015Y-86902481D01*
X127542481Y-87021015D01*
X127403100Y-87114147D01*
X127248228Y-87178297D01*
X127083816Y-87211000D01*
X126916184Y-87211000D01*
X126751772Y-87178297D01*
X126596900Y-87114147D01*
X126457519Y-87021015D01*
X126338985Y-86902481D01*
X126245853Y-86763100D01*
X126181703Y-86608228D01*
X126149000Y-86443816D01*
X126149000Y-86276184D01*
X126181703Y-86111772D01*
X126245853Y-85956900D01*
X126338985Y-85817519D01*
X126457519Y-85698985D01*
X126596900Y-85605853D01*
X126751772Y-85541703D01*
X126916184Y-85509000D01*
X127083816Y-85509000D01*
X127248228Y-85541703D01*
X127248228Y-85541703D01*
G37*
G36*
X130920443Y-79115519D02*
X130986627Y-79122037D01*
X131099853Y-79156384D01*
X131156467Y-79173557D01*
X131295087Y-79247652D01*
X131312991Y-79257222D01*
X131348729Y-79286552D01*
X131450186Y-79369814D01*
X131533448Y-79471271D01*
X131562778Y-79507009D01*
X131562779Y-79507011D01*
X131646443Y-79663533D01*
X131646443Y-79663534D01*
X131697963Y-79833373D01*
X131715359Y-80010000D01*
X131697963Y-80186627D01*
X131663616Y-80299853D01*
X131646443Y-80356467D01*
X131572348Y-80495087D01*
X131562778Y-80512991D01*
X131533448Y-80548729D01*
X131450186Y-80650186D01*
X131348729Y-80733448D01*
X131312991Y-80762778D01*
X131312989Y-80762779D01*
X131156467Y-80846443D01*
X131099853Y-80863616D01*
X130986627Y-80897963D01*
X130920442Y-80904482D01*
X130854260Y-80911000D01*
X130765740Y-80911000D01*
X130699558Y-80904482D01*
X130633373Y-80897963D01*
X130520147Y-80863616D01*
X130463533Y-80846443D01*
X130307011Y-80762779D01*
X130307009Y-80762778D01*
X130271271Y-80733448D01*
X130169814Y-80650186D01*
X130086552Y-80548729D01*
X130057222Y-80512991D01*
X130047652Y-80495087D01*
X129973557Y-80356467D01*
X129956384Y-80299853D01*
X129922037Y-80186627D01*
X129904641Y-80010000D01*
X129922037Y-79833373D01*
X129973557Y-79663534D01*
X129973557Y-79663533D01*
X130057221Y-79507011D01*
X130057222Y-79507009D01*
X130086552Y-79471271D01*
X130169814Y-79369814D01*
X130271271Y-79286552D01*
X130307009Y-79257222D01*
X130324913Y-79247652D01*
X130463533Y-79173557D01*
X130520147Y-79156384D01*
X130633373Y-79122037D01*
X130699557Y-79115519D01*
X130765740Y-79109000D01*
X130854260Y-79109000D01*
X130920443Y-79115519D01*
X130920443Y-79115519D01*
G37*
G36*
X128380443Y-79115519D02*
X128446627Y-79122037D01*
X128559853Y-79156384D01*
X128616467Y-79173557D01*
X128755087Y-79247652D01*
X128772991Y-79257222D01*
X128808729Y-79286552D01*
X128910186Y-79369814D01*
X128993448Y-79471271D01*
X129022778Y-79507009D01*
X129022779Y-79507011D01*
X129106443Y-79663533D01*
X129106443Y-79663534D01*
X129157963Y-79833373D01*
X129175359Y-80010000D01*
X129157963Y-80186627D01*
X129123616Y-80299853D01*
X129106443Y-80356467D01*
X129032348Y-80495087D01*
X129022778Y-80512991D01*
X128993448Y-80548729D01*
X128910186Y-80650186D01*
X128808729Y-80733448D01*
X128772991Y-80762778D01*
X128772989Y-80762779D01*
X128616467Y-80846443D01*
X128559853Y-80863616D01*
X128446627Y-80897963D01*
X128380442Y-80904482D01*
X128314260Y-80911000D01*
X128225740Y-80911000D01*
X128159558Y-80904482D01*
X128093373Y-80897963D01*
X127980147Y-80863616D01*
X127923533Y-80846443D01*
X127767011Y-80762779D01*
X127767009Y-80762778D01*
X127731271Y-80733448D01*
X127629814Y-80650186D01*
X127546552Y-80548729D01*
X127517222Y-80512991D01*
X127507652Y-80495087D01*
X127433557Y-80356467D01*
X127416384Y-80299853D01*
X127382037Y-80186627D01*
X127364641Y-80010000D01*
X127382037Y-79833373D01*
X127433557Y-79663534D01*
X127433557Y-79663533D01*
X127517221Y-79507011D01*
X127517222Y-79507009D01*
X127546552Y-79471271D01*
X127629814Y-79369814D01*
X127731271Y-79286552D01*
X127767009Y-79257222D01*
X127784913Y-79247652D01*
X127923533Y-79173557D01*
X127980147Y-79156384D01*
X128093373Y-79122037D01*
X128159557Y-79115519D01*
X128225740Y-79109000D01*
X128314260Y-79109000D01*
X128380443Y-79115519D01*
X128380443Y-79115519D01*
G37*
G36*
X125840443Y-79115519D02*
X125906627Y-79122037D01*
X126019853Y-79156384D01*
X126076467Y-79173557D01*
X126215087Y-79247652D01*
X126232991Y-79257222D01*
X126268729Y-79286552D01*
X126370186Y-79369814D01*
X126453448Y-79471271D01*
X126482778Y-79507009D01*
X126482779Y-79507011D01*
X126566443Y-79663533D01*
X126566443Y-79663534D01*
X126617963Y-79833373D01*
X126635359Y-80010000D01*
X126617963Y-80186627D01*
X126583616Y-80299853D01*
X126566443Y-80356467D01*
X126492348Y-80495087D01*
X126482778Y-80512991D01*
X126453448Y-80548729D01*
X126370186Y-80650186D01*
X126268729Y-80733448D01*
X126232991Y-80762778D01*
X126232989Y-80762779D01*
X126076467Y-80846443D01*
X126019853Y-80863616D01*
X125906627Y-80897963D01*
X125840442Y-80904482D01*
X125774260Y-80911000D01*
X125685740Y-80911000D01*
X125619558Y-80904482D01*
X125553373Y-80897963D01*
X125440147Y-80863616D01*
X125383533Y-80846443D01*
X125227011Y-80762779D01*
X125227009Y-80762778D01*
X125191271Y-80733448D01*
X125089814Y-80650186D01*
X125006552Y-80548729D01*
X124977222Y-80512991D01*
X124967652Y-80495087D01*
X124893557Y-80356467D01*
X124876384Y-80299853D01*
X124842037Y-80186627D01*
X124824641Y-80010000D01*
X124842037Y-79833373D01*
X124893557Y-79663534D01*
X124893557Y-79663533D01*
X124977221Y-79507011D01*
X124977222Y-79507009D01*
X125006552Y-79471271D01*
X125089814Y-79369814D01*
X125191271Y-79286552D01*
X125227009Y-79257222D01*
X125244913Y-79247652D01*
X125383533Y-79173557D01*
X125440147Y-79156384D01*
X125553373Y-79122037D01*
X125619557Y-79115519D01*
X125685740Y-79109000D01*
X125774260Y-79109000D01*
X125840443Y-79115519D01*
X125840443Y-79115519D01*
G37*
G36*
X123300443Y-79115519D02*
X123366627Y-79122037D01*
X123479853Y-79156384D01*
X123536467Y-79173557D01*
X123675087Y-79247652D01*
X123692991Y-79257222D01*
X123728729Y-79286552D01*
X123830186Y-79369814D01*
X123913448Y-79471271D01*
X123942778Y-79507009D01*
X123942779Y-79507011D01*
X124026443Y-79663533D01*
X124026443Y-79663534D01*
X124077963Y-79833373D01*
X124095359Y-80010000D01*
X124077963Y-80186627D01*
X124043616Y-80299853D01*
X124026443Y-80356467D01*
X123952348Y-80495087D01*
X123942778Y-80512991D01*
X123913448Y-80548729D01*
X123830186Y-80650186D01*
X123728729Y-80733448D01*
X123692991Y-80762778D01*
X123692989Y-80762779D01*
X123536467Y-80846443D01*
X123479853Y-80863616D01*
X123366627Y-80897963D01*
X123300442Y-80904482D01*
X123234260Y-80911000D01*
X123145740Y-80911000D01*
X123079558Y-80904482D01*
X123013373Y-80897963D01*
X122900147Y-80863616D01*
X122843533Y-80846443D01*
X122687011Y-80762779D01*
X122687009Y-80762778D01*
X122651271Y-80733448D01*
X122549814Y-80650186D01*
X122466552Y-80548729D01*
X122437222Y-80512991D01*
X122427652Y-80495087D01*
X122353557Y-80356467D01*
X122336384Y-80299853D01*
X122302037Y-80186627D01*
X122284641Y-80010000D01*
X122302037Y-79833373D01*
X122353557Y-79663534D01*
X122353557Y-79663533D01*
X122437221Y-79507011D01*
X122437222Y-79507009D01*
X122466552Y-79471271D01*
X122549814Y-79369814D01*
X122651271Y-79286552D01*
X122687009Y-79257222D01*
X122704913Y-79247652D01*
X122843533Y-79173557D01*
X122900147Y-79156384D01*
X123013373Y-79122037D01*
X123079557Y-79115519D01*
X123145740Y-79109000D01*
X123234260Y-79109000D01*
X123300443Y-79115519D01*
X123300443Y-79115519D01*
G37*
G36*
X120760443Y-79115519D02*
X120826627Y-79122037D01*
X120939853Y-79156384D01*
X120996467Y-79173557D01*
X121135087Y-79247652D01*
X121152991Y-79257222D01*
X121188729Y-79286552D01*
X121290186Y-79369814D01*
X121373448Y-79471271D01*
X121402778Y-79507009D01*
X121402779Y-79507011D01*
X121486443Y-79663533D01*
X121486443Y-79663534D01*
X121537963Y-79833373D01*
X121555359Y-80010000D01*
X121537963Y-80186627D01*
X121503616Y-80299853D01*
X121486443Y-80356467D01*
X121412348Y-80495087D01*
X121402778Y-80512991D01*
X121373448Y-80548729D01*
X121290186Y-80650186D01*
X121188729Y-80733448D01*
X121152991Y-80762778D01*
X121152989Y-80762779D01*
X120996467Y-80846443D01*
X120939853Y-80863616D01*
X120826627Y-80897963D01*
X120760442Y-80904482D01*
X120694260Y-80911000D01*
X120605740Y-80911000D01*
X120539558Y-80904482D01*
X120473373Y-80897963D01*
X120360147Y-80863616D01*
X120303533Y-80846443D01*
X120147011Y-80762779D01*
X120147009Y-80762778D01*
X120111271Y-80733448D01*
X120009814Y-80650186D01*
X119926552Y-80548729D01*
X119897222Y-80512991D01*
X119887652Y-80495087D01*
X119813557Y-80356467D01*
X119796384Y-80299853D01*
X119762037Y-80186627D01*
X119744641Y-80010000D01*
X119762037Y-79833373D01*
X119813557Y-79663534D01*
X119813557Y-79663533D01*
X119897221Y-79507011D01*
X119897222Y-79507009D01*
X119926552Y-79471271D01*
X120009814Y-79369814D01*
X120111271Y-79286552D01*
X120147009Y-79257222D01*
X120164913Y-79247652D01*
X120303533Y-79173557D01*
X120360147Y-79156384D01*
X120473373Y-79122037D01*
X120539557Y-79115519D01*
X120605740Y-79109000D01*
X120694260Y-79109000D01*
X120760443Y-79115519D01*
X120760443Y-79115519D01*
G37*
G36*
X119011000Y-80911000D02*
X117209000Y-80911000D01*
X117209000Y-79109000D01*
X119011000Y-79109000D01*
X119011000Y-80911000D01*
X119011000Y-80911000D01*
G37*
M02*
