G04 #@! TF.GenerationSoftware,KiCad,Pcbnew,5.0.1-33cea8e~68~ubuntu18.04.1*
G04 #@! TF.CreationDate,2018-11-12T23:59:36+00:00*
G04 #@! TF.ProjectId,h-bridge,682D6272696467652E6B696361645F70,rev?*
G04 #@! TF.SameCoordinates,Original*
G04 #@! TF.FileFunction,Legend,Top*
G04 #@! TF.FilePolarity,Positive*
%FSLAX46Y46*%
G04 Gerber Fmt 4.6, Leading zero omitted, Abs format (unit mm)*
G04 Created by KiCad (PCBNEW 5.0.1-33cea8e~68~ubuntu18.04.1) date Mon 12 Nov 2018 23:59:36 GMT*
%MOMM*%
%LPD*%
G01*
G04 APERTURE LIST*
%ADD10C,0.150000*%
%ADD11C,0.300000*%
%ADD12C,0.120000*%
G04 APERTURE END LIST*
D10*
X142422857Y-121372380D02*
X142613333Y-121372380D01*
X142708571Y-121420000D01*
X142803809Y-121515238D01*
X142851428Y-121705714D01*
X142851428Y-122039047D01*
X142803809Y-122229523D01*
X142708571Y-122324761D01*
X142613333Y-122372380D01*
X142422857Y-122372380D01*
X142327619Y-122324761D01*
X142232380Y-122229523D01*
X142184761Y-122039047D01*
X142184761Y-121705714D01*
X142232380Y-121515238D01*
X142327619Y-121420000D01*
X142422857Y-121372380D01*
X143280000Y-121372380D02*
X143280000Y-122181904D01*
X143327619Y-122277142D01*
X143375238Y-122324761D01*
X143470476Y-122372380D01*
X143660952Y-122372380D01*
X143756190Y-122324761D01*
X143803809Y-122277142D01*
X143851428Y-122181904D01*
X143851428Y-121372380D01*
X144184761Y-121372380D02*
X144756190Y-121372380D01*
X144470476Y-122372380D02*
X144470476Y-121372380D01*
X144851428Y-122467619D02*
X145613333Y-122467619D01*
X146184761Y-121848571D02*
X146327619Y-121896190D01*
X146375238Y-121943809D01*
X146422857Y-122039047D01*
X146422857Y-122181904D01*
X146375238Y-122277142D01*
X146327619Y-122324761D01*
X146232380Y-122372380D01*
X145851428Y-122372380D01*
X145851428Y-121372380D01*
X146184761Y-121372380D01*
X146280000Y-121420000D01*
X146327619Y-121467619D01*
X146375238Y-121562857D01*
X146375238Y-121658095D01*
X146327619Y-121753333D01*
X146280000Y-121800952D01*
X146184761Y-121848571D01*
X145851428Y-121848571D01*
X146803809Y-121467619D02*
X146851428Y-121420000D01*
X146946666Y-121372380D01*
X147184761Y-121372380D01*
X147280000Y-121420000D01*
X147327619Y-121467619D01*
X147375238Y-121562857D01*
X147375238Y-121658095D01*
X147327619Y-121800952D01*
X146756190Y-122372380D01*
X147375238Y-122372380D01*
X103124285Y-121372380D02*
X103314761Y-121372380D01*
X103410000Y-121420000D01*
X103505238Y-121515238D01*
X103552857Y-121705714D01*
X103552857Y-122039047D01*
X103505238Y-122229523D01*
X103410000Y-122324761D01*
X103314761Y-122372380D01*
X103124285Y-122372380D01*
X103029047Y-122324761D01*
X102933809Y-122229523D01*
X102886190Y-122039047D01*
X102886190Y-121705714D01*
X102933809Y-121515238D01*
X103029047Y-121420000D01*
X103124285Y-121372380D01*
X103981428Y-121372380D02*
X103981428Y-122181904D01*
X104029047Y-122277142D01*
X104076666Y-122324761D01*
X104171904Y-122372380D01*
X104362380Y-122372380D01*
X104457619Y-122324761D01*
X104505238Y-122277142D01*
X104552857Y-122181904D01*
X104552857Y-121372380D01*
X104886190Y-121372380D02*
X105457619Y-121372380D01*
X105171904Y-122372380D02*
X105171904Y-121372380D01*
X105552857Y-122467619D02*
X106314761Y-122467619D01*
X106505238Y-122086666D02*
X106981428Y-122086666D01*
X106410000Y-122372380D02*
X106743333Y-121372380D01*
X107076666Y-122372380D01*
X107362380Y-121467619D02*
X107410000Y-121420000D01*
X107505238Y-121372380D01*
X107743333Y-121372380D01*
X107838571Y-121420000D01*
X107886190Y-121467619D01*
X107933809Y-121562857D01*
X107933809Y-121658095D01*
X107886190Y-121800952D01*
X107314761Y-122372380D01*
X107933809Y-122372380D01*
X142422857Y-112482380D02*
X142613333Y-112482380D01*
X142708571Y-112530000D01*
X142803809Y-112625238D01*
X142851428Y-112815714D01*
X142851428Y-113149047D01*
X142803809Y-113339523D01*
X142708571Y-113434761D01*
X142613333Y-113482380D01*
X142422857Y-113482380D01*
X142327619Y-113434761D01*
X142232380Y-113339523D01*
X142184761Y-113149047D01*
X142184761Y-112815714D01*
X142232380Y-112625238D01*
X142327619Y-112530000D01*
X142422857Y-112482380D01*
X143280000Y-112482380D02*
X143280000Y-113291904D01*
X143327619Y-113387142D01*
X143375238Y-113434761D01*
X143470476Y-113482380D01*
X143660952Y-113482380D01*
X143756190Y-113434761D01*
X143803809Y-113387142D01*
X143851428Y-113291904D01*
X143851428Y-112482380D01*
X144184761Y-112482380D02*
X144756190Y-112482380D01*
X144470476Y-113482380D02*
X144470476Y-112482380D01*
X144851428Y-113577619D02*
X145613333Y-113577619D01*
X146184761Y-112958571D02*
X146327619Y-113006190D01*
X146375238Y-113053809D01*
X146422857Y-113149047D01*
X146422857Y-113291904D01*
X146375238Y-113387142D01*
X146327619Y-113434761D01*
X146232380Y-113482380D01*
X145851428Y-113482380D01*
X145851428Y-112482380D01*
X146184761Y-112482380D01*
X146280000Y-112530000D01*
X146327619Y-112577619D01*
X146375238Y-112672857D01*
X146375238Y-112768095D01*
X146327619Y-112863333D01*
X146280000Y-112910952D01*
X146184761Y-112958571D01*
X145851428Y-112958571D01*
X147375238Y-113482380D02*
X146803809Y-113482380D01*
X147089523Y-113482380D02*
X147089523Y-112482380D01*
X146994285Y-112625238D01*
X146899047Y-112720476D01*
X146803809Y-112768095D01*
X103124285Y-112482380D02*
X103314761Y-112482380D01*
X103410000Y-112530000D01*
X103505238Y-112625238D01*
X103552857Y-112815714D01*
X103552857Y-113149047D01*
X103505238Y-113339523D01*
X103410000Y-113434761D01*
X103314761Y-113482380D01*
X103124285Y-113482380D01*
X103029047Y-113434761D01*
X102933809Y-113339523D01*
X102886190Y-113149047D01*
X102886190Y-112815714D01*
X102933809Y-112625238D01*
X103029047Y-112530000D01*
X103124285Y-112482380D01*
X103981428Y-112482380D02*
X103981428Y-113291904D01*
X104029047Y-113387142D01*
X104076666Y-113434761D01*
X104171904Y-113482380D01*
X104362380Y-113482380D01*
X104457619Y-113434761D01*
X104505238Y-113387142D01*
X104552857Y-113291904D01*
X104552857Y-112482380D01*
X104886190Y-112482380D02*
X105457619Y-112482380D01*
X105171904Y-113482380D02*
X105171904Y-112482380D01*
X105552857Y-113577619D02*
X106314761Y-113577619D01*
X106505238Y-113196666D02*
X106981428Y-113196666D01*
X106410000Y-113482380D02*
X106743333Y-112482380D01*
X107076666Y-113482380D01*
X107933809Y-113482380D02*
X107362380Y-113482380D01*
X107648095Y-113482380D02*
X107648095Y-112482380D01*
X107552857Y-112625238D01*
X107457619Y-112720476D01*
X107362380Y-112768095D01*
X116699047Y-77255714D02*
X116699047Y-78255714D01*
X116699047Y-77303333D02*
X116794285Y-77255714D01*
X116984761Y-77255714D01*
X117080000Y-77303333D01*
X117127619Y-77350952D01*
X117175238Y-77446190D01*
X117175238Y-77731904D01*
X117127619Y-77827142D01*
X117080000Y-77874761D01*
X116984761Y-77922380D01*
X116794285Y-77922380D01*
X116699047Y-77874761D01*
X117603809Y-77922380D02*
X117603809Y-77255714D01*
X117603809Y-76922380D02*
X117556190Y-76970000D01*
X117603809Y-77017619D01*
X117651428Y-76970000D01*
X117603809Y-76922380D01*
X117603809Y-77017619D01*
X118080000Y-77255714D02*
X118080000Y-77922380D01*
X118080000Y-77350952D02*
X118127619Y-77303333D01*
X118222857Y-77255714D01*
X118365714Y-77255714D01*
X118460952Y-77303333D01*
X118508571Y-77398571D01*
X118508571Y-77922380D01*
X118937142Y-77874761D02*
X119032380Y-77922380D01*
X119222857Y-77922380D01*
X119318095Y-77874761D01*
X119365714Y-77779523D01*
X119365714Y-77731904D01*
X119318095Y-77636666D01*
X119222857Y-77589047D01*
X119080000Y-77589047D01*
X118984761Y-77541428D01*
X118937142Y-77446190D01*
X118937142Y-77398571D01*
X118984761Y-77303333D01*
X119080000Y-77255714D01*
X119222857Y-77255714D01*
X119318095Y-77303333D01*
X119794285Y-77827142D02*
X119841904Y-77874761D01*
X119794285Y-77922380D01*
X119746666Y-77874761D01*
X119794285Y-77827142D01*
X119794285Y-77922380D01*
X119794285Y-77303333D02*
X119841904Y-77350952D01*
X119794285Y-77398571D01*
X119746666Y-77350952D01*
X119794285Y-77303333D01*
X119794285Y-77398571D01*
X121032380Y-77541428D02*
X121794285Y-77541428D01*
X121413333Y-77922380D02*
X121413333Y-77160476D01*
X122175238Y-77255714D02*
X122413333Y-77922380D01*
X122651428Y-77255714D01*
X123080000Y-77874761D02*
X123080000Y-77922380D01*
X123032380Y-78017619D01*
X122984761Y-78065238D01*
X124699047Y-77255714D02*
X124699047Y-78065238D01*
X124651428Y-78160476D01*
X124603809Y-78208095D01*
X124508571Y-78255714D01*
X124365714Y-78255714D01*
X124270476Y-78208095D01*
X124699047Y-77874761D02*
X124603809Y-77922380D01*
X124413333Y-77922380D01*
X124318095Y-77874761D01*
X124270476Y-77827142D01*
X124222857Y-77731904D01*
X124222857Y-77446190D01*
X124270476Y-77350952D01*
X124318095Y-77303333D01*
X124413333Y-77255714D01*
X124603809Y-77255714D01*
X124699047Y-77303333D01*
X125175238Y-77255714D02*
X125175238Y-77922380D01*
X125175238Y-77350952D02*
X125222857Y-77303333D01*
X125318095Y-77255714D01*
X125460952Y-77255714D01*
X125556190Y-77303333D01*
X125603809Y-77398571D01*
X125603809Y-77922380D01*
X126508571Y-77922380D02*
X126508571Y-76922380D01*
X126508571Y-77874761D02*
X126413333Y-77922380D01*
X126222857Y-77922380D01*
X126127619Y-77874761D01*
X126080000Y-77827142D01*
X126032380Y-77731904D01*
X126032380Y-77446190D01*
X126080000Y-77350952D01*
X126127619Y-77303333D01*
X126222857Y-77255714D01*
X126413333Y-77255714D01*
X126508571Y-77303333D01*
X127032380Y-77874761D02*
X127032380Y-77922380D01*
X126984761Y-78017619D01*
X126937142Y-78065238D01*
X128222857Y-77922380D02*
X128222857Y-77255714D01*
X128222857Y-76922380D02*
X128175238Y-76970000D01*
X128222857Y-77017619D01*
X128270476Y-76970000D01*
X128222857Y-76922380D01*
X128222857Y-77017619D01*
X128699047Y-77255714D02*
X128699047Y-77922380D01*
X128699047Y-77350952D02*
X128746666Y-77303333D01*
X128841904Y-77255714D01*
X128984761Y-77255714D01*
X129080000Y-77303333D01*
X129127619Y-77398571D01*
X129127619Y-77922380D01*
X129365714Y-78017619D02*
X130127619Y-78017619D01*
X130794285Y-77922380D02*
X130794285Y-77398571D01*
X130746666Y-77303333D01*
X130651428Y-77255714D01*
X130460952Y-77255714D01*
X130365714Y-77303333D01*
X130794285Y-77874761D02*
X130699047Y-77922380D01*
X130460952Y-77922380D01*
X130365714Y-77874761D01*
X130318095Y-77779523D01*
X130318095Y-77684285D01*
X130365714Y-77589047D01*
X130460952Y-77541428D01*
X130699047Y-77541428D01*
X130794285Y-77493809D01*
X131794285Y-77922380D02*
X131222857Y-77922380D01*
X131508571Y-77922380D02*
X131508571Y-76922380D01*
X131413333Y-77065238D01*
X131318095Y-77160476D01*
X131222857Y-77208095D01*
X132270476Y-77874761D02*
X132270476Y-77922380D01*
X132222857Y-78017619D01*
X132175238Y-78065238D01*
X133460952Y-77922380D02*
X133460952Y-77255714D01*
X133460952Y-76922380D02*
X133413333Y-76970000D01*
X133460952Y-77017619D01*
X133508571Y-76970000D01*
X133460952Y-76922380D01*
X133460952Y-77017619D01*
X133937142Y-77255714D02*
X133937142Y-77922380D01*
X133937142Y-77350952D02*
X133984761Y-77303333D01*
X134080000Y-77255714D01*
X134222857Y-77255714D01*
X134318095Y-77303333D01*
X134365714Y-77398571D01*
X134365714Y-77922380D01*
X134603809Y-78017619D02*
X135365714Y-78017619D01*
X136032380Y-77922380D02*
X136032380Y-77398571D01*
X135984761Y-77303333D01*
X135889523Y-77255714D01*
X135699047Y-77255714D01*
X135603809Y-77303333D01*
X136032380Y-77874761D02*
X135937142Y-77922380D01*
X135699047Y-77922380D01*
X135603809Y-77874761D01*
X135556190Y-77779523D01*
X135556190Y-77684285D01*
X135603809Y-77589047D01*
X135699047Y-77541428D01*
X135937142Y-77541428D01*
X136032380Y-77493809D01*
X136460952Y-77017619D02*
X136508571Y-76970000D01*
X136603809Y-76922380D01*
X136841904Y-76922380D01*
X136937142Y-76970000D01*
X136984761Y-77017619D01*
X137032380Y-77112857D01*
X137032380Y-77208095D01*
X136984761Y-77350952D01*
X136413333Y-77922380D01*
X137032380Y-77922380D01*
X137508571Y-77874761D02*
X137508571Y-77922380D01*
X137460952Y-78017619D01*
X137413333Y-78065238D01*
X138699047Y-77922380D02*
X138699047Y-77255714D01*
X138699047Y-76922380D02*
X138651428Y-76970000D01*
X138699047Y-77017619D01*
X138746666Y-76970000D01*
X138699047Y-76922380D01*
X138699047Y-77017619D01*
X139175238Y-77255714D02*
X139175238Y-77922380D01*
X139175238Y-77350952D02*
X139222857Y-77303333D01*
X139318095Y-77255714D01*
X139460952Y-77255714D01*
X139556190Y-77303333D01*
X139603809Y-77398571D01*
X139603809Y-77922380D01*
X139841904Y-78017619D02*
X140603809Y-78017619D01*
X140841904Y-77922380D02*
X140841904Y-76922380D01*
X140841904Y-77303333D02*
X140937142Y-77255714D01*
X141127619Y-77255714D01*
X141222857Y-77303333D01*
X141270476Y-77350952D01*
X141318095Y-77446190D01*
X141318095Y-77731904D01*
X141270476Y-77827142D01*
X141222857Y-77874761D01*
X141127619Y-77922380D01*
X140937142Y-77922380D01*
X140841904Y-77874761D01*
X142270476Y-77922380D02*
X141699047Y-77922380D01*
X141984761Y-77922380D02*
X141984761Y-76922380D01*
X141889523Y-77065238D01*
X141794285Y-77160476D01*
X141699047Y-77208095D01*
X142746666Y-77874761D02*
X142746666Y-77922380D01*
X142699047Y-78017619D01*
X142651428Y-78065238D01*
X143937142Y-77922380D02*
X143937142Y-77255714D01*
X143937142Y-76922380D02*
X143889523Y-76970000D01*
X143937142Y-77017619D01*
X143984761Y-76970000D01*
X143937142Y-76922380D01*
X143937142Y-77017619D01*
X144413333Y-77255714D02*
X144413333Y-77922380D01*
X144413333Y-77350952D02*
X144460952Y-77303333D01*
X144556190Y-77255714D01*
X144699047Y-77255714D01*
X144794285Y-77303333D01*
X144841904Y-77398571D01*
X144841904Y-77922380D01*
X145080000Y-78017619D02*
X145841904Y-78017619D01*
X146080000Y-77922380D02*
X146080000Y-76922380D01*
X146080000Y-77303333D02*
X146175238Y-77255714D01*
X146365714Y-77255714D01*
X146460952Y-77303333D01*
X146508571Y-77350952D01*
X146556190Y-77446190D01*
X146556190Y-77731904D01*
X146508571Y-77827142D01*
X146460952Y-77874761D01*
X146365714Y-77922380D01*
X146175238Y-77922380D01*
X146080000Y-77874761D01*
X146937142Y-77017619D02*
X146984761Y-76970000D01*
X147080000Y-76922380D01*
X147318095Y-76922380D01*
X147413333Y-76970000D01*
X147460952Y-77017619D01*
X147508571Y-77112857D01*
X147508571Y-77208095D01*
X147460952Y-77350952D01*
X146889523Y-77922380D01*
X147508571Y-77922380D01*
D11*
X124352857Y-146798571D02*
X124352857Y-146298571D01*
X125138571Y-146084285D02*
X125138571Y-146798571D01*
X123638571Y-146798571D01*
X123638571Y-146084285D01*
X125138571Y-145227142D02*
X125067142Y-145370000D01*
X124924285Y-145441428D01*
X123638571Y-145441428D01*
X125138571Y-144655714D02*
X123638571Y-144655714D01*
X124567142Y-144512857D02*
X125138571Y-144084285D01*
X124138571Y-144084285D02*
X124710000Y-144655714D01*
X125067142Y-143512857D02*
X125138571Y-143370000D01*
X125138571Y-143084285D01*
X125067142Y-142941428D01*
X124924285Y-142870000D01*
X124852857Y-142870000D01*
X124710000Y-142941428D01*
X124638571Y-143084285D01*
X124638571Y-143298571D01*
X124567142Y-143441428D01*
X124424285Y-143512857D01*
X124352857Y-143512857D01*
X124210000Y-143441428D01*
X124138571Y-143298571D01*
X124138571Y-143084285D01*
X124210000Y-142941428D01*
X124138571Y-142227142D02*
X125138571Y-142227142D01*
X124281428Y-142227142D02*
X124210000Y-142155714D01*
X124138571Y-142012857D01*
X124138571Y-141798571D01*
X124210000Y-141655714D01*
X124352857Y-141584285D01*
X125138571Y-141584285D01*
X125138571Y-140870000D02*
X124138571Y-140870000D01*
X123638571Y-140870000D02*
X123710000Y-140941428D01*
X123781428Y-140870000D01*
X123710000Y-140798571D01*
X123638571Y-140870000D01*
X123781428Y-140870000D01*
X125067142Y-140227142D02*
X125138571Y-140084285D01*
X125138571Y-139798571D01*
X125067142Y-139655714D01*
X124924285Y-139584285D01*
X124852857Y-139584285D01*
X124710000Y-139655714D01*
X124638571Y-139798571D01*
X124638571Y-140012857D01*
X124567142Y-140155714D01*
X124424285Y-140227142D01*
X124352857Y-140227142D01*
X124210000Y-140155714D01*
X124138571Y-140012857D01*
X124138571Y-139798571D01*
X124210000Y-139655714D01*
X125138571Y-137798571D02*
X123638571Y-137798571D01*
X125138571Y-137155714D02*
X124352857Y-137155714D01*
X124210000Y-137227142D01*
X124138571Y-137370000D01*
X124138571Y-137584285D01*
X124210000Y-137727142D01*
X124281428Y-137798571D01*
X124567142Y-136441428D02*
X124567142Y-135298571D01*
X125138571Y-134584285D02*
X123638571Y-134584285D01*
X124210000Y-134584285D02*
X124138571Y-134441428D01*
X124138571Y-134155714D01*
X124210000Y-134012857D01*
X124281428Y-133941428D01*
X124424285Y-133870000D01*
X124852857Y-133870000D01*
X124995714Y-133941428D01*
X125067142Y-134012857D01*
X125138571Y-134155714D01*
X125138571Y-134441428D01*
X125067142Y-134584285D01*
X125138571Y-133227142D02*
X124138571Y-133227142D01*
X124424285Y-133227142D02*
X124281428Y-133155714D01*
X124210000Y-133084285D01*
X124138571Y-132941428D01*
X124138571Y-132798571D01*
X125138571Y-132298571D02*
X124138571Y-132298571D01*
X123638571Y-132298571D02*
X123710000Y-132370000D01*
X123781428Y-132298571D01*
X123710000Y-132227142D01*
X123638571Y-132298571D01*
X123781428Y-132298571D01*
X125138571Y-130941428D02*
X123638571Y-130941428D01*
X125067142Y-130941428D02*
X125138571Y-131084285D01*
X125138571Y-131370000D01*
X125067142Y-131512857D01*
X124995714Y-131584285D01*
X124852857Y-131655714D01*
X124424285Y-131655714D01*
X124281428Y-131584285D01*
X124210000Y-131512857D01*
X124138571Y-131370000D01*
X124138571Y-131084285D01*
X124210000Y-130941428D01*
X124138571Y-129584285D02*
X125352857Y-129584285D01*
X125495714Y-129655714D01*
X125567142Y-129727142D01*
X125638571Y-129870000D01*
X125638571Y-130084285D01*
X125567142Y-130227142D01*
X125067142Y-129584285D02*
X125138571Y-129727142D01*
X125138571Y-130012857D01*
X125067142Y-130155714D01*
X124995714Y-130227142D01*
X124852857Y-130298571D01*
X124424285Y-130298571D01*
X124281428Y-130227142D01*
X124210000Y-130155714D01*
X124138571Y-130012857D01*
X124138571Y-129727142D01*
X124210000Y-129584285D01*
X125067142Y-128298571D02*
X125138571Y-128441428D01*
X125138571Y-128727142D01*
X125067142Y-128870000D01*
X124924285Y-128941428D01*
X124352857Y-128941428D01*
X124210000Y-128870000D01*
X124138571Y-128727142D01*
X124138571Y-128441428D01*
X124210000Y-128298571D01*
X124352857Y-128227142D01*
X124495714Y-128227142D01*
X124638571Y-128941428D01*
X124138571Y-126584285D02*
X125138571Y-126227142D01*
X124138571Y-125870000D01*
X125138571Y-124512857D02*
X125138571Y-125370000D01*
X125138571Y-124941428D02*
X123638571Y-124941428D01*
X123852857Y-125084285D01*
X123995714Y-125227142D01*
X124067142Y-125370000D01*
X124995714Y-123870000D02*
X125067142Y-123798571D01*
X125138571Y-123870000D01*
X125067142Y-123941428D01*
X124995714Y-123870000D01*
X125138571Y-123870000D01*
X123638571Y-122870000D02*
X123638571Y-122727142D01*
X123710000Y-122584285D01*
X123781428Y-122512857D01*
X123924285Y-122441428D01*
X124210000Y-122370000D01*
X124567142Y-122370000D01*
X124852857Y-122441428D01*
X124995714Y-122512857D01*
X125067142Y-122584285D01*
X125138571Y-122727142D01*
X125138571Y-122870000D01*
X125067142Y-123012857D01*
X124995714Y-123084285D01*
X124852857Y-123155714D01*
X124567142Y-123227142D01*
X124210000Y-123227142D01*
X123924285Y-123155714D01*
X123781428Y-123084285D01*
X123710000Y-123012857D01*
X123638571Y-122870000D01*
D12*
G04 #@! TO.C,J5*
X106740000Y-119440000D02*
X105410000Y-119440000D01*
X106740000Y-118110000D02*
X106740000Y-119440000D01*
X106740000Y-116840000D02*
X104080000Y-116840000D01*
X104080000Y-116840000D02*
X104080000Y-114240000D01*
X106740000Y-116840000D02*
X106740000Y-114240000D01*
X106740000Y-114240000D02*
X104080000Y-114240000D01*
G04 #@! TO.C,J6*
X146110000Y-114240000D02*
X143450000Y-114240000D01*
X146110000Y-116840000D02*
X146110000Y-114240000D01*
X143450000Y-116840000D02*
X143450000Y-114240000D01*
X146110000Y-116840000D02*
X143450000Y-116840000D01*
X146110000Y-118110000D02*
X146110000Y-119440000D01*
X146110000Y-119440000D02*
X144780000Y-119440000D01*
G04 #@! TO.C,J4*
X132140000Y-81340000D02*
X132140000Y-78680000D01*
X119380000Y-81340000D02*
X132140000Y-81340000D01*
X119380000Y-78680000D02*
X132140000Y-78680000D01*
X119380000Y-81340000D02*
X119380000Y-78680000D01*
X118110000Y-81340000D02*
X116780000Y-81340000D01*
X116780000Y-81340000D02*
X116780000Y-80010000D01*
G04 #@! TO.C,R1*
X123190000Y-90070000D02*
X123190000Y-87460000D01*
X124560000Y-91440000D02*
G75*
G03X124560000Y-91440000I-1370000J0D01*
G01*
G04 #@! TO.C,R4*
X124560000Y-100330000D02*
G75*
G03X124560000Y-100330000I-1370000J0D01*
G01*
X123190000Y-101700000D02*
X123190000Y-104310000D01*
G04 #@! TO.C,R5*
X127000000Y-104040000D02*
X127000000Y-101430000D01*
X128370000Y-105410000D02*
G75*
G03X128370000Y-105410000I-1370000J0D01*
G01*
G04 #@! TO.C,R8*
X128370000Y-86360000D02*
G75*
G03X128370000Y-86360000I-1370000J0D01*
G01*
X127000000Y-87730000D02*
X127000000Y-90340000D01*
G04 #@! TO.C,Q20*
X144564184Y-96372795D02*
G75*
G02X144040000Y-97100000I-2324184J1122795D01*
G01*
X144596400Y-94151193D02*
G75*
G03X142240000Y-92650000I-2356400J-1098807D01*
G01*
X139883600Y-94151193D02*
G75*
G02X142240000Y-92650000I2356400J-1098807D01*
G01*
X139915816Y-96372795D02*
G75*
G03X140440000Y-97100000I2324184J1122795D01*
G01*
X140440000Y-97100000D02*
X144040000Y-97100000D01*
G04 #@! TO.C,Q19*
X139170000Y-149170000D02*
X142770000Y-149170000D01*
X138645816Y-148442795D02*
G75*
G03X139170000Y-149170000I2324184J1122795D01*
G01*
X138613600Y-146221193D02*
G75*
G02X140970000Y-144720000I2356400J-1098807D01*
G01*
X143326400Y-146221193D02*
G75*
G03X140970000Y-144720000I-2356400J-1098807D01*
G01*
X143294184Y-148442795D02*
G75*
G02X142770000Y-149170000I-2324184J1122795D01*
G01*
G04 #@! TO.C,Q21*
X144564184Y-88752795D02*
G75*
G02X144040000Y-89480000I-2324184J1122795D01*
G01*
X144596400Y-86531193D02*
G75*
G03X142240000Y-85030000I-2356400J-1098807D01*
G01*
X139883600Y-86531193D02*
G75*
G02X142240000Y-85030000I2356400J-1098807D01*
G01*
X139915816Y-88752795D02*
G75*
G03X140440000Y-89480000I2324184J1122795D01*
G01*
X140440000Y-89480000D02*
X144040000Y-89480000D01*
G04 #@! TO.C,Q22*
X135150000Y-85780000D02*
X131550000Y-85780000D01*
X135674184Y-86507205D02*
G75*
G03X135150000Y-85780000I-2324184J-1122795D01*
G01*
X135706400Y-88728807D02*
G75*
G02X133350000Y-90230000I-2356400J1098807D01*
G01*
X130993600Y-88728807D02*
G75*
G03X133350000Y-90230000I2356400J1098807D01*
G01*
X131025816Y-86507205D02*
G75*
G02X131550000Y-85780000I2324184J-1122795D01*
G01*
G04 #@! TO.C,Q23*
X131025816Y-94127205D02*
G75*
G02X131550000Y-93400000I2324184J-1122795D01*
G01*
X130993600Y-96348807D02*
G75*
G03X133350000Y-97850000I2356400J1098807D01*
G01*
X135706400Y-96348807D02*
G75*
G02X133350000Y-97850000I-2356400J1098807D01*
G01*
X135674184Y-94127205D02*
G75*
G03X135150000Y-93400000I-2324184J-1122795D01*
G01*
X135150000Y-93400000D02*
X131550000Y-93400000D01*
G04 #@! TO.C,Q24*
X133880000Y-145470000D02*
X130280000Y-145470000D01*
X134404184Y-146197205D02*
G75*
G03X133880000Y-145470000I-2324184J-1122795D01*
G01*
X134436400Y-148418807D02*
G75*
G02X132080000Y-149920000I-2356400J1098807D01*
G01*
X129723600Y-148418807D02*
G75*
G03X132080000Y-149920000I2356400J1098807D01*
G01*
X129755816Y-146197205D02*
G75*
G02X130280000Y-145470000I2324184J-1122795D01*
G01*
G04 #@! TO.C,Q25*
X131025816Y-101747205D02*
G75*
G02X131550000Y-101020000I2324184J-1122795D01*
G01*
X130993600Y-103968807D02*
G75*
G03X133350000Y-105470000I2356400J1098807D01*
G01*
X135706400Y-103968807D02*
G75*
G02X133350000Y-105470000I-2356400J1098807D01*
G01*
X135674184Y-101747205D02*
G75*
G03X135150000Y-101020000I-2324184J-1122795D01*
G01*
X135150000Y-101020000D02*
X131550000Y-101020000D01*
G04 #@! TO.C,Q26*
X133880000Y-137850000D02*
X130280000Y-137850000D01*
X134404184Y-138577205D02*
G75*
G03X133880000Y-137850000I-2324184J-1122795D01*
G01*
X134436400Y-140798807D02*
G75*
G02X132080000Y-142300000I-2356400J1098807D01*
G01*
X129723600Y-140798807D02*
G75*
G03X132080000Y-142300000I2356400J1098807D01*
G01*
X129755816Y-138577205D02*
G75*
G02X130280000Y-137850000I2324184J-1122795D01*
G01*
G04 #@! TO.C,Q27*
X129755816Y-130957205D02*
G75*
G02X130280000Y-130230000I2324184J-1122795D01*
G01*
X129723600Y-133178807D02*
G75*
G03X132080000Y-134680000I2356400J1098807D01*
G01*
X134436400Y-133178807D02*
G75*
G02X132080000Y-134680000I-2356400J1098807D01*
G01*
X134404184Y-130957205D02*
G75*
G03X133880000Y-130230000I-2324184J-1122795D01*
G01*
X133880000Y-130230000D02*
X130280000Y-130230000D01*
G04 #@! TO.C,Q28*
X131340000Y-108640000D02*
X127740000Y-108640000D01*
X131864184Y-109367205D02*
G75*
G03X131340000Y-108640000I-2324184J-1122795D01*
G01*
X131896400Y-111588807D02*
G75*
G02X129540000Y-113090000I-2356400J1098807D01*
G01*
X127183600Y-111588807D02*
G75*
G03X129540000Y-113090000I2356400J1098807D01*
G01*
X127215816Y-109367205D02*
G75*
G02X127740000Y-108640000I2324184J-1122795D01*
G01*
G04 #@! TO.C,Q10*
X119164184Y-148442795D02*
G75*
G02X118640000Y-149170000I-2324184J1122795D01*
G01*
X119196400Y-146221193D02*
G75*
G03X116840000Y-144720000I-2356400J-1098807D01*
G01*
X114483600Y-146221193D02*
G75*
G02X116840000Y-144720000I2356400J-1098807D01*
G01*
X114515816Y-148442795D02*
G75*
G03X115040000Y-149170000I2324184J1122795D01*
G01*
X115040000Y-149170000D02*
X118640000Y-149170000D01*
G04 #@! TO.C,Q2*
X109750000Y-130230000D02*
X106150000Y-130230000D01*
X110274184Y-130957205D02*
G75*
G03X109750000Y-130230000I-2324184J-1122795D01*
G01*
X110306400Y-133178807D02*
G75*
G02X107950000Y-134680000I-2356400J1098807D01*
G01*
X105593600Y-133178807D02*
G75*
G03X107950000Y-134680000I2356400J1098807D01*
G01*
X105625816Y-130957205D02*
G75*
G02X106150000Y-130230000I2324184J-1122795D01*
G01*
G04 #@! TO.C,Q3*
X105625816Y-138577205D02*
G75*
G02X106150000Y-137850000I2324184J-1122795D01*
G01*
X105593600Y-140798807D02*
G75*
G03X107950000Y-142300000I2356400J1098807D01*
G01*
X110306400Y-140798807D02*
G75*
G02X107950000Y-142300000I-2356400J1098807D01*
G01*
X110274184Y-138577205D02*
G75*
G03X109750000Y-137850000I-2324184J-1122795D01*
G01*
X109750000Y-137850000D02*
X106150000Y-137850000D01*
G04 #@! TO.C,Q4*
X115040000Y-104720000D02*
X118640000Y-104720000D01*
X114515816Y-103992795D02*
G75*
G03X115040000Y-104720000I2324184J1122795D01*
G01*
X114483600Y-101771193D02*
G75*
G02X116840000Y-100270000I2356400J-1098807D01*
G01*
X119196400Y-101771193D02*
G75*
G03X116840000Y-100270000I-2356400J-1098807D01*
G01*
X119164184Y-103992795D02*
G75*
G02X118640000Y-104720000I-2324184J1122795D01*
G01*
G04 #@! TO.C,Q17*
X143294184Y-140822795D02*
G75*
G02X142770000Y-141550000I-2324184J1122795D01*
G01*
X143326400Y-138601193D02*
G75*
G03X140970000Y-137100000I-2356400J-1098807D01*
G01*
X138613600Y-138601193D02*
G75*
G02X140970000Y-137100000I2356400J-1098807D01*
G01*
X138645816Y-140822795D02*
G75*
G03X139170000Y-141550000I2324184J1122795D01*
G01*
X139170000Y-141550000D02*
X142770000Y-141550000D01*
G04 #@! TO.C,Q16*
X139170000Y-133930000D02*
X142770000Y-133930000D01*
X138645816Y-133202795D02*
G75*
G03X139170000Y-133930000I2324184J1122795D01*
G01*
X138613600Y-130981193D02*
G75*
G02X140970000Y-129480000I2356400J-1098807D01*
G01*
X143326400Y-130981193D02*
G75*
G03X140970000Y-129480000I-2356400J-1098807D01*
G01*
X143294184Y-133202795D02*
G75*
G02X142770000Y-133930000I-2324184J1122795D01*
G01*
G04 #@! TO.C,Q15*
X134835816Y-109367205D02*
G75*
G02X135360000Y-108640000I2324184J-1122795D01*
G01*
X134803600Y-111588807D02*
G75*
G03X137160000Y-113090000I2356400J1098807D01*
G01*
X139516400Y-111588807D02*
G75*
G02X137160000Y-113090000I-2356400J1098807D01*
G01*
X139484184Y-109367205D02*
G75*
G03X138960000Y-108640000I-2324184J-1122795D01*
G01*
X138960000Y-108640000D02*
X135360000Y-108640000D01*
G04 #@! TO.C,Q14*
X112500000Y-112340000D02*
X116100000Y-112340000D01*
X111975816Y-111612795D02*
G75*
G03X112500000Y-112340000I2324184J1122795D01*
G01*
X111943600Y-109391193D02*
G75*
G02X114300000Y-107890000I2356400J-1098807D01*
G01*
X116656400Y-109391193D02*
G75*
G03X114300000Y-107890000I-2356400J-1098807D01*
G01*
X116624184Y-111612795D02*
G75*
G02X116100000Y-112340000I-2324184J1122795D01*
G01*
G04 #@! TO.C,Q13*
X119164184Y-133202795D02*
G75*
G02X118640000Y-133930000I-2324184J1122795D01*
G01*
X119196400Y-130981193D02*
G75*
G03X116840000Y-129480000I-2356400J-1098807D01*
G01*
X114483600Y-130981193D02*
G75*
G02X116840000Y-129480000I2356400J-1098807D01*
G01*
X114515816Y-133202795D02*
G75*
G03X115040000Y-133930000I2324184J1122795D01*
G01*
X115040000Y-133930000D02*
X118640000Y-133930000D01*
G04 #@! TO.C,Q12*
X115040000Y-141550000D02*
X118640000Y-141550000D01*
X114515816Y-140822795D02*
G75*
G03X115040000Y-141550000I2324184J1122795D01*
G01*
X114483600Y-138601193D02*
G75*
G02X116840000Y-137100000I2356400J-1098807D01*
G01*
X119196400Y-138601193D02*
G75*
G03X116840000Y-137100000I-2356400J-1098807D01*
G01*
X119164184Y-140822795D02*
G75*
G02X118640000Y-141550000I-2324184J1122795D01*
G01*
G04 #@! TO.C,Q11*
X105625816Y-101747205D02*
G75*
G02X106150000Y-101020000I2324184J-1122795D01*
G01*
X105593600Y-103968807D02*
G75*
G03X107950000Y-105470000I2356400J1098807D01*
G01*
X110306400Y-103968807D02*
G75*
G02X107950000Y-105470000I-2356400J1098807D01*
G01*
X110274184Y-101747205D02*
G75*
G03X109750000Y-101020000I-2324184J-1122795D01*
G01*
X109750000Y-101020000D02*
X106150000Y-101020000D01*
G04 #@! TO.C,Q1*
X120120000Y-112340000D02*
X123720000Y-112340000D01*
X119595816Y-111612795D02*
G75*
G03X120120000Y-112340000I2324184J1122795D01*
G01*
X119563600Y-109391193D02*
G75*
G02X121920000Y-107890000I2356400J-1098807D01*
G01*
X124276400Y-109391193D02*
G75*
G03X121920000Y-107890000I-2356400J-1098807D01*
G01*
X124244184Y-111612795D02*
G75*
G02X123720000Y-112340000I-2324184J1122795D01*
G01*
G04 #@! TO.C,Q9*
X105625816Y-94127205D02*
G75*
G02X106150000Y-93400000I2324184J-1122795D01*
G01*
X105593600Y-96348807D02*
G75*
G03X107950000Y-97850000I2356400J1098807D01*
G01*
X110306400Y-96348807D02*
G75*
G02X107950000Y-97850000I-2356400J1098807D01*
G01*
X110274184Y-94127205D02*
G75*
G03X109750000Y-93400000I-2324184J-1122795D01*
G01*
X109750000Y-93400000D02*
X106150000Y-93400000D01*
G04 #@! TO.C,Q8*
X109750000Y-85780000D02*
X106150000Y-85780000D01*
X110274184Y-86507205D02*
G75*
G03X109750000Y-85780000I-2324184J-1122795D01*
G01*
X110306400Y-88728807D02*
G75*
G02X107950000Y-90230000I-2356400J1098807D01*
G01*
X105593600Y-88728807D02*
G75*
G03X107950000Y-90230000I2356400J1098807D01*
G01*
X105625816Y-86507205D02*
G75*
G02X106150000Y-85780000I2324184J-1122795D01*
G01*
G04 #@! TO.C,Q7*
X119164184Y-88752795D02*
G75*
G02X118640000Y-89480000I-2324184J1122795D01*
G01*
X119196400Y-86531193D02*
G75*
G03X116840000Y-85030000I-2356400J-1098807D01*
G01*
X114483600Y-86531193D02*
G75*
G02X116840000Y-85030000I2356400J-1098807D01*
G01*
X114515816Y-88752795D02*
G75*
G03X115040000Y-89480000I2324184J1122795D01*
G01*
X115040000Y-89480000D02*
X118640000Y-89480000D01*
G04 #@! TO.C,Q6*
X115040000Y-97100000D02*
X118640000Y-97100000D01*
X114515816Y-96372795D02*
G75*
G03X115040000Y-97100000I2324184J1122795D01*
G01*
X114483600Y-94151193D02*
G75*
G02X116840000Y-92650000I2356400J-1098807D01*
G01*
X119196400Y-94151193D02*
G75*
G03X116840000Y-92650000I-2356400J-1098807D01*
G01*
X119164184Y-96372795D02*
G75*
G02X118640000Y-97100000I-2324184J1122795D01*
G01*
G04 #@! TO.C,Q18*
X144564184Y-103992795D02*
G75*
G02X144040000Y-104720000I-2324184J1122795D01*
G01*
X144596400Y-101771193D02*
G75*
G03X142240000Y-100270000I-2356400J-1098807D01*
G01*
X139883600Y-101771193D02*
G75*
G02X142240000Y-100270000I2356400J-1098807D01*
G01*
X139915816Y-103992795D02*
G75*
G03X140440000Y-104720000I2324184J1122795D01*
G01*
X140440000Y-104720000D02*
X144040000Y-104720000D01*
G04 #@! TO.C,Q5*
X109750000Y-145470000D02*
X106150000Y-145470000D01*
X110274184Y-146197205D02*
G75*
G03X109750000Y-145470000I-2324184J-1122795D01*
G01*
X110306400Y-148418807D02*
G75*
G02X107950000Y-149920000I-2356400J1098807D01*
G01*
X105593600Y-148418807D02*
G75*
G03X107950000Y-149920000I2356400J1098807D01*
G01*
X105625816Y-146197205D02*
G75*
G02X106150000Y-145470000I2324184J-1122795D01*
G01*
G04 #@! TO.C,R2*
X113200000Y-118110000D02*
X111990000Y-118110000D01*
X117940000Y-118110000D02*
G75*
G03X117940000Y-118110000I-2370000J0D01*
G01*
G04 #@! TO.C,R3*
X117940000Y-124460000D02*
G75*
G03X117940000Y-124460000I-2370000J0D01*
G01*
X113200000Y-124460000D02*
X111990000Y-124460000D01*
G04 #@! TO.C,R6*
X134450000Y-118110000D02*
X135660000Y-118110000D01*
X134450000Y-118110000D02*
G75*
G03X134450000Y-118110000I-2370000J0D01*
G01*
G04 #@! TO.C,R7*
X134450000Y-124460000D02*
G75*
G03X134450000Y-124460000I-2370000J0D01*
G01*
X134450000Y-124460000D02*
X135660000Y-124460000D01*
G04 #@! TO.C,J5*
D10*
X105076666Y-119892380D02*
X105076666Y-120606666D01*
X105029047Y-120749523D01*
X104933809Y-120844761D01*
X104790952Y-120892380D01*
X104695714Y-120892380D01*
X106029047Y-119892380D02*
X105552857Y-119892380D01*
X105505238Y-120368571D01*
X105552857Y-120320952D01*
X105648095Y-120273333D01*
X105886190Y-120273333D01*
X105981428Y-120320952D01*
X106029047Y-120368571D01*
X106076666Y-120463809D01*
X106076666Y-120701904D01*
X106029047Y-120797142D01*
X105981428Y-120844761D01*
X105886190Y-120892380D01*
X105648095Y-120892380D01*
X105552857Y-120844761D01*
X105505238Y-120797142D01*
G04 #@! TO.C,J6*
X144446666Y-119892380D02*
X144446666Y-120606666D01*
X144399047Y-120749523D01*
X144303809Y-120844761D01*
X144160952Y-120892380D01*
X144065714Y-120892380D01*
X145351428Y-119892380D02*
X145160952Y-119892380D01*
X145065714Y-119940000D01*
X145018095Y-119987619D01*
X144922857Y-120130476D01*
X144875238Y-120320952D01*
X144875238Y-120701904D01*
X144922857Y-120797142D01*
X144970476Y-120844761D01*
X145065714Y-120892380D01*
X145256190Y-120892380D01*
X145351428Y-120844761D01*
X145399047Y-120797142D01*
X145446666Y-120701904D01*
X145446666Y-120463809D01*
X145399047Y-120368571D01*
X145351428Y-120320952D01*
X145256190Y-120273333D01*
X145065714Y-120273333D01*
X144970476Y-120320952D01*
X144922857Y-120368571D01*
X144875238Y-120463809D01*
G04 #@! TO.C,J4*
X115232380Y-80343333D02*
X115946666Y-80343333D01*
X116089523Y-80390952D01*
X116184761Y-80486190D01*
X116232380Y-80629047D01*
X116232380Y-80724285D01*
X115565714Y-79438571D02*
X116232380Y-79438571D01*
X115184761Y-79676666D02*
X115899047Y-79914761D01*
X115899047Y-79295714D01*
G04 #@! TO.C,R1*
X121272380Y-89066666D02*
X120796190Y-89400000D01*
X121272380Y-89638095D02*
X120272380Y-89638095D01*
X120272380Y-89257142D01*
X120320000Y-89161904D01*
X120367619Y-89114285D01*
X120462857Y-89066666D01*
X120605714Y-89066666D01*
X120700952Y-89114285D01*
X120748571Y-89161904D01*
X120796190Y-89257142D01*
X120796190Y-89638095D01*
X121272380Y-88114285D02*
X121272380Y-88685714D01*
X121272380Y-88400000D02*
X120272380Y-88400000D01*
X120415238Y-88495238D01*
X120510476Y-88590476D01*
X120558095Y-88685714D01*
G04 #@! TO.C,R4*
X126012380Y-103036666D02*
X125536190Y-103370000D01*
X126012380Y-103608095D02*
X125012380Y-103608095D01*
X125012380Y-103227142D01*
X125060000Y-103131904D01*
X125107619Y-103084285D01*
X125202857Y-103036666D01*
X125345714Y-103036666D01*
X125440952Y-103084285D01*
X125488571Y-103131904D01*
X125536190Y-103227142D01*
X125536190Y-103608095D01*
X125345714Y-102179523D02*
X126012380Y-102179523D01*
X124964761Y-102417619D02*
X125679047Y-102655714D01*
X125679047Y-102036666D01*
G04 #@! TO.C,R5*
X125082380Y-103036666D02*
X124606190Y-103370000D01*
X125082380Y-103608095D02*
X124082380Y-103608095D01*
X124082380Y-103227142D01*
X124130000Y-103131904D01*
X124177619Y-103084285D01*
X124272857Y-103036666D01*
X124415714Y-103036666D01*
X124510952Y-103084285D01*
X124558571Y-103131904D01*
X124606190Y-103227142D01*
X124606190Y-103608095D01*
X124082380Y-102131904D02*
X124082380Y-102608095D01*
X124558571Y-102655714D01*
X124510952Y-102608095D01*
X124463333Y-102512857D01*
X124463333Y-102274761D01*
X124510952Y-102179523D01*
X124558571Y-102131904D01*
X124653809Y-102084285D01*
X124891904Y-102084285D01*
X124987142Y-102131904D01*
X125034761Y-102179523D01*
X125082380Y-102274761D01*
X125082380Y-102512857D01*
X125034761Y-102608095D01*
X124987142Y-102655714D01*
G04 #@! TO.C,R8*
X129822380Y-89066666D02*
X129346190Y-89400000D01*
X129822380Y-89638095D02*
X128822380Y-89638095D01*
X128822380Y-89257142D01*
X128870000Y-89161904D01*
X128917619Y-89114285D01*
X129012857Y-89066666D01*
X129155714Y-89066666D01*
X129250952Y-89114285D01*
X129298571Y-89161904D01*
X129346190Y-89257142D01*
X129346190Y-89638095D01*
X129250952Y-88495238D02*
X129203333Y-88590476D01*
X129155714Y-88638095D01*
X129060476Y-88685714D01*
X129012857Y-88685714D01*
X128917619Y-88638095D01*
X128870000Y-88590476D01*
X128822380Y-88495238D01*
X128822380Y-88304761D01*
X128870000Y-88209523D01*
X128917619Y-88161904D01*
X129012857Y-88114285D01*
X129060476Y-88114285D01*
X129155714Y-88161904D01*
X129203333Y-88209523D01*
X129250952Y-88304761D01*
X129250952Y-88495238D01*
X129298571Y-88590476D01*
X129346190Y-88638095D01*
X129441428Y-88685714D01*
X129631904Y-88685714D01*
X129727142Y-88638095D01*
X129774761Y-88590476D01*
X129822380Y-88495238D01*
X129822380Y-88304761D01*
X129774761Y-88209523D01*
X129727142Y-88161904D01*
X129631904Y-88114285D01*
X129441428Y-88114285D01*
X129346190Y-88161904D01*
X129298571Y-88209523D01*
X129250952Y-88304761D01*
G04 #@! TO.C,Q20*
X141668571Y-92237619D02*
X141573333Y-92190000D01*
X141478095Y-92094761D01*
X141335238Y-91951904D01*
X141240000Y-91904285D01*
X141144761Y-91904285D01*
X141192380Y-92142380D02*
X141097142Y-92094761D01*
X141001904Y-91999523D01*
X140954285Y-91809047D01*
X140954285Y-91475714D01*
X141001904Y-91285238D01*
X141097142Y-91190000D01*
X141192380Y-91142380D01*
X141382857Y-91142380D01*
X141478095Y-91190000D01*
X141573333Y-91285238D01*
X141620952Y-91475714D01*
X141620952Y-91809047D01*
X141573333Y-91999523D01*
X141478095Y-92094761D01*
X141382857Y-92142380D01*
X141192380Y-92142380D01*
X142001904Y-91237619D02*
X142049523Y-91190000D01*
X142144761Y-91142380D01*
X142382857Y-91142380D01*
X142478095Y-91190000D01*
X142525714Y-91237619D01*
X142573333Y-91332857D01*
X142573333Y-91428095D01*
X142525714Y-91570952D01*
X141954285Y-92142380D01*
X142573333Y-92142380D01*
X143192380Y-91142380D02*
X143287619Y-91142380D01*
X143382857Y-91190000D01*
X143430476Y-91237619D01*
X143478095Y-91332857D01*
X143525714Y-91523333D01*
X143525714Y-91761428D01*
X143478095Y-91951904D01*
X143430476Y-92047142D01*
X143382857Y-92094761D01*
X143287619Y-92142380D01*
X143192380Y-92142380D01*
X143097142Y-92094761D01*
X143049523Y-92047142D01*
X143001904Y-91951904D01*
X142954285Y-91761428D01*
X142954285Y-91523333D01*
X143001904Y-91332857D01*
X143049523Y-91237619D01*
X143097142Y-91190000D01*
X143192380Y-91142380D01*
G04 #@! TO.C,Q19*
X140398571Y-144307619D02*
X140303333Y-144260000D01*
X140208095Y-144164761D01*
X140065238Y-144021904D01*
X139970000Y-143974285D01*
X139874761Y-143974285D01*
X139922380Y-144212380D02*
X139827142Y-144164761D01*
X139731904Y-144069523D01*
X139684285Y-143879047D01*
X139684285Y-143545714D01*
X139731904Y-143355238D01*
X139827142Y-143260000D01*
X139922380Y-143212380D01*
X140112857Y-143212380D01*
X140208095Y-143260000D01*
X140303333Y-143355238D01*
X140350952Y-143545714D01*
X140350952Y-143879047D01*
X140303333Y-144069523D01*
X140208095Y-144164761D01*
X140112857Y-144212380D01*
X139922380Y-144212380D01*
X141303333Y-144212380D02*
X140731904Y-144212380D01*
X141017619Y-144212380D02*
X141017619Y-143212380D01*
X140922380Y-143355238D01*
X140827142Y-143450476D01*
X140731904Y-143498095D01*
X141779523Y-144212380D02*
X141970000Y-144212380D01*
X142065238Y-144164761D01*
X142112857Y-144117142D01*
X142208095Y-143974285D01*
X142255714Y-143783809D01*
X142255714Y-143402857D01*
X142208095Y-143307619D01*
X142160476Y-143260000D01*
X142065238Y-143212380D01*
X141874761Y-143212380D01*
X141779523Y-143260000D01*
X141731904Y-143307619D01*
X141684285Y-143402857D01*
X141684285Y-143640952D01*
X141731904Y-143736190D01*
X141779523Y-143783809D01*
X141874761Y-143831428D01*
X142065238Y-143831428D01*
X142160476Y-143783809D01*
X142208095Y-143736190D01*
X142255714Y-143640952D01*
G04 #@! TO.C,Q21*
X141668571Y-84617619D02*
X141573333Y-84570000D01*
X141478095Y-84474761D01*
X141335238Y-84331904D01*
X141240000Y-84284285D01*
X141144761Y-84284285D01*
X141192380Y-84522380D02*
X141097142Y-84474761D01*
X141001904Y-84379523D01*
X140954285Y-84189047D01*
X140954285Y-83855714D01*
X141001904Y-83665238D01*
X141097142Y-83570000D01*
X141192380Y-83522380D01*
X141382857Y-83522380D01*
X141478095Y-83570000D01*
X141573333Y-83665238D01*
X141620952Y-83855714D01*
X141620952Y-84189047D01*
X141573333Y-84379523D01*
X141478095Y-84474761D01*
X141382857Y-84522380D01*
X141192380Y-84522380D01*
X142001904Y-83617619D02*
X142049523Y-83570000D01*
X142144761Y-83522380D01*
X142382857Y-83522380D01*
X142478095Y-83570000D01*
X142525714Y-83617619D01*
X142573333Y-83712857D01*
X142573333Y-83808095D01*
X142525714Y-83950952D01*
X141954285Y-84522380D01*
X142573333Y-84522380D01*
X143525714Y-84522380D02*
X142954285Y-84522380D01*
X143240000Y-84522380D02*
X143240000Y-83522380D01*
X143144761Y-83665238D01*
X143049523Y-83760476D01*
X142954285Y-83808095D01*
G04 #@! TO.C,Q22*
X132778571Y-91737619D02*
X132683333Y-91690000D01*
X132588095Y-91594761D01*
X132445238Y-91451904D01*
X132350000Y-91404285D01*
X132254761Y-91404285D01*
X132302380Y-91642380D02*
X132207142Y-91594761D01*
X132111904Y-91499523D01*
X132064285Y-91309047D01*
X132064285Y-90975714D01*
X132111904Y-90785238D01*
X132207142Y-90690000D01*
X132302380Y-90642380D01*
X132492857Y-90642380D01*
X132588095Y-90690000D01*
X132683333Y-90785238D01*
X132730952Y-90975714D01*
X132730952Y-91309047D01*
X132683333Y-91499523D01*
X132588095Y-91594761D01*
X132492857Y-91642380D01*
X132302380Y-91642380D01*
X133111904Y-90737619D02*
X133159523Y-90690000D01*
X133254761Y-90642380D01*
X133492857Y-90642380D01*
X133588095Y-90690000D01*
X133635714Y-90737619D01*
X133683333Y-90832857D01*
X133683333Y-90928095D01*
X133635714Y-91070952D01*
X133064285Y-91642380D01*
X133683333Y-91642380D01*
X134064285Y-90737619D02*
X134111904Y-90690000D01*
X134207142Y-90642380D01*
X134445238Y-90642380D01*
X134540476Y-90690000D01*
X134588095Y-90737619D01*
X134635714Y-90832857D01*
X134635714Y-90928095D01*
X134588095Y-91070952D01*
X134016666Y-91642380D01*
X134635714Y-91642380D01*
G04 #@! TO.C,Q23*
X132778571Y-99357619D02*
X132683333Y-99310000D01*
X132588095Y-99214761D01*
X132445238Y-99071904D01*
X132350000Y-99024285D01*
X132254761Y-99024285D01*
X132302380Y-99262380D02*
X132207142Y-99214761D01*
X132111904Y-99119523D01*
X132064285Y-98929047D01*
X132064285Y-98595714D01*
X132111904Y-98405238D01*
X132207142Y-98310000D01*
X132302380Y-98262380D01*
X132492857Y-98262380D01*
X132588095Y-98310000D01*
X132683333Y-98405238D01*
X132730952Y-98595714D01*
X132730952Y-98929047D01*
X132683333Y-99119523D01*
X132588095Y-99214761D01*
X132492857Y-99262380D01*
X132302380Y-99262380D01*
X133111904Y-98357619D02*
X133159523Y-98310000D01*
X133254761Y-98262380D01*
X133492857Y-98262380D01*
X133588095Y-98310000D01*
X133635714Y-98357619D01*
X133683333Y-98452857D01*
X133683333Y-98548095D01*
X133635714Y-98690952D01*
X133064285Y-99262380D01*
X133683333Y-99262380D01*
X134016666Y-98262380D02*
X134635714Y-98262380D01*
X134302380Y-98643333D01*
X134445238Y-98643333D01*
X134540476Y-98690952D01*
X134588095Y-98738571D01*
X134635714Y-98833809D01*
X134635714Y-99071904D01*
X134588095Y-99167142D01*
X134540476Y-99214761D01*
X134445238Y-99262380D01*
X134159523Y-99262380D01*
X134064285Y-99214761D01*
X134016666Y-99167142D01*
G04 #@! TO.C,Q24*
X131508571Y-151427619D02*
X131413333Y-151380000D01*
X131318095Y-151284761D01*
X131175238Y-151141904D01*
X131080000Y-151094285D01*
X130984761Y-151094285D01*
X131032380Y-151332380D02*
X130937142Y-151284761D01*
X130841904Y-151189523D01*
X130794285Y-150999047D01*
X130794285Y-150665714D01*
X130841904Y-150475238D01*
X130937142Y-150380000D01*
X131032380Y-150332380D01*
X131222857Y-150332380D01*
X131318095Y-150380000D01*
X131413333Y-150475238D01*
X131460952Y-150665714D01*
X131460952Y-150999047D01*
X131413333Y-151189523D01*
X131318095Y-151284761D01*
X131222857Y-151332380D01*
X131032380Y-151332380D01*
X131841904Y-150427619D02*
X131889523Y-150380000D01*
X131984761Y-150332380D01*
X132222857Y-150332380D01*
X132318095Y-150380000D01*
X132365714Y-150427619D01*
X132413333Y-150522857D01*
X132413333Y-150618095D01*
X132365714Y-150760952D01*
X131794285Y-151332380D01*
X132413333Y-151332380D01*
X133270476Y-150665714D02*
X133270476Y-151332380D01*
X133032380Y-150284761D02*
X132794285Y-150999047D01*
X133413333Y-150999047D01*
G04 #@! TO.C,Q25*
X132778571Y-106977619D02*
X132683333Y-106930000D01*
X132588095Y-106834761D01*
X132445238Y-106691904D01*
X132350000Y-106644285D01*
X132254761Y-106644285D01*
X132302380Y-106882380D02*
X132207142Y-106834761D01*
X132111904Y-106739523D01*
X132064285Y-106549047D01*
X132064285Y-106215714D01*
X132111904Y-106025238D01*
X132207142Y-105930000D01*
X132302380Y-105882380D01*
X132492857Y-105882380D01*
X132588095Y-105930000D01*
X132683333Y-106025238D01*
X132730952Y-106215714D01*
X132730952Y-106549047D01*
X132683333Y-106739523D01*
X132588095Y-106834761D01*
X132492857Y-106882380D01*
X132302380Y-106882380D01*
X133111904Y-105977619D02*
X133159523Y-105930000D01*
X133254761Y-105882380D01*
X133492857Y-105882380D01*
X133588095Y-105930000D01*
X133635714Y-105977619D01*
X133683333Y-106072857D01*
X133683333Y-106168095D01*
X133635714Y-106310952D01*
X133064285Y-106882380D01*
X133683333Y-106882380D01*
X134588095Y-105882380D02*
X134111904Y-105882380D01*
X134064285Y-106358571D01*
X134111904Y-106310952D01*
X134207142Y-106263333D01*
X134445238Y-106263333D01*
X134540476Y-106310952D01*
X134588095Y-106358571D01*
X134635714Y-106453809D01*
X134635714Y-106691904D01*
X134588095Y-106787142D01*
X134540476Y-106834761D01*
X134445238Y-106882380D01*
X134207142Y-106882380D01*
X134111904Y-106834761D01*
X134064285Y-106787142D01*
G04 #@! TO.C,Q26*
X131508571Y-143807619D02*
X131413333Y-143760000D01*
X131318095Y-143664761D01*
X131175238Y-143521904D01*
X131080000Y-143474285D01*
X130984761Y-143474285D01*
X131032380Y-143712380D02*
X130937142Y-143664761D01*
X130841904Y-143569523D01*
X130794285Y-143379047D01*
X130794285Y-143045714D01*
X130841904Y-142855238D01*
X130937142Y-142760000D01*
X131032380Y-142712380D01*
X131222857Y-142712380D01*
X131318095Y-142760000D01*
X131413333Y-142855238D01*
X131460952Y-143045714D01*
X131460952Y-143379047D01*
X131413333Y-143569523D01*
X131318095Y-143664761D01*
X131222857Y-143712380D01*
X131032380Y-143712380D01*
X131841904Y-142807619D02*
X131889523Y-142760000D01*
X131984761Y-142712380D01*
X132222857Y-142712380D01*
X132318095Y-142760000D01*
X132365714Y-142807619D01*
X132413333Y-142902857D01*
X132413333Y-142998095D01*
X132365714Y-143140952D01*
X131794285Y-143712380D01*
X132413333Y-143712380D01*
X133270476Y-142712380D02*
X133080000Y-142712380D01*
X132984761Y-142760000D01*
X132937142Y-142807619D01*
X132841904Y-142950476D01*
X132794285Y-143140952D01*
X132794285Y-143521904D01*
X132841904Y-143617142D01*
X132889523Y-143664761D01*
X132984761Y-143712380D01*
X133175238Y-143712380D01*
X133270476Y-143664761D01*
X133318095Y-143617142D01*
X133365714Y-143521904D01*
X133365714Y-143283809D01*
X133318095Y-143188571D01*
X133270476Y-143140952D01*
X133175238Y-143093333D01*
X132984761Y-143093333D01*
X132889523Y-143140952D01*
X132841904Y-143188571D01*
X132794285Y-143283809D01*
G04 #@! TO.C,Q27*
X131508571Y-136187619D02*
X131413333Y-136140000D01*
X131318095Y-136044761D01*
X131175238Y-135901904D01*
X131080000Y-135854285D01*
X130984761Y-135854285D01*
X131032380Y-136092380D02*
X130937142Y-136044761D01*
X130841904Y-135949523D01*
X130794285Y-135759047D01*
X130794285Y-135425714D01*
X130841904Y-135235238D01*
X130937142Y-135140000D01*
X131032380Y-135092380D01*
X131222857Y-135092380D01*
X131318095Y-135140000D01*
X131413333Y-135235238D01*
X131460952Y-135425714D01*
X131460952Y-135759047D01*
X131413333Y-135949523D01*
X131318095Y-136044761D01*
X131222857Y-136092380D01*
X131032380Y-136092380D01*
X131841904Y-135187619D02*
X131889523Y-135140000D01*
X131984761Y-135092380D01*
X132222857Y-135092380D01*
X132318095Y-135140000D01*
X132365714Y-135187619D01*
X132413333Y-135282857D01*
X132413333Y-135378095D01*
X132365714Y-135520952D01*
X131794285Y-136092380D01*
X132413333Y-136092380D01*
X132746666Y-135092380D02*
X133413333Y-135092380D01*
X132984761Y-136092380D01*
G04 #@! TO.C,Q28*
X128968571Y-114597619D02*
X128873333Y-114550000D01*
X128778095Y-114454761D01*
X128635238Y-114311904D01*
X128540000Y-114264285D01*
X128444761Y-114264285D01*
X128492380Y-114502380D02*
X128397142Y-114454761D01*
X128301904Y-114359523D01*
X128254285Y-114169047D01*
X128254285Y-113835714D01*
X128301904Y-113645238D01*
X128397142Y-113550000D01*
X128492380Y-113502380D01*
X128682857Y-113502380D01*
X128778095Y-113550000D01*
X128873333Y-113645238D01*
X128920952Y-113835714D01*
X128920952Y-114169047D01*
X128873333Y-114359523D01*
X128778095Y-114454761D01*
X128682857Y-114502380D01*
X128492380Y-114502380D01*
X129301904Y-113597619D02*
X129349523Y-113550000D01*
X129444761Y-113502380D01*
X129682857Y-113502380D01*
X129778095Y-113550000D01*
X129825714Y-113597619D01*
X129873333Y-113692857D01*
X129873333Y-113788095D01*
X129825714Y-113930952D01*
X129254285Y-114502380D01*
X129873333Y-114502380D01*
X130444761Y-113930952D02*
X130349523Y-113883333D01*
X130301904Y-113835714D01*
X130254285Y-113740476D01*
X130254285Y-113692857D01*
X130301904Y-113597619D01*
X130349523Y-113550000D01*
X130444761Y-113502380D01*
X130635238Y-113502380D01*
X130730476Y-113550000D01*
X130778095Y-113597619D01*
X130825714Y-113692857D01*
X130825714Y-113740476D01*
X130778095Y-113835714D01*
X130730476Y-113883333D01*
X130635238Y-113930952D01*
X130444761Y-113930952D01*
X130349523Y-113978571D01*
X130301904Y-114026190D01*
X130254285Y-114121428D01*
X130254285Y-114311904D01*
X130301904Y-114407142D01*
X130349523Y-114454761D01*
X130444761Y-114502380D01*
X130635238Y-114502380D01*
X130730476Y-114454761D01*
X130778095Y-114407142D01*
X130825714Y-114311904D01*
X130825714Y-114121428D01*
X130778095Y-114026190D01*
X130730476Y-113978571D01*
X130635238Y-113930952D01*
G04 #@! TO.C,Q10*
X116268571Y-144307619D02*
X116173333Y-144260000D01*
X116078095Y-144164761D01*
X115935238Y-144021904D01*
X115840000Y-143974285D01*
X115744761Y-143974285D01*
X115792380Y-144212380D02*
X115697142Y-144164761D01*
X115601904Y-144069523D01*
X115554285Y-143879047D01*
X115554285Y-143545714D01*
X115601904Y-143355238D01*
X115697142Y-143260000D01*
X115792380Y-143212380D01*
X115982857Y-143212380D01*
X116078095Y-143260000D01*
X116173333Y-143355238D01*
X116220952Y-143545714D01*
X116220952Y-143879047D01*
X116173333Y-144069523D01*
X116078095Y-144164761D01*
X115982857Y-144212380D01*
X115792380Y-144212380D01*
X117173333Y-144212380D02*
X116601904Y-144212380D01*
X116887619Y-144212380D02*
X116887619Y-143212380D01*
X116792380Y-143355238D01*
X116697142Y-143450476D01*
X116601904Y-143498095D01*
X117792380Y-143212380D02*
X117887619Y-143212380D01*
X117982857Y-143260000D01*
X118030476Y-143307619D01*
X118078095Y-143402857D01*
X118125714Y-143593333D01*
X118125714Y-143831428D01*
X118078095Y-144021904D01*
X118030476Y-144117142D01*
X117982857Y-144164761D01*
X117887619Y-144212380D01*
X117792380Y-144212380D01*
X117697142Y-144164761D01*
X117649523Y-144117142D01*
X117601904Y-144021904D01*
X117554285Y-143831428D01*
X117554285Y-143593333D01*
X117601904Y-143402857D01*
X117649523Y-143307619D01*
X117697142Y-143260000D01*
X117792380Y-143212380D01*
G04 #@! TO.C,Q2*
X107854761Y-136187619D02*
X107759523Y-136140000D01*
X107664285Y-136044761D01*
X107521428Y-135901904D01*
X107426190Y-135854285D01*
X107330952Y-135854285D01*
X107378571Y-136092380D02*
X107283333Y-136044761D01*
X107188095Y-135949523D01*
X107140476Y-135759047D01*
X107140476Y-135425714D01*
X107188095Y-135235238D01*
X107283333Y-135140000D01*
X107378571Y-135092380D01*
X107569047Y-135092380D01*
X107664285Y-135140000D01*
X107759523Y-135235238D01*
X107807142Y-135425714D01*
X107807142Y-135759047D01*
X107759523Y-135949523D01*
X107664285Y-136044761D01*
X107569047Y-136092380D01*
X107378571Y-136092380D01*
X108188095Y-135187619D02*
X108235714Y-135140000D01*
X108330952Y-135092380D01*
X108569047Y-135092380D01*
X108664285Y-135140000D01*
X108711904Y-135187619D01*
X108759523Y-135282857D01*
X108759523Y-135378095D01*
X108711904Y-135520952D01*
X108140476Y-136092380D01*
X108759523Y-136092380D01*
G04 #@! TO.C,Q3*
X107854761Y-143807619D02*
X107759523Y-143760000D01*
X107664285Y-143664761D01*
X107521428Y-143521904D01*
X107426190Y-143474285D01*
X107330952Y-143474285D01*
X107378571Y-143712380D02*
X107283333Y-143664761D01*
X107188095Y-143569523D01*
X107140476Y-143379047D01*
X107140476Y-143045714D01*
X107188095Y-142855238D01*
X107283333Y-142760000D01*
X107378571Y-142712380D01*
X107569047Y-142712380D01*
X107664285Y-142760000D01*
X107759523Y-142855238D01*
X107807142Y-143045714D01*
X107807142Y-143379047D01*
X107759523Y-143569523D01*
X107664285Y-143664761D01*
X107569047Y-143712380D01*
X107378571Y-143712380D01*
X108140476Y-142712380D02*
X108759523Y-142712380D01*
X108426190Y-143093333D01*
X108569047Y-143093333D01*
X108664285Y-143140952D01*
X108711904Y-143188571D01*
X108759523Y-143283809D01*
X108759523Y-143521904D01*
X108711904Y-143617142D01*
X108664285Y-143664761D01*
X108569047Y-143712380D01*
X108283333Y-143712380D01*
X108188095Y-143664761D01*
X108140476Y-143617142D01*
G04 #@! TO.C,Q4*
X116744761Y-99857619D02*
X116649523Y-99810000D01*
X116554285Y-99714761D01*
X116411428Y-99571904D01*
X116316190Y-99524285D01*
X116220952Y-99524285D01*
X116268571Y-99762380D02*
X116173333Y-99714761D01*
X116078095Y-99619523D01*
X116030476Y-99429047D01*
X116030476Y-99095714D01*
X116078095Y-98905238D01*
X116173333Y-98810000D01*
X116268571Y-98762380D01*
X116459047Y-98762380D01*
X116554285Y-98810000D01*
X116649523Y-98905238D01*
X116697142Y-99095714D01*
X116697142Y-99429047D01*
X116649523Y-99619523D01*
X116554285Y-99714761D01*
X116459047Y-99762380D01*
X116268571Y-99762380D01*
X117554285Y-99095714D02*
X117554285Y-99762380D01*
X117316190Y-98714761D02*
X117078095Y-99429047D01*
X117697142Y-99429047D01*
G04 #@! TO.C,Q17*
X140398571Y-136687619D02*
X140303333Y-136640000D01*
X140208095Y-136544761D01*
X140065238Y-136401904D01*
X139970000Y-136354285D01*
X139874761Y-136354285D01*
X139922380Y-136592380D02*
X139827142Y-136544761D01*
X139731904Y-136449523D01*
X139684285Y-136259047D01*
X139684285Y-135925714D01*
X139731904Y-135735238D01*
X139827142Y-135640000D01*
X139922380Y-135592380D01*
X140112857Y-135592380D01*
X140208095Y-135640000D01*
X140303333Y-135735238D01*
X140350952Y-135925714D01*
X140350952Y-136259047D01*
X140303333Y-136449523D01*
X140208095Y-136544761D01*
X140112857Y-136592380D01*
X139922380Y-136592380D01*
X141303333Y-136592380D02*
X140731904Y-136592380D01*
X141017619Y-136592380D02*
X141017619Y-135592380D01*
X140922380Y-135735238D01*
X140827142Y-135830476D01*
X140731904Y-135878095D01*
X141636666Y-135592380D02*
X142303333Y-135592380D01*
X141874761Y-136592380D01*
G04 #@! TO.C,Q16*
X140398571Y-129067619D02*
X140303333Y-129020000D01*
X140208095Y-128924761D01*
X140065238Y-128781904D01*
X139970000Y-128734285D01*
X139874761Y-128734285D01*
X139922380Y-128972380D02*
X139827142Y-128924761D01*
X139731904Y-128829523D01*
X139684285Y-128639047D01*
X139684285Y-128305714D01*
X139731904Y-128115238D01*
X139827142Y-128020000D01*
X139922380Y-127972380D01*
X140112857Y-127972380D01*
X140208095Y-128020000D01*
X140303333Y-128115238D01*
X140350952Y-128305714D01*
X140350952Y-128639047D01*
X140303333Y-128829523D01*
X140208095Y-128924761D01*
X140112857Y-128972380D01*
X139922380Y-128972380D01*
X141303333Y-128972380D02*
X140731904Y-128972380D01*
X141017619Y-128972380D02*
X141017619Y-127972380D01*
X140922380Y-128115238D01*
X140827142Y-128210476D01*
X140731904Y-128258095D01*
X142160476Y-127972380D02*
X141970000Y-127972380D01*
X141874761Y-128020000D01*
X141827142Y-128067619D01*
X141731904Y-128210476D01*
X141684285Y-128400952D01*
X141684285Y-128781904D01*
X141731904Y-128877142D01*
X141779523Y-128924761D01*
X141874761Y-128972380D01*
X142065238Y-128972380D01*
X142160476Y-128924761D01*
X142208095Y-128877142D01*
X142255714Y-128781904D01*
X142255714Y-128543809D01*
X142208095Y-128448571D01*
X142160476Y-128400952D01*
X142065238Y-128353333D01*
X141874761Y-128353333D01*
X141779523Y-128400952D01*
X141731904Y-128448571D01*
X141684285Y-128543809D01*
G04 #@! TO.C,Q15*
X136588571Y-114597619D02*
X136493333Y-114550000D01*
X136398095Y-114454761D01*
X136255238Y-114311904D01*
X136160000Y-114264285D01*
X136064761Y-114264285D01*
X136112380Y-114502380D02*
X136017142Y-114454761D01*
X135921904Y-114359523D01*
X135874285Y-114169047D01*
X135874285Y-113835714D01*
X135921904Y-113645238D01*
X136017142Y-113550000D01*
X136112380Y-113502380D01*
X136302857Y-113502380D01*
X136398095Y-113550000D01*
X136493333Y-113645238D01*
X136540952Y-113835714D01*
X136540952Y-114169047D01*
X136493333Y-114359523D01*
X136398095Y-114454761D01*
X136302857Y-114502380D01*
X136112380Y-114502380D01*
X137493333Y-114502380D02*
X136921904Y-114502380D01*
X137207619Y-114502380D02*
X137207619Y-113502380D01*
X137112380Y-113645238D01*
X137017142Y-113740476D01*
X136921904Y-113788095D01*
X138398095Y-113502380D02*
X137921904Y-113502380D01*
X137874285Y-113978571D01*
X137921904Y-113930952D01*
X138017142Y-113883333D01*
X138255238Y-113883333D01*
X138350476Y-113930952D01*
X138398095Y-113978571D01*
X138445714Y-114073809D01*
X138445714Y-114311904D01*
X138398095Y-114407142D01*
X138350476Y-114454761D01*
X138255238Y-114502380D01*
X138017142Y-114502380D01*
X137921904Y-114454761D01*
X137874285Y-114407142D01*
G04 #@! TO.C,Q14*
X113728571Y-107477619D02*
X113633333Y-107430000D01*
X113538095Y-107334761D01*
X113395238Y-107191904D01*
X113300000Y-107144285D01*
X113204761Y-107144285D01*
X113252380Y-107382380D02*
X113157142Y-107334761D01*
X113061904Y-107239523D01*
X113014285Y-107049047D01*
X113014285Y-106715714D01*
X113061904Y-106525238D01*
X113157142Y-106430000D01*
X113252380Y-106382380D01*
X113442857Y-106382380D01*
X113538095Y-106430000D01*
X113633333Y-106525238D01*
X113680952Y-106715714D01*
X113680952Y-107049047D01*
X113633333Y-107239523D01*
X113538095Y-107334761D01*
X113442857Y-107382380D01*
X113252380Y-107382380D01*
X114633333Y-107382380D02*
X114061904Y-107382380D01*
X114347619Y-107382380D02*
X114347619Y-106382380D01*
X114252380Y-106525238D01*
X114157142Y-106620476D01*
X114061904Y-106668095D01*
X115490476Y-106715714D02*
X115490476Y-107382380D01*
X115252380Y-106334761D02*
X115014285Y-107049047D01*
X115633333Y-107049047D01*
G04 #@! TO.C,Q13*
X116268571Y-129067619D02*
X116173333Y-129020000D01*
X116078095Y-128924761D01*
X115935238Y-128781904D01*
X115840000Y-128734285D01*
X115744761Y-128734285D01*
X115792380Y-128972380D02*
X115697142Y-128924761D01*
X115601904Y-128829523D01*
X115554285Y-128639047D01*
X115554285Y-128305714D01*
X115601904Y-128115238D01*
X115697142Y-128020000D01*
X115792380Y-127972380D01*
X115982857Y-127972380D01*
X116078095Y-128020000D01*
X116173333Y-128115238D01*
X116220952Y-128305714D01*
X116220952Y-128639047D01*
X116173333Y-128829523D01*
X116078095Y-128924761D01*
X115982857Y-128972380D01*
X115792380Y-128972380D01*
X117173333Y-128972380D02*
X116601904Y-128972380D01*
X116887619Y-128972380D02*
X116887619Y-127972380D01*
X116792380Y-128115238D01*
X116697142Y-128210476D01*
X116601904Y-128258095D01*
X117506666Y-127972380D02*
X118125714Y-127972380D01*
X117792380Y-128353333D01*
X117935238Y-128353333D01*
X118030476Y-128400952D01*
X118078095Y-128448571D01*
X118125714Y-128543809D01*
X118125714Y-128781904D01*
X118078095Y-128877142D01*
X118030476Y-128924761D01*
X117935238Y-128972380D01*
X117649523Y-128972380D01*
X117554285Y-128924761D01*
X117506666Y-128877142D01*
G04 #@! TO.C,Q12*
X116268571Y-136687619D02*
X116173333Y-136640000D01*
X116078095Y-136544761D01*
X115935238Y-136401904D01*
X115840000Y-136354285D01*
X115744761Y-136354285D01*
X115792380Y-136592380D02*
X115697142Y-136544761D01*
X115601904Y-136449523D01*
X115554285Y-136259047D01*
X115554285Y-135925714D01*
X115601904Y-135735238D01*
X115697142Y-135640000D01*
X115792380Y-135592380D01*
X115982857Y-135592380D01*
X116078095Y-135640000D01*
X116173333Y-135735238D01*
X116220952Y-135925714D01*
X116220952Y-136259047D01*
X116173333Y-136449523D01*
X116078095Y-136544761D01*
X115982857Y-136592380D01*
X115792380Y-136592380D01*
X117173333Y-136592380D02*
X116601904Y-136592380D01*
X116887619Y-136592380D02*
X116887619Y-135592380D01*
X116792380Y-135735238D01*
X116697142Y-135830476D01*
X116601904Y-135878095D01*
X117554285Y-135687619D02*
X117601904Y-135640000D01*
X117697142Y-135592380D01*
X117935238Y-135592380D01*
X118030476Y-135640000D01*
X118078095Y-135687619D01*
X118125714Y-135782857D01*
X118125714Y-135878095D01*
X118078095Y-136020952D01*
X117506666Y-136592380D01*
X118125714Y-136592380D01*
G04 #@! TO.C,Q11*
X107378571Y-106977619D02*
X107283333Y-106930000D01*
X107188095Y-106834761D01*
X107045238Y-106691904D01*
X106950000Y-106644285D01*
X106854761Y-106644285D01*
X106902380Y-106882380D02*
X106807142Y-106834761D01*
X106711904Y-106739523D01*
X106664285Y-106549047D01*
X106664285Y-106215714D01*
X106711904Y-106025238D01*
X106807142Y-105930000D01*
X106902380Y-105882380D01*
X107092857Y-105882380D01*
X107188095Y-105930000D01*
X107283333Y-106025238D01*
X107330952Y-106215714D01*
X107330952Y-106549047D01*
X107283333Y-106739523D01*
X107188095Y-106834761D01*
X107092857Y-106882380D01*
X106902380Y-106882380D01*
X108283333Y-106882380D02*
X107711904Y-106882380D01*
X107997619Y-106882380D02*
X107997619Y-105882380D01*
X107902380Y-106025238D01*
X107807142Y-106120476D01*
X107711904Y-106168095D01*
X109235714Y-106882380D02*
X108664285Y-106882380D01*
X108950000Y-106882380D02*
X108950000Y-105882380D01*
X108854761Y-106025238D01*
X108759523Y-106120476D01*
X108664285Y-106168095D01*
G04 #@! TO.C,Q1*
X121824761Y-107477619D02*
X121729523Y-107430000D01*
X121634285Y-107334761D01*
X121491428Y-107191904D01*
X121396190Y-107144285D01*
X121300952Y-107144285D01*
X121348571Y-107382380D02*
X121253333Y-107334761D01*
X121158095Y-107239523D01*
X121110476Y-107049047D01*
X121110476Y-106715714D01*
X121158095Y-106525238D01*
X121253333Y-106430000D01*
X121348571Y-106382380D01*
X121539047Y-106382380D01*
X121634285Y-106430000D01*
X121729523Y-106525238D01*
X121777142Y-106715714D01*
X121777142Y-107049047D01*
X121729523Y-107239523D01*
X121634285Y-107334761D01*
X121539047Y-107382380D01*
X121348571Y-107382380D01*
X122729523Y-107382380D02*
X122158095Y-107382380D01*
X122443809Y-107382380D02*
X122443809Y-106382380D01*
X122348571Y-106525238D01*
X122253333Y-106620476D01*
X122158095Y-106668095D01*
G04 #@! TO.C,Q9*
X107854761Y-99357619D02*
X107759523Y-99310000D01*
X107664285Y-99214761D01*
X107521428Y-99071904D01*
X107426190Y-99024285D01*
X107330952Y-99024285D01*
X107378571Y-99262380D02*
X107283333Y-99214761D01*
X107188095Y-99119523D01*
X107140476Y-98929047D01*
X107140476Y-98595714D01*
X107188095Y-98405238D01*
X107283333Y-98310000D01*
X107378571Y-98262380D01*
X107569047Y-98262380D01*
X107664285Y-98310000D01*
X107759523Y-98405238D01*
X107807142Y-98595714D01*
X107807142Y-98929047D01*
X107759523Y-99119523D01*
X107664285Y-99214761D01*
X107569047Y-99262380D01*
X107378571Y-99262380D01*
X108283333Y-99262380D02*
X108473809Y-99262380D01*
X108569047Y-99214761D01*
X108616666Y-99167142D01*
X108711904Y-99024285D01*
X108759523Y-98833809D01*
X108759523Y-98452857D01*
X108711904Y-98357619D01*
X108664285Y-98310000D01*
X108569047Y-98262380D01*
X108378571Y-98262380D01*
X108283333Y-98310000D01*
X108235714Y-98357619D01*
X108188095Y-98452857D01*
X108188095Y-98690952D01*
X108235714Y-98786190D01*
X108283333Y-98833809D01*
X108378571Y-98881428D01*
X108569047Y-98881428D01*
X108664285Y-98833809D01*
X108711904Y-98786190D01*
X108759523Y-98690952D01*
G04 #@! TO.C,Q8*
X107854761Y-91737619D02*
X107759523Y-91690000D01*
X107664285Y-91594761D01*
X107521428Y-91451904D01*
X107426190Y-91404285D01*
X107330952Y-91404285D01*
X107378571Y-91642380D02*
X107283333Y-91594761D01*
X107188095Y-91499523D01*
X107140476Y-91309047D01*
X107140476Y-90975714D01*
X107188095Y-90785238D01*
X107283333Y-90690000D01*
X107378571Y-90642380D01*
X107569047Y-90642380D01*
X107664285Y-90690000D01*
X107759523Y-90785238D01*
X107807142Y-90975714D01*
X107807142Y-91309047D01*
X107759523Y-91499523D01*
X107664285Y-91594761D01*
X107569047Y-91642380D01*
X107378571Y-91642380D01*
X108378571Y-91070952D02*
X108283333Y-91023333D01*
X108235714Y-90975714D01*
X108188095Y-90880476D01*
X108188095Y-90832857D01*
X108235714Y-90737619D01*
X108283333Y-90690000D01*
X108378571Y-90642380D01*
X108569047Y-90642380D01*
X108664285Y-90690000D01*
X108711904Y-90737619D01*
X108759523Y-90832857D01*
X108759523Y-90880476D01*
X108711904Y-90975714D01*
X108664285Y-91023333D01*
X108569047Y-91070952D01*
X108378571Y-91070952D01*
X108283333Y-91118571D01*
X108235714Y-91166190D01*
X108188095Y-91261428D01*
X108188095Y-91451904D01*
X108235714Y-91547142D01*
X108283333Y-91594761D01*
X108378571Y-91642380D01*
X108569047Y-91642380D01*
X108664285Y-91594761D01*
X108711904Y-91547142D01*
X108759523Y-91451904D01*
X108759523Y-91261428D01*
X108711904Y-91166190D01*
X108664285Y-91118571D01*
X108569047Y-91070952D01*
G04 #@! TO.C,Q7*
X116744761Y-84617619D02*
X116649523Y-84570000D01*
X116554285Y-84474761D01*
X116411428Y-84331904D01*
X116316190Y-84284285D01*
X116220952Y-84284285D01*
X116268571Y-84522380D02*
X116173333Y-84474761D01*
X116078095Y-84379523D01*
X116030476Y-84189047D01*
X116030476Y-83855714D01*
X116078095Y-83665238D01*
X116173333Y-83570000D01*
X116268571Y-83522380D01*
X116459047Y-83522380D01*
X116554285Y-83570000D01*
X116649523Y-83665238D01*
X116697142Y-83855714D01*
X116697142Y-84189047D01*
X116649523Y-84379523D01*
X116554285Y-84474761D01*
X116459047Y-84522380D01*
X116268571Y-84522380D01*
X117030476Y-83522380D02*
X117697142Y-83522380D01*
X117268571Y-84522380D01*
G04 #@! TO.C,Q6*
X116744761Y-92237619D02*
X116649523Y-92190000D01*
X116554285Y-92094761D01*
X116411428Y-91951904D01*
X116316190Y-91904285D01*
X116220952Y-91904285D01*
X116268571Y-92142380D02*
X116173333Y-92094761D01*
X116078095Y-91999523D01*
X116030476Y-91809047D01*
X116030476Y-91475714D01*
X116078095Y-91285238D01*
X116173333Y-91190000D01*
X116268571Y-91142380D01*
X116459047Y-91142380D01*
X116554285Y-91190000D01*
X116649523Y-91285238D01*
X116697142Y-91475714D01*
X116697142Y-91809047D01*
X116649523Y-91999523D01*
X116554285Y-92094761D01*
X116459047Y-92142380D01*
X116268571Y-92142380D01*
X117554285Y-91142380D02*
X117363809Y-91142380D01*
X117268571Y-91190000D01*
X117220952Y-91237619D01*
X117125714Y-91380476D01*
X117078095Y-91570952D01*
X117078095Y-91951904D01*
X117125714Y-92047142D01*
X117173333Y-92094761D01*
X117268571Y-92142380D01*
X117459047Y-92142380D01*
X117554285Y-92094761D01*
X117601904Y-92047142D01*
X117649523Y-91951904D01*
X117649523Y-91713809D01*
X117601904Y-91618571D01*
X117554285Y-91570952D01*
X117459047Y-91523333D01*
X117268571Y-91523333D01*
X117173333Y-91570952D01*
X117125714Y-91618571D01*
X117078095Y-91713809D01*
G04 #@! TO.C,Q18*
X141668571Y-99857619D02*
X141573333Y-99810000D01*
X141478095Y-99714761D01*
X141335238Y-99571904D01*
X141240000Y-99524285D01*
X141144761Y-99524285D01*
X141192380Y-99762380D02*
X141097142Y-99714761D01*
X141001904Y-99619523D01*
X140954285Y-99429047D01*
X140954285Y-99095714D01*
X141001904Y-98905238D01*
X141097142Y-98810000D01*
X141192380Y-98762380D01*
X141382857Y-98762380D01*
X141478095Y-98810000D01*
X141573333Y-98905238D01*
X141620952Y-99095714D01*
X141620952Y-99429047D01*
X141573333Y-99619523D01*
X141478095Y-99714761D01*
X141382857Y-99762380D01*
X141192380Y-99762380D01*
X142573333Y-99762380D02*
X142001904Y-99762380D01*
X142287619Y-99762380D02*
X142287619Y-98762380D01*
X142192380Y-98905238D01*
X142097142Y-99000476D01*
X142001904Y-99048095D01*
X143144761Y-99190952D02*
X143049523Y-99143333D01*
X143001904Y-99095714D01*
X142954285Y-99000476D01*
X142954285Y-98952857D01*
X143001904Y-98857619D01*
X143049523Y-98810000D01*
X143144761Y-98762380D01*
X143335238Y-98762380D01*
X143430476Y-98810000D01*
X143478095Y-98857619D01*
X143525714Y-98952857D01*
X143525714Y-99000476D01*
X143478095Y-99095714D01*
X143430476Y-99143333D01*
X143335238Y-99190952D01*
X143144761Y-99190952D01*
X143049523Y-99238571D01*
X143001904Y-99286190D01*
X142954285Y-99381428D01*
X142954285Y-99571904D01*
X143001904Y-99667142D01*
X143049523Y-99714761D01*
X143144761Y-99762380D01*
X143335238Y-99762380D01*
X143430476Y-99714761D01*
X143478095Y-99667142D01*
X143525714Y-99571904D01*
X143525714Y-99381428D01*
X143478095Y-99286190D01*
X143430476Y-99238571D01*
X143335238Y-99190952D01*
G04 #@! TO.C,Q5*
X107854761Y-151427619D02*
X107759523Y-151380000D01*
X107664285Y-151284761D01*
X107521428Y-151141904D01*
X107426190Y-151094285D01*
X107330952Y-151094285D01*
X107378571Y-151332380D02*
X107283333Y-151284761D01*
X107188095Y-151189523D01*
X107140476Y-150999047D01*
X107140476Y-150665714D01*
X107188095Y-150475238D01*
X107283333Y-150380000D01*
X107378571Y-150332380D01*
X107569047Y-150332380D01*
X107664285Y-150380000D01*
X107759523Y-150475238D01*
X107807142Y-150665714D01*
X107807142Y-150999047D01*
X107759523Y-151189523D01*
X107664285Y-151284761D01*
X107569047Y-151332380D01*
X107378571Y-151332380D01*
X108711904Y-150332380D02*
X108235714Y-150332380D01*
X108188095Y-150808571D01*
X108235714Y-150760952D01*
X108330952Y-150713333D01*
X108569047Y-150713333D01*
X108664285Y-150760952D01*
X108711904Y-150808571D01*
X108759523Y-150903809D01*
X108759523Y-151141904D01*
X108711904Y-151237142D01*
X108664285Y-151284761D01*
X108569047Y-151332380D01*
X108330952Y-151332380D01*
X108235714Y-151284761D01*
X108188095Y-151237142D01*
G04 #@! TO.C,R2*
X112863333Y-121932380D02*
X112530000Y-121456190D01*
X112291904Y-121932380D02*
X112291904Y-120932380D01*
X112672857Y-120932380D01*
X112768095Y-120980000D01*
X112815714Y-121027619D01*
X112863333Y-121122857D01*
X112863333Y-121265714D01*
X112815714Y-121360952D01*
X112768095Y-121408571D01*
X112672857Y-121456190D01*
X112291904Y-121456190D01*
X113244285Y-121027619D02*
X113291904Y-120980000D01*
X113387142Y-120932380D01*
X113625238Y-120932380D01*
X113720476Y-120980000D01*
X113768095Y-121027619D01*
X113815714Y-121122857D01*
X113815714Y-121218095D01*
X113768095Y-121360952D01*
X113196666Y-121932380D01*
X113815714Y-121932380D01*
G04 #@! TO.C,R3*
X112863333Y-128282380D02*
X112530000Y-127806190D01*
X112291904Y-128282380D02*
X112291904Y-127282380D01*
X112672857Y-127282380D01*
X112768095Y-127330000D01*
X112815714Y-127377619D01*
X112863333Y-127472857D01*
X112863333Y-127615714D01*
X112815714Y-127710952D01*
X112768095Y-127758571D01*
X112672857Y-127806190D01*
X112291904Y-127806190D01*
X113196666Y-127282380D02*
X113815714Y-127282380D01*
X113482380Y-127663333D01*
X113625238Y-127663333D01*
X113720476Y-127710952D01*
X113768095Y-127758571D01*
X113815714Y-127853809D01*
X113815714Y-128091904D01*
X113768095Y-128187142D01*
X113720476Y-128234761D01*
X113625238Y-128282380D01*
X113339523Y-128282380D01*
X113244285Y-128234761D01*
X113196666Y-128187142D01*
G04 #@! TO.C,R6*
X134453333Y-115192380D02*
X134120000Y-114716190D01*
X133881904Y-115192380D02*
X133881904Y-114192380D01*
X134262857Y-114192380D01*
X134358095Y-114240000D01*
X134405714Y-114287619D01*
X134453333Y-114382857D01*
X134453333Y-114525714D01*
X134405714Y-114620952D01*
X134358095Y-114668571D01*
X134262857Y-114716190D01*
X133881904Y-114716190D01*
X135310476Y-114192380D02*
X135120000Y-114192380D01*
X135024761Y-114240000D01*
X134977142Y-114287619D01*
X134881904Y-114430476D01*
X134834285Y-114620952D01*
X134834285Y-115001904D01*
X134881904Y-115097142D01*
X134929523Y-115144761D01*
X135024761Y-115192380D01*
X135215238Y-115192380D01*
X135310476Y-115144761D01*
X135358095Y-115097142D01*
X135405714Y-115001904D01*
X135405714Y-114763809D01*
X135358095Y-114668571D01*
X135310476Y-114620952D01*
X135215238Y-114573333D01*
X135024761Y-114573333D01*
X134929523Y-114620952D01*
X134881904Y-114668571D01*
X134834285Y-114763809D01*
G04 #@! TO.C,R7*
X134453333Y-121542380D02*
X134120000Y-121066190D01*
X133881904Y-121542380D02*
X133881904Y-120542380D01*
X134262857Y-120542380D01*
X134358095Y-120590000D01*
X134405714Y-120637619D01*
X134453333Y-120732857D01*
X134453333Y-120875714D01*
X134405714Y-120970952D01*
X134358095Y-121018571D01*
X134262857Y-121066190D01*
X133881904Y-121066190D01*
X134786666Y-120542380D02*
X135453333Y-120542380D01*
X135024761Y-121542380D01*
G04 #@! TD*
M02*
